<?xml version="1.0" encoding="utf-8"?>
<!-- Generator: Adobe Illustrator 18.0.0, SVG Export Plug-In . SVG Version: 6.00 Build 0)  -->
<!DOCTYPE svg PUBLIC "-//W3C//DTD SVG 1.1//EN" "http://www.w3.org/Graphics/SVG/1.1/DTD/svg11.dtd">
<svg version="1.1" id="Layer_1" xmlns="http://www.w3.org/2000/svg" xmlns:xlink="http://www.w3.org/1999/xlink" x="0px" y="0px"
	 viewBox="0 0 595.3 230.3" enable-background="new 0 0 595.3 230.3" xml:space="preserve">
<g>
	<polygon fill="#FFFFFF" stroke="#FFFFFF" stroke-miterlimit="10" points="108.4,72.3 144.6,72.3 72.3,0 0,72.3 36.2,72.3 0,108.4 
		36.2,108.4 0,144.6 36.2,144.6 0,180.7 47.2,180.7 47.2,230.3 97.4,230.3 97.4,180.7 144.6,180.7 108.4,144.6 144.6,144.6 
		108.4,108.4 144.6,108.4 	"/>
	<g>
		<g>
			<path fill="#FFFFFF" stroke="#FFFFFF" stroke-miterlimit="10" d="M249,227.8c-0.4,0-0.7-0.3-0.7-0.7v-19.7h-37v19.7
				c0,0.4-0.3,0.7-0.7,0.7h-2.9c-0.4,0-0.7-0.3-0.7-0.7v-64.3c0-0.1,0-0.2,0.1-0.3c0.8-11.9,10.8-21.2,22.8-21.2
				c12,0,21.9,9.3,22.8,21.2c0,0.1,0,0.2,0,0.2l0,1.2v63.2c0,0.4-0.3,0.7-0.7,0.7L249,227.8L249,227.8z M248.3,203.1v-39
				c0-10.2-8.3-18.5-18.5-18.5c-10.2,0-18.5,8.3-18.5,18.5v39L248.3,203.1L248.3,203.1z"/>
			<path fill="#FFFFFF" stroke="#FFFFFF" stroke-miterlimit="10" d="M249,227.1v-20.4h-38.5v20.4h-2.9v-64.3h0
				c0.7-11.5,10.4-20.8,22.1-20.8s21.4,9.2,22.1,20.8h0v1.2v63.2H249z M249,203.8v-39.7c0-10.6-8.6-19.2-19.2-19.2
				c-10.6,0-19.3,8.6-19.3,19.2v39.7H249z"/>
			<path fill="#FFFFFF" stroke="#FFFFFF" stroke-miterlimit="10" d="M250.2,226.7c-0.4,0-0.7-0.3-0.7-0.7v-19.7h-39.3v19.7
				c0,0.4-0.3,0.7-0.7,0.7h-0.6c-0.4,0-0.7-0.3-0.7-0.7v-62c0-0.1,0-0.1,0-0.1c0.2-11.8,9.9-21.4,21.7-21.4
				c11.8,0,21.5,9.6,21.7,21.4c0,0,0,0.1,0,0.1v62c0,0.4-0.3,0.7-0.7,0.7L250.2,226.7L250.2,226.7z M249.4,204.2v-40.1
				c0-10.8-8.8-19.7-19.7-19.7s-19.7,8.8-19.7,19.7v40.1H249.4z"/>
			<path fill="#FFFFFF" stroke="#FFFFFF" stroke-miterlimit="10" d="M229.8,143.1c-11.5,0-20.8,9.3-20.9,20.8h0v62h0.6v-20.4h40.8
				v20.4h0.6v-62h0C250.6,152.4,241.3,143.1,229.8,143.1z M250.2,205h-40.8v-40.9c0-11.2,9.2-20.4,20.4-20.4
				c11.2,0,20.4,9.1,20.4,20.4V205z"/>
			<path fill="#FFFFFF" stroke="#FFFFFF" stroke-miterlimit="10" d="M377.9,227.8c-0.4,0-0.7-0.3-0.7-0.7v-19.7h-37v19.7
				c0,0.4-0.3,0.7-0.7,0.7h-2.9c-0.4,0-0.7-0.3-0.7-0.7v-64.3c0-0.1,0-0.2,0.1-0.3c0.8-11.9,10.8-21.2,22.8-21.2
				c12,0,21.9,9.3,22.8,21.2c0,0.1,0.1,0.2,0.1,0.3l0,1.2v63.2c0,0.4-0.3,0.7-0.7,0.7L377.9,227.8L377.9,227.8z M377.2,203.1v-39
				c0-10.2-8.3-18.5-18.5-18.5c-10.2,0-18.5,8.3-18.5,18.5v39L377.2,203.1L377.2,203.1z"/>
			<path fill="#FFFFFF" stroke="#FFFFFF" stroke-miterlimit="10" d="M377.9,227.1v-20.4h-38.5v20.4h-2.9v-64.3h0
				c0.7-11.5,10.4-20.8,22.1-20.8c11.7,0,21.4,9.2,22.1,20.8h0l0,1.2v63.2H377.9z M377.9,203.8v-39.7c0-10.6-8.6-19.2-19.2-19.2
				c-10.6,0-19.2,8.6-19.2,19.2v39.7H377.9z"/>
			<path fill="#FFFFFF" stroke="#FFFFFF" stroke-miterlimit="10" d="M379.1,226.7c-0.4,0-0.7-0.3-0.7-0.7v-19.7H339v19.7
				c0,0.4-0.3,0.7-0.7,0.7h-0.6c-0.4,0-0.7-0.3-0.7-0.7v-62c0-0.1,0-0.1,0-0.1c0.2-11.8,9.9-21.4,21.7-21.4
				c11.8,0,21.5,9.6,21.7,21.4c0,0,0,0.1,0,0.1v62c0,0.4-0.3,0.7-0.7,0.7H379.1z M378.3,204.2v-40.1c0-10.8-8.8-19.7-19.7-19.7
				c-10.8,0-19.6,8.8-19.6,19.7v40.1H378.3z"/>
			<path fill="#FFFFFF" stroke="#FFFFFF" stroke-miterlimit="10" d="M379.6,163.9c-0.1-11.5-9.4-20.8-21-20.8
				c-11.5,0-20.8,9.3-21,20.8h0v62h0.6v-20.4h40.8v20.4h0.6L379.6,163.9L379.6,163.9z M379.1,205h-40.8v-40.9
				c0-11.2,9.2-20.4,20.4-20.4c11.2,0,20.4,9.1,20.4,20.4L379.1,205L379.1,205z"/>
			<path fill="#FFFFFF" stroke="#FFFFFF" stroke-miterlimit="10" d="M318.6,228c-0.4,0-0.7-0.3-0.7-0.7v-81.7h-17.8
				c-0.4,0-0.7-0.3-0.7-0.7V142c0-0.4,0.3-0.7,0.7-0.7h38.4c0.4,0,0.7,0.3,0.7,0.7v2.9c0,0.4-0.3,0.7-0.7,0.7h-16.2v81.7
				c0,0.4-0.3,0.7-0.7,0.7L318.6,228L318.6,228z"/>
			<polygon fill="#FFFFFF" stroke="#FFFFFF" stroke-miterlimit="10" points="318.6,227.3 318.6,144.9 300.1,144.9 300.1,142 
				338.5,142 338.5,144.9 321.5,144.9 321.5,227.3 			"/>
			<path fill="#FFFFFF" stroke="#FFFFFF" stroke-miterlimit="10" d="M319.8,226.9c-0.4,0-0.7-0.3-0.7-0.7v-81.7h-17.8
				c-0.4,0-0.7-0.3-0.7-0.7v-0.6c0-0.4,0.3-0.7,0.7-0.7h36.1c0.4,0,0.7,0.3,0.7,0.7v0.6c0,0.4-0.3,0.7-0.7,0.7h-16.2v81.7
				c0,0.4-0.3,0.7-0.7,0.7H319.8z"/>
			<polygon fill="#FFFFFF" stroke="#FFFFFF" stroke-miterlimit="10" points="319.8,226.1 320.4,226.1 320.4,143.7 337.3,143.7 
				337.3,143.1 301.2,143.1 301.2,143.7 319.8,143.7 			"/>
			<path fill="#FFFFFF" stroke="#FFFFFF" stroke-miterlimit="10" d="M278.6,228.3c-12.6,0-22.8-10.2-22.8-22.8v-1.1
				c0-0.4,0.3-0.7,0.7-0.7h2.9c0.4,0,0.7,0.3,0.7,0.7v1.1c0,10.2,8.3,18.5,18.5,18.5c10.2,0,18.5-8.3,18.5-18.5
				c0-10.2-8.3-18.5-18.5-18.5c-12.6,0-22.8-10.2-22.8-22.8c0-12.6,10.2-22.8,22.8-22.8c12.6,0,22.9,10.2,22.9,22.8v1.2
				c0,0.4-0.3,0.7-0.7,0.7h-2.9c-0.4,0-0.7-0.3-0.7-0.7v-1.2c0-10.2-8.3-18.5-18.5-18.5c-10.2,0-18.5,8.3-18.5,18.5
				c0,10.2,8.3,18.5,18.5,18.5c12.6,0,22.9,10.2,22.9,22.8C301.5,218,291.2,228.3,278.6,228.3z"/>
			<path fill="#FFFFFF" stroke="#FFFFFF" stroke-miterlimit="10" d="M278.6,227.6c-12.2,0-22.1-9.9-22.1-22.1v-1.1h2.9v1.1
				c0,10.6,8.6,19.2,19.2,19.2c10.6,0,19.3-8.6,19.3-19.2c0-10.6-8.6-19.2-19.3-19.2c-12.2,0-22.1-9.9-22.1-22.1
				c0-12.2,9.9-22.1,22.1-22.1c12.2,0,22.1,9.9,22.1,22.1v1.2h-2.9v-1.2c0-10.6-8.6-19.2-19.3-19.2c-10.6,0-19.2,8.6-19.2,19.2
				c0,10.6,8.6,19.2,19.2,19.2c12.2,0,22.1,9.9,22.1,22.1C300.7,217.6,290.8,227.6,278.6,227.6z"/>
			<path fill="#FFFFFF" stroke="#FFFFFF" stroke-miterlimit="10" d="M278.6,227.1c-11.9,0-21.7-9.7-21.7-21.7c0-0.4,0.3-0.7,0.7-0.7
				h0.6c0.4,0,0.7,0.3,0.7,0.7c0,10.8,8.8,19.6,19.7,19.6c10.8,0,19.7-8.8,19.7-19.6c0-10.8-8.8-19.7-19.7-19.7
				c-11.9,0-21.7-9.7-21.7-21.7c0-12,9.7-21.7,21.7-21.7c12,0,21.7,9.7,21.7,21.7c0,0.4-0.3,0.7-0.7,0.7H299c-0.4,0-0.7-0.3-0.7-0.7
				c0-10.8-8.8-19.6-19.7-19.6c-10.8,0-19.7,8.8-19.7,19.6c0,10.8,8.8,19.7,19.7,19.7c12,0,21.7,9.7,21.7,21.7
				C300.3,217.4,290.6,227.1,278.6,227.1z"/>
			<path fill="#FFFFFF" stroke="#FFFFFF" stroke-miterlimit="10" d="M278.6,143.7c11.3,0,20.4,9.1,20.4,20.4h0.6
				c0-11.6-9.4-21-21-21c-11.6,0-20.9,9.4-20.9,21l0,0l0,0l0,0l0,0c0,11.6,9.4,21,20.9,21c11.3,0,20.4,9.1,20.4,20.4
				c0,11.2-9.1,20.4-20.4,20.4c-11.2,0-20.4-9.2-20.4-20.4h-0.6c0,11.6,9.4,20.9,20.9,20.9c11.6,0,21-9.4,21-20.9l0,0l0,0l0,0l0,0
				c0-11.6-9.4-21-21-21c-11.2,0-20.4-9.1-20.4-20.4C258.2,152.8,267.4,143.7,278.6,143.7z"/>
			<path fill="#FFFFFF" stroke="#FFFFFF" stroke-miterlimit="10" d="M199.6,228c-0.4,0-0.7-0.3-0.7-0.7v-21.8
				c0-10.2-8.3-18.5-18.5-18.5h-18.5v40.3c0,0.4-0.3,0.7-0.7,0.7h-2.9c-0.4,0-0.7-0.3-0.7-0.7V142c0-0.4,0.3-0.7,0.7-0.7h22.1
				c12.6,0,22.8,10.2,22.8,22.8v22.1c0,0.4-0.3,0.7-0.7,0.7l-8.7,0c5.9,4.2,9.5,11.1,9.5,18.5v21.8c0,0.4-0.3,0.7-0.7,0.7L199.6,228
				L199.6,228z M198.9,182.6v-18.5c0-10.2-8.3-18.5-18.5-18.5h-18.5v37L198.9,182.6L198.9,182.6z"/>
			<path fill="#FFFFFF" stroke="#FFFFFF" stroke-miterlimit="10" d="M199.6,227.3v-21.8c0-10.6-8.6-19.2-19.2-19.2h-19.2v41.1h-2.9
				V142h22.1c12.2,0,22.1,9.9,22.1,22.1v22.1l-11.2,0c6.8,3.8,11.2,11.1,11.2,19.2v21.8H199.6z M199.6,183.3v-19.2
				c0-10.6-8.6-19.2-19.2-19.2h-19.2v38.5H199.6z"/>
			<path fill="#FFFFFF" stroke="#FFFFFF" stroke-miterlimit="10" d="M200.8,226.9c-0.4,0-0.7-0.3-0.7-0.7v-20.7
				c0-10.8-8.8-19.7-19.7-19.7h-19.6v40.3c0,0.4-0.3,0.7-0.7,0.7h-0.6c-0.4,0-0.7-0.3-0.7-0.7v-82.7c0-0.3,0.2-0.5,0.4-0.7
				c0.1-0.2,0.4-0.4,0.6-0.4h20.7c12,0,21.7,9.7,21.7,21.7v20.7c0,0.3-0.2,0.5-0.4,0.6c-0.1,0.2-0.4,0.4-0.6,0.4h-11.6
				c3,1.4,5.7,3.5,7.8,6.1c3.1,3.8,4.8,8.6,4.8,13.6v20.7c0,0.4-0.3,0.7-0.7,0.7L200.8,226.9L200.8,226.9z M200.1,183.7v-19.7
				c0-10.8-8.8-19.7-19.7-19.7h-19.6v39.3L200.1,183.7L200.1,183.7z"/>
			<path fill="#FFFFFF" stroke="#FFFFFF" stroke-miterlimit="10" d="M180.4,143.1h-20.7v0.3h-0.3v82.7h0.6v-41.1h20.4
				c11.2,0,20.4,9.1,20.4,20.4v20.7h0.6v-20.7c0-9.9-6.9-18.2-16.2-20.4h15.9v-0.3h0.3v-20.7C201.4,152.5,191.9,143.1,180.4,143.1z
				 M200.8,184.5H160v-40.8h20.4c11.2,0,20.4,9.1,20.4,20.4V184.5z"/>
		</g>
		<g>
			<path fill="#FFFFFF" stroke="#FFFFFF" stroke-miterlimit="10" d="M460.3,227.6c-12.3,0-22.6-9.6-23.5-21.8c0-0.1-0.1-0.2-0.1-0.3
				l0-1.2v-42.6c0-13,10.6-23.5,23.5-23.5c13,0,23.5,10.5,23.5,23.5v43.5c0,0.1,0,0.2,0,0.3C483.1,217.9,472.8,227.6,460.3,227.6z
				 M460.3,142.7c-10.5,0-19.1,8.6-19.1,19.1v42.4c0,10.5,8.6,19.1,19.1,19.1c10.5,0,19.1-8.6,19.1-19.1v-42.4
				C479.4,151.2,470.8,142.7,460.3,142.7z"/>
			<path fill="#FFFFFF" stroke="#FFFFFF" stroke-miterlimit="10" d="M460.3,226.9c-12.1,0-22-9.5-22.7-21.4h0l0-1.2v-42.6
				c0-12.6,10.2-22.8,22.8-22.8c12.5,0,22.8,10.2,22.8,22.8v43.5h0C482.4,217.3,472.5,226.9,460.3,226.9z M460.3,141.9
				c-10.9,0-19.8,8.9-19.8,19.8v42.4c0,10.9,8.9,19.8,19.8,19.8c10.9,0,19.8-8.9,19.8-19.8v-42.4
				C480.1,150.8,471.2,141.9,460.3,141.9z"/>
			<path fill="#FFFFFF" stroke="#FFFFFF" stroke-miterlimit="10" d="M460.3,226.4c-12.2,0-22.2-9.9-22.3-22c0-0.1,0-0.1,0-0.2v-42.6
				c0-12.3,10-22.3,22.3-22.3c12.3,0,22.3,10,22.3,22.3v42.4C482.6,216.4,472.6,226.4,460.3,226.4z M460.3,141.5
				c-11.2,0-20.3,9.1-20.3,20.2v42.4c0,11.2,9.1,20.2,20.3,20.2c11.1,0,20.2-9.1,20.2-20.2v-42.4
				C480.5,150.6,471.5,141.5,460.3,141.5z"/>
			<path fill="#FFFFFF" stroke="#FFFFFF" stroke-miterlimit="10" d="M460.3,140.1c-11.9,0-21.6,9.7-21.6,21.6l0,0v42.6h0
				c0.1,11.8,9.7,21.4,21.6,21.4c11.9,0,21.6-9.7,21.6-21.6h-0.6c0,11.6-9.4,21-21,21c-11.6,0-21-9.4-21-21v-42.4
				c0-11.6,9.4-21,21-21c11.6,0,21,9.4,21,21v42.3h0.6v-42.3C481.9,149.8,472.2,140.1,460.3,140.1z"/>
			<path fill="#FFFFFF" stroke="#FFFFFF" stroke-miterlimit="10" d="M510.6,227.6c-12.3,0-22.6-9.6-23.5-21.9c0-0.1-0.1-0.2-0.1-0.3
				l0-1.2v-42.6c0-13,10.6-23.5,23.5-23.5c13,0,23.5,10.5,23.5,23.5v43.5c0,0.1,0,0.2,0,0.3C533.3,217.9,523.1,227.6,510.6,227.6z
				 M510.6,142.6c-10.5,0-19.1,8.6-19.1,19.1v42.4c0,10.5,8.6,19,19.1,19c10.5,0,19.1-8.5,19.1-19v-42.4
				C529.6,151.2,521.1,142.6,510.6,142.6z"/>
			<path fill="#FFFFFF" stroke="#FFFFFF" stroke-miterlimit="10" d="M510.6,226.9c-12.1,0-22-9.5-22.7-21.4h0l0-1.2v-42.6
				c0-12.6,10.2-22.8,22.8-22.8c12.6,0,22.8,10.2,22.8,22.8v43.5h0C532.7,217.2,522.7,226.9,510.6,226.9z M510.6,141.9
				c-10.9,0-19.8,8.9-19.8,19.8v42.4c0,10.9,8.9,19.8,19.8,19.8c10.9,0,19.8-8.9,19.8-19.8v-42.4
				C530.4,150.8,521.5,141.9,510.6,141.9z"/>
			<path fill="#FFFFFF" stroke="#FFFFFF" stroke-miterlimit="10" d="M510.6,226.4c-12.2,0-22.2-9.9-22.3-22c0,0,0-0.1,0-0.1v-42.6
				c0-12.3,10-22.3,22.3-22.3c12.3,0,22.3,10,22.3,22.3v42.4C532.9,216.4,522.9,226.4,510.6,226.4z M510.6,141.5
				c-11.2,0-20.2,9.1-20.2,20.2v42.4c0,11.2,9.1,20.2,20.2,20.2c11.2,0,20.2-9.1,20.2-20.2v-42.4
				C530.8,150.5,521.7,141.5,510.6,141.5z"/>
			<path fill="#FFFFFF" stroke="#FFFFFF" stroke-miterlimit="10" d="M510.6,140.1c-11.9,0-21.6,9.7-21.6,21.6l0,0v42.6h0
				c0.1,11.8,9.7,21.4,21.6,21.4c11.9,0,21.6-9.7,21.6-21.6h-0.6c0,11.6-9.4,21-21,21c-11.6,0-21-9.4-21-21v-42.4
				c0-11.6,9.4-21,21-21c11.6,0,21,9.4,21,21V204h0.6v-42.3C532.2,149.8,522.5,140.1,510.6,140.1z"/>
			<path fill="#FFFFFF" stroke="#FFFFFF" stroke-miterlimit="10" d="M537.9,227.6c-0.4,0-0.7-0.3-0.7-0.7v-85.6
				c0-0.4,0.3-0.7,0.7-0.7h22.1c12.6,0,22.8,10.2,22.8,22.8v41.4c0,12.6-10.2,22.8-22.8,22.8L537.9,227.6L537.9,227.6z M560.1,223.3
				c10.2,0,18.5-8.3,18.5-18.5v-41.4c0-10.2-8.3-18.5-18.5-18.5h-18.5v78.4L560.1,223.3L560.1,223.3z"/>
			<path fill="#FFFFFF" stroke="#FFFFFF" stroke-miterlimit="10" d="M537.9,226.9v-85.6h22.1c12.2,0,22.1,9.9,22.1,22.1v41.4
				c0,12.2-9.9,22.1-22.1,22.1l0,0L537.9,226.9L537.9,226.9z M560.1,224c10.6,0,19.2-8.6,19.2-19.2v-41.4c0-10.6-8.6-19.2-19.2-19.2
				h-19.2V224L560.1,224L560.1,224z"/>
			<path fill="#FFFFFF" stroke="#FFFFFF" stroke-miterlimit="10" d="M539.4,226.5c-0.3,0-0.5-0.2-0.6-0.4c-0.2-0.1-0.4-0.4-0.4-0.6
				v-82.7c0-0.3,0.2-0.5,0.4-0.6c0.1-0.2,0.4-0.4,0.6-0.4h20.7c12,0,21.7,9.7,21.7,21.7v41.4c0,12-9.7,21.7-21.7,21.7L539.4,226.5
				L539.4,226.5z M560.1,224.4c10.8,0,19.7-8.8,19.7-19.7v-41.4c0-10.8-8.8-19.6-19.7-19.6h-19.7v80.7H560.1z"/>
			<path fill="#FFFFFF" stroke="#FFFFFF" stroke-miterlimit="10" d="M560.1,142.4h-20.7v0.3h-0.3v82.7h0.3v0.3h20.7l0,0
				c11.5,0,21-9.4,21-21l0,0v-41.4C581,151.8,571.6,142.4,560.1,142.4z M580.4,204.8L580.4,204.8c0,11.2-9.1,20.4-20.4,20.4l0,0
				h-20.4V143h20.4c11.2,0,20.4,9.1,20.4,20.4V204.8z"/>
			<path fill="#FFFFFF" stroke="#FFFFFF" stroke-miterlimit="10" d="M430.8,227.9c-0.3,0-0.5-0.2-0.7-0.4L411,189.3l-19.1,38.2
				c-0.1,0.3-0.4,0.4-0.6,0.4h-2.3c-0.4,0-0.7-0.3-0.7-0.7v-85.2c0-0.4,0.3-0.7,0.7-0.7h2.9c0.4,0,0.7,0.3,0.7,0.7v74.7l17.1-34.2
				c0.1-0.2,0.4-0.4,0.7-0.4h1.5c0.3,0,0.5,0.2,0.6,0.4l17.1,34.2v-74.7c0-0.4,0.3-0.7,0.7-0.7h2.9c0.4,0,0.7,0.3,0.7,0.7v85.2
				c0,0.4-0.3,0.7-0.7,0.7H430.8z"/>
			<polygon fill="#FFFFFF" stroke="#FFFFFF" stroke-miterlimit="10" points="411,187.6 391.2,227.2 388.9,227.2 388.9,141.9 
				391.7,141.9 391.7,219.7 410.2,182.8 411.7,182.8 430.2,219.7 430.2,141.9 433.1,141.9 433.1,227.2 430.8,227.2 			"/>
			<path fill="#FFFFFF" stroke="#FFFFFF" stroke-miterlimit="10" d="M431.4,226.6c-0.1,0-0.1,0-0.2,0c-0.2-0.1-0.3-0.2-0.4-0.4
				L411,186.7l-19.8,39.5c-0.1,0.2-0.2,0.3-0.4,0.4c-0.1,0-0.1,0-0.2,0c-0.1,0-0.2,0-0.3-0.1l-0.1-0.1H390c-0.4,0-0.7-0.3-0.7-0.7
				v-82.7c0-0.4,0.3-0.7,0.7-0.7h0.6c0.4,0,0.7,0.3,0.7,0.7v78.4l18.8-37.5c0.1-0.2,0.2-0.3,0.4-0.4c0.1,0,0.1,0,0.2,0
				c0.1,0,0.2,0,0.3,0c0.1,0,0.2,0,0.3,0c0.1,0,0.2,0,0.2,0c0.2,0.1,0.3,0.2,0.4,0.4l18.8,37.5v-78.4c0-0.4,0.3-0.7,0.7-0.7h0.6
				c0.4,0,0.7,0.3,0.7,0.7v82.7c0,0.4-0.3,0.7-0.7,0.7h-0.1l-0.1,0.1C431.6,226.6,431.5,226.6,431.4,226.6z"/>
			<polygon fill="#FFFFFF" stroke="#FFFFFF" stroke-miterlimit="10" points="431.4,224.6 411.2,184.3 411,184.4 410.7,184.3 
				390.6,224.6 390.6,143.1 390,143.1 390,225.8 390.3,225.8 390.6,225.9 411,185.1 431.4,225.9 431.7,225.8 431.9,225.8 
				431.9,143.1 431.4,143.1 			"/>
		</g>
		<g>
			<path fill="#FFFFFF" stroke="#FFFFFF" stroke-miterlimit="10" d="M595.9,130.7c0,5.4-3.5,9.9-9.8,9.9c-6.3,0-9.8-4.5-9.8-9.9
				c0-5.4,3.5-9.9,9.8-9.9C592.4,120.8,595.9,125.3,595.9,130.7z M586,139.4c5.4,0,8.5-3.9,8.5-8.7c0-4.9-3.1-8.7-8.5-8.7
				s-8.4,3.9-8.4,8.7C577.6,135.6,580.7,139.4,586,139.4z M587.1,125.4h-4.6v10.4h1.3v-3.9h2.3l3.4,3.9h1.4v-0.2l-3.3-3.7
				C591.6,131.3,591.5,125.4,587.1,125.4z M583.7,126.6h3.4c2.9,0,2.9,4.1-0.1,4.1h-3.3V126.6z"/>
		</g>
	</g>
</g>
</svg>
