<?xml version="1.0" encoding="utf-8"?>
<!-- Generator: Adobe Illustrator 15.0.0, SVG Export Plug-In . SVG Version: 6.00 Build 0)  -->
<!DOCTYPE svg PUBLIC "-//W3C//DTD SVG 1.1//EN" "http://www.w3.org/Graphics/SVG/1.1/DTD/svg11.dtd">
<svg version="1.1" id="Layer_1" xmlns="http://www.w3.org/2000/svg" xmlns:xlink="http://www.w3.org/1999/xlink" x="0px" y="0px"
	 width="595.28px" height="230.323px" viewBox="0 0 595.28 230.323" enable-background="new 0 0 595.28 230.323"
	 xml:space="preserve">
<g>
	<polygon fill="#E20613" points="108.449,72.277 144.588,72.277 72.311,0 0.033,72.277 36.172,72.277 0.033,108.415 36.172,108.415 
		0.033,144.555 36.172,144.555 0.033,180.693 47.216,180.693 47.216,230.323 97.406,230.323 97.406,180.693 144.588,180.693 
		108.448,144.555 144.588,144.555 108.448,108.415 144.588,108.415 	"/>
	<g>
		<g>
			<path fill="#404041" d="M249.028,227.813c-0.407,0-0.733-0.326-0.733-0.734v-19.666h-37.022v19.666
				c0,0.408-0.326,0.734-0.741,0.734h-2.859c-0.399,0-0.725-0.326-0.725-0.734v-64.335c0-0.098,0.016-0.203,0.065-0.295
				c0.847-11.904,10.799-21.189,22.77-21.189c11.972,0,21.939,9.302,22.77,21.238c0.033,0.083,0.049,0.158,0.049,0.246l0.017,1.156
				v63.179c0,0.408-0.326,0.734-0.733,0.734H249.028z M248.295,203.088v-39.001c0-10.205-8.299-18.503-18.511-18.503
				c-10.204,0-18.511,8.298-18.511,18.503v39.001H248.295z"/>
			<path fill="#404041" d="M249.028,227.078v-20.392h-38.496v20.392h-2.859v-64.335h0.041c0.7-11.548,10.375-20.767,22.069-20.767
				s21.354,9.219,22.061,20.767h0.041v1.166v63.169H249.028z M249.028,203.819v-39.732c0-10.612-8.641-19.235-19.244-19.235
				c-10.619,0-19.251,8.623-19.251,19.235v39.732H249.028z"/>
			<path fill="#404041" d="M250.168,226.665c-0.407,0-0.725-0.327-0.725-0.734v-19.666h-39.327v19.666
				c0,0.407-0.317,0.734-0.725,0.734h-0.57c-0.407,0-0.733-0.327-0.733-0.734v-62.021c0-0.059,0.017-0.098,0.017-0.146
				c0.178-11.796,9.878-21.361,21.678-21.361c11.809,0,21.516,9.575,21.679,21.385c0.008,0.031,0.016,0.074,0.016,0.123v62.021
				c0,0.407-0.333,0.734-0.732,0.734H250.168z M249.443,204.228v-40.141c0-10.831-8.812-19.651-19.659-19.651
				s-19.667,8.82-19.667,19.651v40.141H249.443z"/>
			<path fill="#404041" d="M229.784,143.134c-11.491,0-20.848,9.3-20.945,20.775h-0.017v62.021h0.57v-20.383h40.776v20.383h0.579
				v-62.021h-0.017C250.632,152.434,241.274,143.134,229.784,143.134z M250.168,204.962h-40.776v-40.875
				c0-11.239,9.154-20.385,20.392-20.385c11.239,0,20.384,9.146,20.384,20.385V204.962z"/>
			<path fill="#404041" d="M377.92,227.813c-0.408,0-0.733-0.326-0.733-0.734v-19.666h-37.015v19.666
				c0,0.408-0.333,0.734-0.741,0.734h-2.857c-0.407,0-0.741-0.326-0.741-0.734v-64.335c0-0.098,0.032-0.203,0.081-0.301
				c0.849-11.907,10.808-21.184,22.762-21.184c11.972,0,21.932,9.302,22.77,21.207c0.042,0.089,0.06,0.189,0.06,0.277l0.015,1.156
				v63.179c0,0.408-0.325,0.734-0.732,0.734H377.92z M377.187,203.088v-39.001c0-10.205-8.29-18.503-18.512-18.503
				c-10.203,0-18.503,8.298-18.503,18.503v39.001H377.187z"/>
			<path fill="#404041" d="M377.92,227.078v-20.392h-38.489v20.392h-2.857v-64.335h0.041c0.717-11.548,10.375-20.767,22.061-20.767
				c11.703,0,21.362,9.219,22.063,20.767h0.033l0.016,1.166v63.169H377.92z M377.92,203.819v-39.732
				c0-10.612-8.634-19.235-19.245-19.235c-10.603,0-19.244,8.623-19.244,19.235v39.732H377.92z"/>
			<path fill="#404041" d="M379.059,226.665c-0.399,0-0.716-0.327-0.716-0.734v-19.666h-39.318v19.666
				c0,0.407-0.343,0.734-0.741,0.734h-0.578c-0.392,0-0.717-0.327-0.717-0.734v-62.021c0-0.059,0-0.098,0.008-0.141
				c0.188-11.792,9.879-21.367,21.679-21.367c11.81,0,21.509,9.565,21.68,21.367c0.008,0.043,0.008,0.082,0.008,0.141v62.021
				c0,0.407-0.31,0.734-0.725,0.734H379.059z M378.343,204.228v-40.141c0-10.831-8.828-19.651-19.668-19.651
				c-10.838,0-19.65,8.82-19.65,19.651v40.141H378.343z"/>
			<path fill="#404041" d="M379.63,163.909c-0.098-11.476-9.447-20.775-20.955-20.775c-11.491,0-20.839,9.3-20.953,20.775h-0.017
				v62.021h0.578v-20.383h40.775v20.383h0.579v-62.021H379.63z M379.059,204.962h-40.775v-40.875
				c0-11.239,9.155-20.385,20.392-20.385c11.247,0,20.384,9.146,20.384,20.385V204.962z"/>
			<path fill="#404041" d="M318.632,228c-0.399,0-0.715-0.327-0.715-0.727v-81.689h-17.836c-0.407,0-0.725-0.326-0.725-0.732v-2.875
				c0-0.399,0.317-0.718,0.725-0.718h38.374c0.391,0,0.725,0.318,0.725,0.718v2.875c0,0.406-0.334,0.732-0.725,0.732h-16.206v81.689
				c0,0.399-0.326,0.727-0.733,0.727H318.632z"/>
			<polygon fill="#404041" points="318.632,227.273 318.632,144.852 300.081,144.852 300.081,141.977 338.455,141.977 
				338.455,144.852 321.516,144.852 321.516,227.273 			"/>
			<path fill="#404041" d="M319.788,226.852c-0.407,0-0.733-0.335-0.733-0.726v-81.69h-17.816c-0.408,0-0.733-0.326-0.733-0.733
				v-0.568c0-0.408,0.325-0.732,0.733-0.732h36.061c0.406,0,0.732,0.324,0.732,0.732v0.568c0,0.407-0.326,0.733-0.732,0.733h-16.207
				v81.69c0,0.391-0.325,0.726-0.733,0.726H319.788z"/>
			<polygon fill="#404041" points="319.788,226.126 320.358,226.126 320.358,143.702 337.299,143.702 337.299,143.134 
				301.238,143.134 301.238,143.702 319.788,143.702 			"/>
			<path fill="#404041" d="M278.598,228.283c-12.582,0-22.827-10.235-22.827-22.833v-1.148c0-0.398,0.318-0.74,0.725-0.74h2.875
				c0.399,0,0.725,0.342,0.725,0.74v1.148c0,10.202,8.307,18.511,18.502,18.511c10.212,0,18.511-8.309,18.511-18.511
				c0-10.212-8.299-18.521-18.511-18.521c-12.582,0-22.827-10.245-22.827-22.843c0-12.591,10.245-22.828,22.827-22.828
				c12.598,0,22.853,10.237,22.853,22.828v1.156c0,0.407-0.327,0.724-0.726,0.724h-2.875c-0.407,0-0.74-0.316-0.74-0.724v-1.156
				c0-10.205-8.299-18.503-18.511-18.503c-10.195,0-18.502,8.298-18.502,18.503c0,10.204,8.307,18.52,18.502,18.52
				c12.598,0,22.853,10.244,22.853,22.844C301.45,218.048,291.196,228.283,278.598,228.283z"/>
			<path fill="#404041" d="M278.598,227.552c-12.183,0-22.102-9.91-22.102-22.102v-1.148h2.875v1.148
				c0,10.595,8.624,19.242,19.227,19.242c10.619,0,19.251-8.647,19.251-19.242c0-10.62-8.632-19.244-19.251-19.244
				c-12.183,0-22.102-9.928-22.102-22.119c0-12.183,9.919-22.11,22.102-22.11c12.199,0,22.127,9.928,22.127,22.11v1.156h-2.875
				v-1.156c0-10.596-8.632-19.235-19.251-19.235c-10.604,0-19.227,8.64-19.227,19.235c0,10.619,8.624,19.244,19.227,19.244
				c12.199,0,22.127,9.919,22.127,22.119C300.725,217.642,290.797,227.552,278.598,227.552z"/>
			<path fill="#404041" d="M278.598,227.127c-11.947,0-21.679-9.724-21.679-21.677c0-0.408,0.326-0.727,0.733-0.727h0.569
				c0.407,0,0.725,0.318,0.725,0.727c0,10.831,8.819,19.65,19.651,19.65c10.848,0,19.674-8.819,19.674-19.65
				c0-10.849-8.827-19.669-19.674-19.669c-11.947,0-21.679-9.731-21.679-21.694c0-11.956,9.732-21.686,21.679-21.686
				c11.955,0,21.696,9.729,21.696,21.686c0,0.398-0.326,0.732-0.726,0.732h-0.579c-0.399,0-0.717-0.334-0.717-0.732
				c0-10.831-8.827-19.643-19.674-19.643c-10.832,0-19.651,8.812-19.651,19.643c0,10.849,8.819,19.66,19.651,19.66
				c11.955,0,21.696,9.747,21.696,21.703C300.294,217.403,290.553,227.127,278.598,227.127z"/>
			<path fill="#404041" d="M278.598,143.702c11.255,0,20.392,9.146,20.392,20.385h0.579c0-11.556-9.406-20.953-20.971-20.953
				c-11.556,0-20.945,9.397-20.945,20.953l0,0l0,0l0,0l0,0c0,11.563,9.389,20.971,20.945,20.971
				c11.255,0,20.392,9.146,20.392,20.393c0,11.222-9.137,20.391-20.392,20.391c-11.23,0-20.376-9.169-20.376-20.391h-0.569
				c0,11.555,9.389,20.945,20.945,20.945c11.565,0,20.971-9.391,20.971-20.945l0,0l0,0l0,0l0,0c0-11.558-9.406-20.971-20.971-20.971
				c-11.23,0-20.376-9.146-20.376-20.393C258.222,152.848,267.368,143.702,278.598,143.702z"/>
			<path fill="#404041" d="M199.635,228c-0.407,0-0.733-0.327-0.733-0.727V205.45c0-10.212-8.306-18.521-18.511-18.521h-18.494
				v40.344c0,0.399-0.334,0.727-0.733,0.727h-2.883c-0.4,0-0.725-0.327-0.725-0.727v-85.297c0-0.399,0.325-0.718,0.725-0.718h22.11
				c12.599,0,22.843,10.237,22.843,22.828v22.103c0,0.398-0.326,0.725-0.724,0.725l-8.73,0.01c5.888,4.248,9.455,11.13,9.455,18.526
				v21.823c0,0.399-0.326,0.727-0.724,0.727H199.635z M198.902,182.606v-18.52c0-10.205-8.306-18.503-18.511-18.503h-18.494v37.022
				H198.902z"/>
			<path fill="#404041" d="M199.635,227.273V205.45c0-10.62-8.641-19.244-19.244-19.244h-19.227v41.067h-2.883v-85.297h22.11
				c12.191,0,22.119,9.919,22.119,22.11v22.103l-11.23,0.017c6.824,3.834,11.23,11.076,11.23,19.244v21.823H199.635z
				 M199.635,183.331v-19.244c0-10.612-8.641-19.235-19.244-19.235h-19.227v38.479H199.635z"/>
			<path fill="#404041" d="M200.776,226.852c-0.391,0-0.717-0.335-0.717-0.726V205.45c0-10.849-8.828-19.669-19.667-19.669h-19.65
				v40.345c0,0.391-0.327,0.726-0.733,0.726h-0.578c-0.399,0-0.733-0.335-0.733-0.726v-82.715c0-0.277,0.154-0.521,0.383-0.654
				c0.13-0.211,0.366-0.355,0.635-0.355h20.677c11.964,0,21.696,9.729,21.696,21.686v20.676c0,0.278-0.155,0.522-0.383,0.646
				c-0.131,0.227-0.359,0.373-0.636,0.373h-11.564c3.014,1.4,5.709,3.504,7.802,6.108c3.086,3.828,4.781,8.642,4.781,13.561v20.676
				c0,0.391-0.327,0.726-0.725,0.726H200.776z M200.059,183.747v-19.66c0-10.831-8.828-19.651-19.667-19.651h-19.65v39.312H200.059z
				"/>
			<path fill="#404041" d="M180.392,143.134h-20.677v0.277h-0.285v82.715h0.578v-41.068h20.384c11.247,0,20.384,9.146,20.384,20.393
				v20.676h0.586V205.45c0-9.922-6.922-18.21-16.174-20.393h15.881v-0.295h0.293v-20.676
				C201.362,152.531,191.948,143.134,180.392,143.134z M200.776,184.479h-40.768v-40.777h20.384
				c11.247,0,20.384,9.146,20.384,20.385V184.479z"/>
		</g>
		<g>
			<path fill="#6D6E70" d="M460.318,227.615c-12.346,0-22.592-9.567-23.462-21.841c-0.041-0.09-0.058-0.188-0.058-0.285
				l-0.017-1.196v-42.576c0-12.974,10.555-23.52,23.536-23.52c12.965,0,23.502,10.546,23.502,23.52v43.513
				c0,0.098-0.008,0.188-0.048,0.26C483.063,217.909,472.794,227.615,460.318,227.615z M460.318,142.653
				c-10.521,0-19.073,8.55-19.073,19.063v42.381c0,10.514,8.552,19.063,19.073,19.063c10.497,0,19.057-8.55,19.057-19.063v-42.381
				C479.375,151.203,470.815,142.653,460.318,142.653z"/>
			<path fill="#6D6E70" d="M460.318,226.866c-12.053,0-22.006-9.494-22.738-21.385h-0.032l-0.008-1.188v-42.576
				c0-12.558,10.203-22.771,22.778-22.771c12.542,0,22.754,10.214,22.754,22.771v43.513h-0.033
				C482.444,217.257,472.476,226.866,460.318,226.866z M460.318,141.911c-10.945,0-19.822,8.894-19.822,19.806v42.381
				c0,10.92,8.877,19.821,19.822,19.821c10.912,0,19.805-8.901,19.805-19.821v-42.381
				C480.123,150.805,471.23,141.911,460.318,141.911z"/>
			<path fill="#6D6E70" d="M460.318,226.436c-12.166,0-22.152-9.861-22.33-21.987c-0.008-0.066-0.017-0.098-0.017-0.155v-42.576
				c0-12.313,10.016-22.338,22.347-22.338c12.297,0,22.313,10.024,22.313,22.338v42.381
				C482.632,216.41,472.615,226.436,460.318,226.436z M460.318,141.479c-11.174,0-20.254,9.081-20.254,20.237v42.381
				c0,11.156,9.08,20.237,20.254,20.237c11.141,0,20.229-9.081,20.229-20.237v-42.381
				C480.547,150.561,471.459,141.479,460.318,141.479z"/>
			<path fill="#6D6E70" d="M460.318,140.137c-11.907,0-21.598,9.675-21.598,21.58l0,0v42.576h0.016
				c0.114,11.816,9.74,21.386,21.582,21.386c11.889,0,21.564-9.676,21.564-21.581h-0.586c0,11.572-9.422,20.995-20.979,20.995
				c-11.589,0-21.012-9.423-21.012-20.995v-42.381c0-11.572,9.423-20.986,21.012-20.986c11.557,0,20.979,9.414,20.979,20.986v42.339
				h0.586v-42.339C481.883,149.812,472.207,140.137,460.318,140.137z"/>
			<path fill="#6D6E70" d="M510.583,227.592c-12.34,0-22.593-9.577-23.455-21.858c-0.033-0.088-0.057-0.172-0.057-0.275
				l-0.009-1.182v-42.583c0-12.966,10.555-23.512,23.521-23.512c12.963,0,23.518,10.546,23.518,23.512v43.519
				c0,0.082-0.025,0.172-0.05,0.262C533.318,217.892,523.057,227.592,510.583,227.592z M510.583,142.636
				c-10.506,0-19.059,8.551-19.059,19.058v42.388c0,10.505,8.553,19.048,19.059,19.048c10.512,0,19.056-8.543,19.056-19.048v-42.388
				C529.639,151.187,521.095,142.636,510.583,142.636z"/>
			<path fill="#6D6E70" d="M510.583,226.852c-12.054,0-21.997-9.505-22.723-21.394h-0.032l-0.017-1.182v-42.583
				c0-12.56,10.213-22.762,22.771-22.762c12.557,0,22.77,10.212,22.77,22.762v43.519h-0.034
				C532.725,217.249,522.749,226.852,510.583,226.852z M510.583,141.888c-10.931,0-19.808,8.892-19.808,19.806v42.388
				c0,10.911,8.877,19.806,19.808,19.806c10.919,0,19.796-8.895,19.796-19.806v-42.388
				C530.379,150.779,521.502,141.888,510.583,141.888z"/>
			<path fill="#6D6E70" d="M510.583,226.412c-12.168,0-22.153-9.863-22.332-22.013c0-0.049,0-0.084,0-0.123v-42.583
				c0-12.306,10.017-22.332,22.332-22.332c12.313,0,22.321,10.026,22.321,22.332v42.388
				C532.904,216.396,522.896,226.412,510.583,226.412z M510.583,141.463c-11.159,0-20.247,9.072-20.247,20.23v42.388
				c0,11.157,9.088,20.245,20.247,20.245c11.155,0,20.243-9.088,20.243-20.245v-42.388
				C530.826,150.535,521.738,141.463,510.583,141.463z"/>
			<path fill="#6D6E70" d="M510.583,140.119c-11.907,0-21.581,9.685-21.581,21.574l0,0v42.583h0.007
				c0.105,11.817,9.73,21.385,21.574,21.385c11.904,0,21.572-9.682,21.572-21.58h-0.579c0,11.571-9.423,20.994-20.993,20.994
				c-11.582,0-20.996-9.423-20.996-20.994v-42.388c0-11.572,9.414-20.979,20.996-20.979c11.57,0,20.993,9.407,20.993,20.979v42.347
				h0.579v-42.347C532.155,149.804,522.487,140.119,510.583,140.119z"/>
			<path fill="#6D6E70" d="M537.943,227.592c-0.39,0-0.716-0.318-0.716-0.726v-85.573c0-0.393,0.326-0.717,0.716-0.717h22.12
				c12.591,0,22.827,10.237,22.827,22.819v41.361c0,12.583-10.236,22.835-22.827,22.835H537.943z M560.063,223.259
				c10.195,0,18.503-8.298,18.503-18.502v-41.361c0-10.204-8.308-18.503-18.503-18.503h-18.511v78.366H560.063z"/>
			<path fill="#6D6E70" d="M537.943,226.866v-85.573h22.12c12.183,0,22.102,9.919,22.102,22.103v41.361
				c-0.008,12.19-9.919,22.109-22.102,22.109l0,0H537.943z M560.063,224.001c10.604,0,19.236-8.642,19.236-19.244v-41.361
				c0-10.597-8.633-19.227-19.236-19.227h-19.235v79.832H560.063z"/>
			<path fill="#6D6E70" d="M539.377,226.452c-0.268,0-0.503-0.154-0.626-0.375c-0.228-0.121-0.384-0.367-0.384-0.643v-82.709
				c0-0.275,0.156-0.506,0.375-0.629c0.114-0.227,0.367-0.39,0.635-0.39h20.687c11.955,0,21.687,9.732,21.687,21.688v41.361
				c0,11.963-9.731,21.695-21.687,21.695H539.377z M560.063,224.415c10.83,0,19.651-8.825,19.651-19.658v-41.361
				c0-10.831-8.821-19.643-19.651-19.643h-19.667v80.662H560.063z"/>
			<path fill="#6D6E70" d="M560.063,142.44h-20.687v0.285h-0.276v82.709h0.276v0.275h20.687l0,0
				c11.547,0,20.953-9.389,20.953-20.953l0,0v-41.361C581.017,151.847,571.61,142.44,560.063,142.44z M580.438,204.757
				L580.438,204.757c0,11.239-9.146,20.385-20.375,20.385l0,0h-20.4v-82.115h20.4c11.229,0,20.375,9.13,20.375,20.369V204.757z"/>
			<path fill="#6D6E70" d="M430.789,227.91c-0.278,0-0.521-0.154-0.651-0.407l-19.162-38.234l-19.13,38.234
				c-0.115,0.253-0.374,0.407-0.636,0.407h-2.346c-0.398,0-0.725-0.326-0.725-0.734v-85.248c0-0.399,0.326-0.726,0.725-0.726h2.884
				c0.398,0,0.716,0.326,0.716,0.726v74.678l17.085-34.179c0.132-0.244,0.376-0.399,0.652-0.399h1.548
				c0.276,0,0.521,0.155,0.643,0.399l17.094,34.179v-74.678c0-0.399,0.335-0.726,0.733-0.726h2.875c0.398,0,0.724,0.326,0.724,0.726
				v85.248c0,0.408-0.325,0.734-0.724,0.734H430.789z"/>
			<polygon fill="#6D6E70" points="410.976,187.646 391.21,227.176 388.864,227.176 388.864,141.928 391.748,141.928 391.748,219.7 
				410.201,182.76 411.749,182.76 430.219,219.7 430.219,141.928 433.094,141.928 433.094,227.176 430.789,227.176 			"/>
			<path fill="#6D6E70" d="M431.392,226.647c-0.064,0-0.147-0.008-0.221-0.04c-0.187-0.058-0.335-0.195-0.431-0.367l-19.765-39.537
				L391.21,226.24c-0.09,0.172-0.244,0.31-0.423,0.367c-0.082,0.032-0.146,0.04-0.229,0.04c-0.114,0-0.229-0.031-0.342-0.08
				l-0.098-0.06h-0.114c-0.407,0-0.726-0.325-0.726-0.732v-82.69c0-0.416,0.318-0.732,0.726-0.732h0.578
				c0.398,0,0.733,0.316,0.733,0.732v78.382l18.755-37.501c0.081-0.17,0.228-0.303,0.424-0.365c0.064-0.025,0.146-0.035,0.22-0.035
				c0.089,0,0.171,0.025,0.261,0.049c0.081-0.023,0.17-0.049,0.252-0.049c0.081,0,0.163,0.025,0.228,0.035
				c0.18,0.063,0.343,0.195,0.424,0.365l18.755,37.501v-78.382c0-0.416,0.335-0.732,0.733-0.732h0.577
				c0.407,0,0.733,0.316,0.733,0.732v82.69c0,0.407-0.326,0.732-0.733,0.732h-0.113l-0.098,0.06
				C431.627,226.616,431.506,226.647,431.392,226.647z"/>
			<polygon fill="#6D6E70" points="431.367,224.554 411.228,184.292 410.976,184.421 410.715,184.292 390.583,224.554 
				390.583,143.085 390.005,143.085 390.005,225.775 390.298,225.775 390.559,225.915 410.976,185.066 431.392,225.915 
				431.651,225.775 431.944,225.775 431.944,143.085 431.367,143.085 			"/>
		</g>
		<g>
			<path fill="#404041" d="M595.871,130.721c0,5.384-3.518,9.93-9.829,9.93c-6.287,0-9.821-4.546-9.821-9.93
				c0-5.422,3.534-9.934,9.821-9.934C592.354,120.787,595.871,125.299,595.871,130.721z M586.042,139.428
				c5.392,0,8.47-3.86,8.47-8.707c0-4.877-3.078-8.745-8.47-8.745s-8.437,3.868-8.437,8.745
				C577.605,135.567,580.65,139.428,586.042,139.428z M587.053,125.355h-4.626v10.425h1.27v-3.918h2.264l3.404,3.918h1.417v-0.213
				l-3.266-3.705C591.645,131.34,591.482,125.355,587.053,125.355z M583.696,126.609h3.356c2.938,0,2.882,4.111-0.083,4.111h-3.273
				V126.609z"/>
		</g>
	</g>
</g>
</svg>
