<?xml version="1.0" encoding="utf-8"?>
<!-- Generator: Adobe Illustrator 18.0.0, SVG Export Plug-In . SVG Version: 6.00 Build 0)  -->
<!DOCTYPE svg PUBLIC "-//W3C//DTD SVG 1.1//EN" "http://www.w3.org/Graphics/SVG/1.1/DTD/svg11.dtd">
<svg version="1.1" id="Layer_1" xmlns="http://www.w3.org/2000/svg" xmlns:xlink="http://www.w3.org/1999/xlink" x="0px" y="0px"
	 viewBox="0 0 52.1 24.4" enable-background="new 0 0 52.1 24.4" xml:space="preserve">
<g>
	<rect x="37.6" y="11.9" fill="#1D1D1B" width="0.8" height="6.1"/>
	<path fill="#1D1D1B" d="M32.2,18v-0.3c0-2.8-2.3-5.1-5.1-5.1h-0.3v-0.8h0.3c3.2,0,5.8,2.6,5.8,5.8V18H32.2z"/>
	<path fill="#1D1D1B" d="M32.2,18v-0.3c0-3.2,2.6-5.8,5.8-5.8h0.3v0.8H38c-2.8,0-5.1,2.3-5.1,5.1V18H32.2z"/>
	<rect x="26.7" y="11.9" fill="#1D1D1B" width="0.8" height="11.5"/>
	<rect x="37.6" y="17.4" fill="#1D1D1B" width="0.8" height="6.1"/>
	<path fill="#1D1D1B" d="M24.8,18v-0.3c0-2.8-2.3-5.1-5.1-5.1h-0.3v-0.8h0.3c3.2,0,5.8,2.6,5.8,5.8V18H24.8z"/>
	<path fill="#1D1D1B" d="M19.5,23.5v-0.8h0.3c2.8,0,5.1-2.3,5.1-5.1v-0.3h0.8v0.3c0,3.2-2.6,5.8-5.8,5.8H19.5z"/>
	<path fill="#1D1D1B" d="M13.9,18v-0.3c0-3.2,2.6-5.8,5.8-5.8h0.3v0.8h-0.3c-2.8,0-5.1,2.3-5.1,5.1V18H13.9z"/>
	<path fill="#1D1D1B" d="M19.8,23.5c-3.2,0-5.8-2.6-5.8-5.8v-0.3h0.8v0.3c0,2.8,2.3,5.1,5.1,5.1h0.3v0.8H19.8z"/>
	<rect x="1.1" y="17.3" fill="#1D1D1B" width="11.5" height="0.8"/>
	<rect x="1" y="1" fill="#1D1D1B" width="0.8" height="22.5"/>
	<rect x="11.9" y="1" fill="#1D1D1B" width="0.8" height="22.5"/>
	<path fill="#1D1D1B" d="M39.4,18v-0.3c0-3.2,2.6-5.8,5.8-5.8h0.3v0.8h-0.3c-2.8,0-5.1,2.3-5.1,5.1V18H39.4z"/>
	<path fill="#1D1D1B" d="M45.2,23.5c-3.2,0-5.8-2.6-5.8-5.8v-0.3h0.8v0.3c0,2.8,2.3,5.1,5.1,5.1h0.3v0.8H45.2z"/>
	<path fill="#1D1D1B" d="M50.3,18v-0.3c0-2.8-2.3-5.1-5.1-5.1h-0.3v-0.8h0.3c3.2,0,5.8,2.6,5.8,5.8V18H50.3z"/>
	<rect x="39.5" y="17.3" fill="#1D1D1B" width="11.5" height="0.8"/>
</g>
</svg>
