<?xml version="1.0" encoding="utf-8"?>
<!-- Generator: Adobe Illustrator 15.0.0, SVG Export Plug-In . SVG Version: 6.00 Build 0)  -->
<!DOCTYPE svg PUBLIC "-//W3C//DTD SVG 1.1//EN" "http://www.w3.org/Graphics/SVG/1.1/DTD/svg11.dtd">
<svg version="1.1" id="Layer_1" xmlns="http://www.w3.org/2000/svg" xmlns:xlink="http://www.w3.org/1999/xlink" x="0px" y="0px"
	 width="600px" height="251.633px" viewBox="0 0 600 251.633" enable-background="new 0 0 600 251.633" xml:space="preserve">
<g>
	<g>
		<g>
			<path fill="#ED1C24" d="M251.768,57.35c-6.013-2.901-13.232-0.375-16.131,5.634c-17.817,36.913-53.973,61.933-94.257,66.149
				v-19.79c36.277-4.519,67.765-29.074,80.531-63.958c2.291-6.265-0.926-13.204-7.195-15.497
				c-6.257-2.294-13.202,0.923-15.498,7.193c-9.285,25.375-31.711,43.504-57.838,47.84V65.241
				c24.269-5.512,42.443-27.247,42.443-53.159C183.823,5.408,178.417,0,171.744,0c-6.674,0-12.084,5.408-12.084,12.082
				c0,16.74-13.615,30.364-30.361,30.364c-16.738,0-30.362-13.624-30.362-30.364C98.937,5.408,93.528,0,86.856,0
				c-6.675,0-12.083,5.408-12.083,12.082c0,25.912,18.176,47.647,42.443,53.159v19.681c-26.122-4.336-48.551-22.46-57.837-47.838
				c-2.293-6.269-9.24-9.488-15.493-7.195c-6.269,2.293-9.494,9.234-7.197,15.497c12.764,34.887,44.254,59.441,80.527,63.958v19.79
				c-40.281-4.217-76.438-29.236-94.251-66.149c-2.898-6.004-10.119-8.528-16.135-5.632c-6.006,2.904-8.527,10.125-5.624,16.139
				c21.821,45.211,66.498,75.606,116.01,79.897v85.607c0,6.669,5.409,12.082,12.083,12.082c6.674,0,12.081-5.413,12.081-12.082
				v-85.607c49.52-4.291,94.201-34.688,116.016-79.904C260.294,67.472,257.778,60.253,251.768,57.35z"/>
		</g>
	</g>
	<g>
		<path fill="#414042" d="M219.244,187.173c-0.05,0.083-0.067,0.188-0.067,0.288v62.998c0,0.394,0.32,0.718,0.711,0.718h2.805
			c0.402,0,0.723-0.324,0.723-0.718v-19.258h36.251v19.258c0,0.394,0.316,0.718,0.715,0.718h2.804c0.395,0,0.714-0.324,0.714-0.718
			v-61.871l-0.013-1.127c0-0.091-0.016-0.165-0.048-0.247c-0.819-11.682-10.573-20.797-22.303-20.797
			C229.822,166.417,220.076,175.515,219.244,187.173z M223.416,226.966v-38.192c0-9.99,8.131-18.116,18.121-18.116
			c9.998,0,18.13,8.126,18.13,18.116v38.192H223.416z"/>
		<path fill="#414042" d="M345.462,187.164c-0.055,0.093-0.078,0.197-0.078,0.298v62.998c0,0.394,0.325,0.718,0.721,0.718h2.804
			c0.396,0,0.724-0.324,0.724-0.718v-19.258h36.241v19.258c0,0.394,0.325,0.718,0.715,0.718h2.813c0.401,0,0.717-0.324,0.717-0.718
			v-61.871l-0.02-1.127c0-0.091-0.013-0.185-0.053-0.271c-0.823-11.664-10.571-20.773-22.295-20.773
			C356.046,166.417,346.292,175.506,345.462,187.164z M349.632,226.966v-38.192c0-9.99,8.128-18.116,18.119-18.116
			c10.002,0,18.122,8.126,18.122,18.116v38.192H349.632z"/>
		<path fill="#414042" d="M309.66,167.125v2.817c0,0.394,0.319,0.716,0.712,0.716h17.458v79.989c0,0.392,0.319,0.71,0.71,0.71h2.827
			c0.396,0,0.707-0.318,0.707-0.71v-79.989h15.87c0.391,0,0.714-0.322,0.714-0.716v-2.817c0-0.392-0.323-0.707-0.714-0.707h-37.572
			C309.979,166.417,309.66,166.733,309.66,167.125z"/>
		<path fill="#414042" d="M266.985,188.774c0,12.334,10.034,22.367,22.357,22.367c9.99,0,18.122,8.13,18.122,18.133
			c0,9.991-8.132,18.123-18.122,18.123c-9.991,0-18.12-8.132-18.12-18.123v-1.124c0-0.391-0.32-0.723-0.714-0.723h-2.816
			c-0.393,0-0.708,0.332-0.708,0.723v1.124c0,12.337,10.034,22.359,22.357,22.359c12.33,0,22.37-10.022,22.37-22.359
			c0-12.333-10.04-22.365-22.37-22.365c-9.991,0-18.12-8.145-18.12-18.135s8.128-18.116,18.12-18.116
			c9.99,0,18.122,8.126,18.122,18.116v1.135c0,0.397,0.327,0.711,0.722,0.711h2.816c0.391,0,0.71-0.313,0.71-0.711v-1.135
			c0-12.329-10.04-22.356-22.37-22.356C277.019,166.417,266.985,176.445,266.985,188.774z"/>
		<path fill="#414042" d="M170.815,167.125v83.522c0,0.392,0.32,0.71,0.714,0.71h2.814c0.396,0,0.716-0.318,0.716-0.71v-39.506
			h18.115c9.996,0,18.13,8.13,18.13,18.133v21.373c0,0.392,0.316,0.71,0.712,0.71h2.814c0.392,0,0.709-0.318,0.709-0.71v-21.373
			c0-7.237-3.49-13.977-9.255-18.137l8.546-0.01c0.392,0,0.709-0.32,0.709-0.712v-21.642c0-12.329-10.032-22.356-22.365-22.356
			h-21.646C171.136,166.417,170.815,166.733,170.815,167.125z M211.305,188.774v18.135H175.06v-36.251h18.115
			C203.17,170.658,211.305,178.784,211.305,188.774z"/>
	</g>
	<g>
		<path fill="#6D6E71" d="M490.249,229.32c0.034-0.077,0.041-0.164,0.041-0.256v-42.611c0-12.702-10.325-23.026-23.017-23.026
			c-12.705,0-23.037,10.324-23.037,23.026v41.688l0.008,1.18c0,0.091,0.013,0.184,0.058,0.274
			c0.854,12.017,10.889,21.388,22.972,21.388C479.491,250.982,489.549,241.476,490.249,229.32z M448.602,227.949v-41.496
			c0-10.289,8.368-18.666,18.672-18.666c10.279,0,18.659,8.377,18.659,18.666v41.496c0,10.296-8.38,18.668-18.659,18.668
			C456.97,246.617,448.602,238.245,448.602,227.949z"/>
		<path fill="#6D6E71" d="M493.468,186.432v41.698l0.007,1.152c0,0.103,0.02,0.188,0.059,0.275
			c0.839,12.021,10.882,21.402,22.957,21.402c12.222,0,22.274-9.498,22.985-21.66c0.024-0.083,0.042-0.177,0.042-0.256v-42.612
			c0-12.699-10.323-23.023-23.027-23.023C503.798,163.409,493.468,173.733,493.468,186.432z M497.836,227.934v-41.502
			c0-10.29,8.365-18.66,18.654-18.66c10.297,0,18.664,8.37,18.664,18.66v41.502c0,10.286-8.367,18.656-18.664,18.656
			C506.201,246.59,497.836,238.22,497.836,227.934z"/>
		<path fill="#6D6E71" d="M542.58,166.458v83.795c0,0.395,0.318,0.708,0.715,0.708h21.646c12.329,0,22.359-10.039,22.359-22.364
			v-40.495c0-12.327-10.026-22.349-22.359-22.349h-21.646C542.898,165.752,542.58,166.068,542.58,166.458z M583.063,188.101v40.495
			c0,9.996-8.128,18.123-18.123,18.123h-18.119v-76.74h18.119C574.936,169.979,583.063,178.104,583.063,188.101z"/>
		<path fill="#6D6E71" d="M441.324,167.079c0-0.395-0.316-0.709-0.706-0.709h-2.815c-0.39,0-0.715,0.314-0.715,0.709v73.126
			l-16.74-33.471c-0.117-0.24-0.356-0.394-0.63-0.394h-1.513c-0.276,0-0.517,0.153-0.641,0.394l-16.729,33.471v-73.126
			c0-0.395-0.315-0.709-0.708-0.709h-2.813c-0.398,0-0.713,0.314-0.713,0.709v83.473c0,0.403,0.314,0.721,0.713,0.721h2.285
			c0.266,0,0.521-0.154,0.635-0.397l18.727-37.446l18.764,37.446c0.127,0.243,0.37,0.397,0.645,0.397h2.249
			c0.39,0,0.706-0.317,0.706-0.721V167.079z"/>
	</g>
	<g>
		<path fill="#414042" d="M580.761,156.099c0,5.276,3.465,9.73,9.626,9.73c6.179,0,9.621-4.454,9.621-9.73
			c0-5.307-3.442-9.728-9.621-9.728C584.226,146.372,580.761,150.792,580.761,156.099z M598.67,156.099
			c0,4.745-3.007,8.53-8.283,8.53c-5.279,0-8.264-3.785-8.264-8.53c0-4.771,2.984-8.559,8.264-8.559
			C595.663,147.541,598.67,151.328,598.67,156.099z"/>
		<path fill="#414042" d="M588.095,161.059v-3.839h2.208l3.336,3.839h1.383v-0.215l-3.194-3.624
			c4.046-0.507,3.888-6.371-0.458-6.371h-4.528v10.21H588.095z M588.095,156.099v-4.025h3.274c2.883,0,2.826,4.025-0.076,4.025
			H588.095z"/>
	</g>
</g>
</svg>
