<?xml version="1.0" encoding="utf-8"?>
<!-- Generator: Adobe Illustrator 18.0.0, SVG Export Plug-In . SVG Version: 6.00 Build 0)  -->
<!DOCTYPE svg PUBLIC "-//W3C//DTD SVG 1.1//EN" "http://www.w3.org/Graphics/SVG/1.1/DTD/svg11.dtd">
<svg version="1.1" id="Layer_1" xmlns="http://www.w3.org/2000/svg" xmlns:xlink="http://www.w3.org/1999/xlink" x="0px" y="0px"
	 viewBox="0 0 33.3 9.6" enable-background="new 0 0 33.3 9.6" xml:space="preserve">
<g>
	<rect x="8.7" y="6.7" fill="#1D1D1B" width="0.3" height="2.3"/>
	<path fill="#1D1D1B" d="M6.6,9.1V8.8h0.1c1.1,0,1.9-0.9,1.9-1.9V6.7h0.3v0.1c0,1.2-1,2.2-2.2,2.2H6.6z"/>
	<path fill="#1D1D1B" d="M8.7,7V6.9c0-1.1-0.9-1.9-1.9-1.9H6.6V4.6h0.1c1.2,0,2.2,1,2.2,2.2V7H8.7z"/>
	<path fill="#1D1D1B" d="M6.7,9.1c-1.2,0-2.2-1-2.2-2.2V6.7h0.3v0.1c0,1.1,0.9,1.9,1.9,1.9h0.1v0.3H6.7z"/>
	<path fill="#1D1D1B" d="M4.5,7V6.9c0-1.2,1-2.2,2.2-2.2h0.1v0.3H6.7c-1.1,0-1.9,0.9-1.9,1.9V7H4.5z"/>
	<path fill="#1D1D1B" d="M9.7,7V6.9c0-1.2,1-2.2,2.2-2.2H12v0.3h-0.1c-1.1,0-1.9,0.9-1.9,1.9V7H9.7z"/>
	<rect x="9.7" y="4.7" fill="#1D1D1B" width="0.3" height="4.4"/>
	<path fill="#1D1D1B" d="M26.4,7V6.9c0-1.2,1-2.2,2.2-2.2h0.1v0.3h-0.1c-1.1,0-1.9,0.9-1.9,1.9V7H26.4z"/>
	<rect x="26.4" y="4.7" fill="#1D1D1B" width="0.3" height="4.4"/>
	<path fill="#1D1D1B" d="M16.5,7V6.9c0-1.2,1-2.2,2.2-2.2h0.1v0.3h-0.1c-1.1,0-1.9,0.9-1.9,1.9V7H16.5z"/>
	<path fill="#1D1D1B" d="M20.6,7V6.9c0-1.1-0.9-1.9-1.9-1.9h-0.1V4.7h0.1c1.2,0,2.2,1,2.2,2.2V7H20.6z"/>
	<rect x="16.5" y="4.7" fill="#1D1D1B" width="0.3" height="4.4"/>
	<rect x="20.6" y="6.8" fill="#1D1D1B" width="0.3" height="2.3"/>
	<path fill="#1D1D1B" d="M4.5,2.8V2.7c0-1.1-0.9-1.9-1.9-1.9H2.5V0.5h0.1c1.2,0,2.2,1,2.2,2.2v0.1H4.5z"/>
	<rect x="4.5" y="2.6" fill="#1D1D1B" width="0.3" height="2.3"/>
	<rect x="0.4" y="4.6" fill="#1D1D1B" width="4.4" height="0.3"/>
	<rect x="0.4" y="0.5" fill="#1D1D1B" width="2.3" height="0.3"/>
	<rect x="0.4" y="0.5" fill="#1D1D1B" width="0.3" height="8.5"/>
	<path fill="#1D1D1B" d="M32.6,5.9V5.8c0-0.5-0.9-0.9-1.9-0.9c-1,0-1.9,0.4-1.9,0.9v0.1h-0.3V5.8c0-0.7,1-1.2,2.2-1.2
		c1.2,0,2.2,0.5,2.2,1.2v0.1H32.6z"/>
	<path fill="none" stroke="#1D1D1B" stroke-width="0.25" stroke-miterlimit="10" d="M30.6,5.8"/>
	<path fill="#1D1D1B" d="M30.6,9.1c-1.2,0-2.2-0.5-2.2-1.2V7.8h0.3v0.1c0,0.5,0.9,0.9,1.9,0.9c1,0,1.9-0.4,1.9-0.9V7.8h0.3v0.1
		C32.9,8.6,31.9,9.1,30.6,9.1z"/>
	<path fill="none" stroke="#1D1D1B" stroke-width="0.25" stroke-miterlimit="10" d="M30.6,7.9"/>
	<path fill="#1D1D1B" d="M32.6,8V7.9c0-0.5-0.9-0.9-1.9-0.9h-0.1V6.7h0.1c1.2,0,2.2,0.5,2.2,1.2V8H32.6z"/>
	<path fill="#1D1D1B" d="M30.6,7c-1.2,0-2.2-0.5-2.2-1.2V5.7h0.3v0.1c0,0.5,0.9,0.9,1.9,0.9h0.1V7H30.6z"/>
	<path fill="#1D1D1B" d="M16,9.1c-1.2,0-2.2-1-2.2-2.2V6.8h0.3v0.1c0,1.1,0.9,1.9,1.9,1.9h0.1v0.3H16z"/>
	<rect x="13.8" y="2.6" fill="#1D1D1B" width="0.3" height="4.4"/>
	<rect x="11.8" y="4.7" fill="#1D1D1B" width="4.4" height="0.3"/>
	<path fill="#1D1D1B" d="M21.4,7V6.8c0-1.2,1-2.2,2.2-2.2h0.1v0.3h-0.1c-1.1,0-1.9,0.9-1.9,1.9V7H21.4z"/>
	<path fill="#1D1D1B" d="M23.7,9.1c-1.2,0-2.2-1-2.2-2.2V6.7h0.3v0.1c0,1.1,0.9,1.9,1.9,1.9h0.1v0.3H23.7z"/>
	<path fill="#1D1D1B" d="M25.6,7V6.8c0-1.1-0.9-1.9-1.9-1.9h-0.1V4.6h0.1c1.2,0,2.2,1,2.2,2.2V7H25.6z"/>
	<rect x="21.5" y="6.7" fill="#1D1D1B" width="4.4" height="0.3"/>
</g>
</svg>
