<?xml version="1.0" encoding="utf-8"?>
<!-- Generator: Adobe Illustrator 18.0.0, SVG Export Plug-In . SVG Version: 6.00 Build 0)  -->
<!DOCTYPE svg PUBLIC "-//W3C//DTD SVG 1.1//EN" "http://www.w3.org/Graphics/SVG/1.1/DTD/svg11.dtd">
<svg version="1.1" id="Layer_1" xmlns="http://www.w3.org/2000/svg" xmlns:xlink="http://www.w3.org/1999/xlink" x="0px" y="0px"
	 viewBox="0 0 31.4 7.1" enable-background="new 0 0 31.4 7.1" xml:space="preserve">
<g>
	<path fill="#1D1D1B" d="M22.3,5.6V5.4h0.1c0.7,0,1.2-0.5,1.2-1.2V4.1h0.2v0.1C23.7,5,23.1,5.6,22.3,5.6L22.3,5.6z"/>
	<path fill="#1D1D1B" d="M23.6,4.3L23.6,4.3C23.6,3.5,23,3,22.3,3h-0.1V2.8h0.1c0.8,0,1.4,0.6,1.4,1.4v0.1H23.6z"/>
	<path fill="#1D1D1B" d="M22.3,5.6c-0.8,0-1.4-0.6-1.4-1.4V4.1h0.2v0.1c0,0.7,0.5,1.2,1.2,1.2h0.1L22.3,5.6L22.3,5.6z"/>
	<path fill="#1D1D1B" d="M20.9,4.3L20.9,4.3c0-0.8,0.6-1.5,1.4-1.5h0.1V3h-0.1c-0.7,0-1.2,0.5-1.2,1.2v0.1H20.9z"/>
	<rect x="24.1" y="1.5" fill="#1D1D1B" width="0.2" height="4.1"/>
	<rect x="10.1" y="2.8" fill="#1D1D1B" width="0.2" height="1.5"/>
	<path fill="#1D1D1B" d="M8.7,4.3L8.7,4.3C8.7,3.5,8.2,3,7.5,3H7.4V2.8h0.1c0.8,0,1.4,0.6,1.4,1.4v0.1H8.7z"/>
	<path fill="#1D1D1B" d="M8.7,4.3L8.7,4.3c0-0.8,0.6-1.5,1.4-1.5h0.1V3h-0.1C9.5,3,8.9,3.5,8.9,4.2v0.1H8.7z"/>
	<rect x="7.4" y="2.8" fill="#1D1D1B" width="0.2" height="2.8"/>
	<rect x="10.1" y="4.1" fill="#1D1D1B" width="0.2" height="1.5"/>
	<path fill="#1D1D1B" d="M5.6,4.3L5.6,4.3c0-0.9,0.6-1.5,1.4-1.5h0.1V3H7C6.4,3,5.8,3.5,5.8,4.2v0.1H5.6z"/>
	<rect x="5.6" y="2.8" fill="#1D1D1B" width="0.2" height="2.8"/>
	<path fill="#1D1D1B" d="M29.8,5.6V5.4h0.1c0.7,0,1.2-0.5,1.2-1.2V4.1h0.2v0.1C31.2,5,30.6,5.6,29.8,5.6L29.8,5.6z"/>
	<path fill="#1D1D1B" d="M29.8,6.9V6.7h0.1c0.7,0,1.2-0.5,1.2-1.2V5.4h0.2v0.1C31.2,6.3,30.6,6.9,29.8,6.9L29.8,6.9z"/>
	<path fill="#1D1D1B" d="M29.8,5.6c-0.8,0-1.4-0.6-1.4-1.4V4.1h0.2v0.1c0,0.7,0.5,1.2,1.2,1.2h0.1L29.8,5.6L29.8,5.6z"/>
	<rect x="31.1" y="2.8" fill="#1D1D1B" width="0.2" height="2.8"/>
	<rect x="28.4" y="2.8" fill="#1D1D1B" width="0.2" height="1.5"/>
	<path fill="#1D1D1B" d="M25.4,4.2L25.4,4.2c0-0.9,0.6-1.5,1.4-1.5h0.1v0.2h-0.1c-0.7,0-1.2,0.5-1.2,1.2v0.1H25.4z"/>
	<path fill="#1D1D1B" d="M26.8,5.6c-0.8,0-1.4-0.6-1.4-1.4V4.1h0.2v0.1c0,0.7,0.6,1.2,1.2,1.2h0.1L26.8,5.6L26.8,5.6z"/>
	<path fill="#1D1D1B" d="M26.8,5.6V5.4h0.1c0.7,0,1.2-0.5,1.2-1.2V4.1h0.2v0.1C28.3,4.9,27.6,5.6,26.8,5.6L26.8,5.6z"/>
	<path fill="#1D1D1B" d="M21,1.6L21,1.6c0-0.7-0.6-1.3-1.2-1.3h-0.1V0.2h0.1c0.8,0,1.4,0.6,1.4,1.4v0.1H21z"/>
	<rect x="21" y="1.5" fill="#1D1D1B" width="0.2" height="1.5"/>
	<rect x="18.4" y="2.8" fill="#1D1D1B" width="2.8" height="0.2"/>
	<rect x="18.4" y="0.2" fill="#1D1D1B" width="1.5" height="0.2"/>
	<rect x="18.4" y="0.2" fill="#1D1D1B" width="0.2" height="5.4"/>
	<rect x="0.2" y="0.2" fill="#1D1D1B" width="2.8" height="0.2"/>
	<rect x="1.8" y="0.2" fill="#1D1D1B" width="0.2" height="5.4"/>
	<path fill="#1D1D1B" d="M13.3,3.6L13.3,3.6c0-0.4-0.6-0.6-1.2-0.6c-0.7,0-1.2,0.3-1.2,0.6v0.1h-0.2V3.5c0-0.4,0.6-0.8,1.4-0.8
		c0.8,0,1.4,0.3,1.4,0.8v0.1H13.3z"/>
	<path fill="none" stroke="#1D1D1B" stroke-width="0.25" stroke-miterlimit="10" d="M12.1,3.5"/>
	<path fill="#1D1D1B" d="M12.1,5.6c-0.8,0-1.4-0.3-1.4-0.8V4.8h0.2v0.1c0,0.3,0.6,0.6,1.2,0.6c0.7,0,1.2-0.3,1.2-0.6V4.8h0.2v0.1
		C13.5,5.3,12.8,5.6,12.1,5.6z"/>
	<path fill="none" stroke="#1D1D1B" stroke-width="0.25" stroke-miterlimit="10" d="M12.1,4.9"/>
	<path fill="#1D1D1B" d="M13.3,4.9L13.3,4.9c0-0.4-0.6-0.6-1.2-0.6H12V4.1h0.1c0.8,0,1.4,0.3,1.4,0.8v0.1H13.3z"/>
	<path fill="#1D1D1B" d="M12.1,4.3c-0.8,0-1.4-0.3-1.4-0.8V3.4h0.2v0.1c0,0.3,0.6,0.6,1.2,0.6h0.1L12.1,4.3L12.1,4.3z"/>
	<path fill="#1D1D1B" d="M2.6,4.2L2.6,4.2c0-0.9,0.6-1.5,1.4-1.5h0.1v0.2H4c-0.7,0-1.2,0.6-1.2,1.2v0.1H2.6z"/>
	<path fill="#1D1D1B" d="M4,5.6C3.2,5.6,2.6,5,2.6,4.2V4.1h0.2v0.1c0,0.7,0.5,1.2,1.2,1.2h0.1L4,5.6L4,5.6z"/>
	<path fill="#1D1D1B" d="M5.2,4.2L5.2,4.2c0-0.7-0.5-1.3-1.2-1.3H3.9V2.8H4c0.8,0,1.4,0.6,1.4,1.4v0.1H5.2z"/>
	<rect x="2.6" y="4.1" fill="#1D1D1B" width="2.8" height="0.2"/>
	<rect x="24.9" y="2.8" fill="#1D1D1B" width="0.2" height="2.8"/>
	<rect x="24.9" y="1.5" fill="#1D1D1B" width="0.2" height="0.8"/>
	<path fill="#1D1D1B" d="M15.8,5.6c-0.5,0-1-0.4-1-1V4.5H15v0.1c0,0.4,0.4,0.8,0.8,0.8h0.1L15.8,5.6L15.8,5.6z"/>
	<path fill="#1D1D1B" d="M14.8,3.8L14.8,3.8c0-0.6,0.4-1,1-1h0.1v0.2h-0.1c-0.4,0-0.8,0.4-0.8,0.8v0.1H14.8z"/>
	<path fill="#1D1D1B" d="M15.7,5.6V5.4h0.1c0.4,0,0.8-0.4,0.8-0.8V4.5h0.2v0.1C16.7,5.1,16.3,5.6,15.7,5.6L15.7,5.6z"/>
	<path fill="#1D1D1B" d="M16.6,3.8L16.6,3.8c0-0.5-0.4-0.9-0.8-0.9h-0.1V2.7h0.1c0.5,0,1,0.4,1,1v0.1H16.6z"/>
	
		<rect x="15.9" y="3" transform="matrix(-0.4472 0.8945 -0.8945 -0.4472 26.9242 -8.1176)" fill="#1D1D1B" width="0.2" height="2.6"/>
	
		<rect x="14.7" y="4.1" transform="matrix(-0.8945 0.4471 -0.4471 -0.8945 31.7465 0.8357)" fill="#1D1D1B" width="2.1" height="0.2"/>
	<rect x="16.6" y="4.1" fill="#1D1D1B" width="0.2" height="0.5"/>
</g>
</svg>
