<?xml version="1.0" encoding="utf-8"?>
<!-- Generator: Adobe Illustrator 18.0.0, SVG Export Plug-In . SVG Version: 6.00 Build 0)  -->
<!DOCTYPE svg PUBLIC "-//W3C//DTD SVG 1.1//EN" "http://www.w3.org/Graphics/SVG/1.1/DTD/svg11.dtd">
<svg version="1.1" id="Layer_1" xmlns="http://www.w3.org/2000/svg" xmlns:xlink="http://www.w3.org/1999/xlink" x="0px" y="0px"
	 viewBox="0 0 55.7 11.8" enable-background="new 0 0 55.7 11.8" xml:space="preserve">
<g>
	<g>
		<g>
			<g>
				<path fill="#1D1D1B" d="M36.3,11.1c-1.5,0-2.8-1.2-2.8-2.8V8.2h0.4v0.1c0,1.3,1.1,2.4,2.4,2.4h0.1v0.4H36.3z"/>
			</g>
			<g>
				<path fill="#1D1D1B" d="M36.3,10.9c-1.5,0-2.6-1.2-2.6-2.6h0.1C33.7,9.7,34.8,10.9,36.3,10.9L36.3,10.9z"/>
			</g>
		</g>
		<g>
			<g>
				<path fill="#1D1D1B" d="M36.1,11.1v-0.4h0.1c1.3,0,2.4-1.1,2.4-2.4V8.2h0.4v0.1c0,1.5-1.3,2.8-2.8,2.8H36.1z"/>
			</g>
			<g>
				<path fill="#1D1D1B" d="M36.3,10.9L36.3,10.9c1.4-0.1,2.6-1.2,2.6-2.6h0.1C38.9,9.8,37.7,10.9,36.3,10.9z"/>
			</g>
		</g>
		<g>
			<g>
				<path fill="#1D1D1B" d="M38.7,3.3V3.1c0-1.3-1.1-2.4-2.4-2.4h-0.1V0.4h0.1c1.5,0,2.8,1.3,2.8,2.8v0.1H38.7z"/>
			</g>
			<g>
				<path fill="#1D1D1B" d="M38.9,3.1L38.9,3.1c-0.1-1.4-1.2-2.6-2.6-2.6V0.5C37.7,0.5,38.9,1.7,38.9,3.1z"/>
			</g>
		</g>
		<g>
			<g>
				<path fill="#1D1D1B" d="M33.5,3.3V3.1c0-1.5,1.3-2.8,2.8-2.8h0.1v0.4h-0.1c-1.3,0-2.4,1.1-2.4,2.4v0.1H33.5z"/>
			</g>
			<g>
				<path fill="#1D1D1B" d="M33.7,3.1L33.7,3.1c-0.1-1.5,1.1-2.6,2.6-2.6v0.1C34.8,0.6,33.7,1.7,33.7,3.1z"/>
			</g>
		</g>
		<g>
			<g>
				<rect x="33.5" y="3" fill="#1D1D1B" width="0.4" height="5.5"/>
			</g>
			<g>
				<rect x="33.6" y="3.1" fill="#1D1D1B" width="0.1" height="5.2"/>
			</g>
		</g>
		<g>
			<g>
				<path fill="#1D1D1B" d="M5.5,11.1V8.5H0.7v2.6H0.3v-8c0-1.5,1.3-2.8,2.8-2.8c1.5,0,2.8,1.2,2.8,2.8v8H5.5z M5.5,8.1v-5
					c0-1.3-1.1-2.4-2.4-2.4c-1.3,0-2.4,1.1-2.4,2.4v5H5.5z"/>
			</g>
			<g>
				<path fill="#1D1D1B" d="M5.8,3.1c0-1.4-1.2-2.6-2.6-2.6c-1.4,0-2.6,1.2-2.6,2.6v7.8h0.1V8.3h5.1v2.6h0.1V3.1L5.8,3.1z M0.6,8.3
					V3.1c0-1.4,1.2-2.6,2.6-2.6c1.4,0,2.6,1.2,2.6,2.6v5.1H0.6z"/>
			</g>
		</g>
		<g>
			<g>
				<rect x="45.1" y="8.2" fill="#1D1D1B" width="0.4" height="2.9"/>
			</g>
			<g>
				<rect x="45.2" y="8.3" fill="#1D1D1B" width="0.1" height="2.6"/>
			</g>
		</g>
		<g>
			<g>
				<path fill="#1D1D1B" d="M42.5,11.1v-0.4h0.1c1.3,0,2.4-1.1,2.4-2.4V8.2h0.4v0.1c0,1.5-1.3,2.8-2.8,2.8H42.5z"/>
			</g>
			<g>
				<path fill="#1D1D1B" d="M42.6,11L42.6,11c1.4-0.1,2.6-1.2,2.6-2.6h0.1C45.3,9.8,44.1,11,42.6,11z"/>
			</g>
		</g>
		<g>
			<g>
				<path fill="#1D1D1B" d="M45.1,8.5V8.3c0-1.3-1.1-2.4-2.4-2.4h-0.1V5.5h0.1c1.5,0,2.8,1.3,2.8,2.8v0.1H45.1z"/>
			</g>
			<g>
				<path fill="#1D1D1B" d="M45.3,8.3L45.3,8.3c-0.1-1.4-1.2-2.6-2.6-2.6V5.7C44.1,5.7,45.3,6.9,45.3,8.3z"/>
			</g>
		</g>
		<g>
			<g>
				<path fill="#1D1D1B" d="M42.6,11.1c-1.5,0-2.8-1.3-2.8-2.8V8.2h0.4v0.1c0,1.3,1.1,2.4,2.4,2.4h0.1v0.4H42.6z"/>
			</g>
			<g>
				<path fill="#1D1D1B" d="M42.6,11C41.2,11,40,9.8,40,8.3h0.1C40.1,9.8,41.2,10.9,42.6,11L42.6,11z"/>
			</g>
		</g>
		<g>
			<g>
				<path fill="#1D1D1B" d="M39.8,8.5V8.3c0-1.5,1.2-2.8,2.8-2.8h0.1v0.4h-0.1c-1.3,0-2.4,1.1-2.4,2.4v0.1H39.8z"/>
			</g>
			<g>
				<path fill="#1D1D1B" d="M40.1,8.3L40.1,8.3c-0.1-1.5,1.1-2.6,2.6-2.6v0.1C41.2,5.8,40.1,6.9,40.1,8.3z"/>
			</g>
		</g>
		<g>
			<g>
				<path fill="#1D1D1B" d="M47.1,8.5V8.3c0-1.5,1.2-2.8,2.8-2.8H50v0.4h-0.1c-1.3,0-2.4,1.1-2.4,2.4v0.1H47.1z"/>
			</g>
			<g>
				<path fill="#1D1D1B" d="M47.3,8.3L47.3,8.3c-0.1-1.5,1.1-2.6,2.6-2.6v0.1C48.5,5.7,47.3,6.9,47.3,8.3z"/>
			</g>
		</g>
		<g>
			<g>
				<rect x="47.1" y="5.6" fill="#1D1D1B" width="0.4" height="5.5"/>
			</g>
			<g>
				<rect x="47.2" y="5.7" fill="#1D1D1B" width="0.1" height="5.2"/>
			</g>
		</g>
		<g>
			<g>
				<rect x="11.9" y="3" fill="#1D1D1B" width="0.4" height="5.5"/>
			</g>
			<g>
				<rect x="12" y="3.1" fill="#1D1D1B" width="0.1" height="5.2"/>
			</g>
		</g>
		<g>
			<g>
				<path fill="#1D1D1B" d="M11.9,8.5V8.3c0-1.3-1.1-2.4-2.4-2.4H9.3V5.5h0.1c1.5,0,2.8,1.2,2.8,2.8v0.1H11.9z"/>
			</g>
			<g>
				<path fill="#1D1D1B" d="M12.1,8.3L12.1,8.3C12,6.9,10.9,5.7,9.5,5.7V5.7C10.9,5.7,12.1,6.8,12.1,8.3z"/>
			</g>
		</g>
		<g>
			<g>
				<path fill="#1D1D1B" d="M9.3,11.1v-0.4h0.1c1.3,0,2.4-1.1,2.4-2.4V8.2h0.4v0.1c0,1.5-1.2,2.8-2.8,2.8H9.3z"/>
			</g>
			<g>
				<path fill="#1D1D1B" d="M9.5,10.9L9.5,10.9c1.4-0.1,2.6-1.2,2.6-2.6h0.1C12.1,9.8,10.9,10.9,9.5,10.9z"/>
			</g>
		</g>
		<g>
			<g>
				<path fill="#1D1D1B" d="M6.7,8.5V8.3c0-1.5,1.2-2.8,2.8-2.8h0.1v0.4H9.5C8.1,5.9,7,7,7,8.3v0.1H6.7z"/>
			</g>
			<g>
				<path fill="#1D1D1B" d="M6.9,8.3L6.9,8.3C6.8,6.8,8,5.7,9.5,5.7v0.1C8,5.7,6.9,6.9,6.9,8.3z"/>
			</g>
		</g>
		<g>
			<g>
				<path fill="#1D1D1B" d="M9.5,11.1c-1.5,0-2.8-1.2-2.8-2.8V8.2H7v0.1c0,1.3,1.1,2.4,2.4,2.4h0.1v0.4H9.5z"/>
			</g>
			<g>
				<path fill="#1D1D1B" d="M9.5,10.9c-1.5,0-2.6-1.2-2.6-2.6h0.1C6.9,9.7,8,10.9,9.5,10.9L9.5,10.9z"/>
			</g>
		</g>
		<g>
			<g>
				<rect x="18" y="3" fill="#1D1D1B" width="0.4" height="5.5"/>
			</g>
			<g>
				<rect x="18.1" y="3.1" fill="#1D1D1B" width="0.1" height="5.2"/>
			</g>
		</g>
		<g>
			<g>
				<path fill="#1D1D1B" d="M18,8.5V8.3c0-1.3-1.1-2.4-2.4-2.4h-0.1V5.5h0.1c1.5,0,2.8,1.2,2.8,2.8v0.1H18z"/>
			</g>
			<g>
				<path fill="#1D1D1B" d="M18.2,8.3L18.2,8.3c-0.1-1.4-1.2-2.6-2.6-2.6V5.7C17,5.7,18.2,6.8,18.2,8.3z"/>
			</g>
		</g>
		<g>
			<g>
				<path fill="#1D1D1B" d="M15.4,11.1v-0.4h0.1c1.3,0,2.4-1.1,2.4-2.4V8.2h0.4v0.1c0,1.5-1.3,2.8-2.8,2.8H15.4z"/>
			</g>
			<g>
				<path fill="#1D1D1B" d="M15.6,10.9L15.6,10.9c1.4-0.1,2.6-1.2,2.6-2.6h0.1C18.2,9.8,17,10.9,15.6,10.9z"/>
			</g>
		</g>
		<g>
			<g>
				<path fill="#1D1D1B" d="M12.8,8.5V8.3c0-1.5,1.2-2.8,2.8-2.8h0.1v0.4h-0.1c-1.3,0-2.4,1.1-2.4,2.4v0.1H12.8z"/>
			</g>
			<g>
				<path fill="#1D1D1B" d="M13,8.3L13,8.3c-0.1-1.5,1.1-2.6,2.6-2.6v0.1C14.1,5.7,13,6.9,13,8.3z"/>
			</g>
		</g>
		<g>
			<g>
				<path fill="#1D1D1B" d="M15.6,11.1c-1.5,0-2.8-1.2-2.8-2.8V8.2h0.4v0.1c0,1.3,1.1,2.4,2.4,2.4h0.1v0.4H15.6z"/>
			</g>
			<g>
				<path fill="#1D1D1B" d="M15.6,10.9c-1.5,0-2.6-1.2-2.6-2.6H13C13,9.7,14.1,10.9,15.6,10.9L15.6,10.9z"/>
			</g>
		</g>
		<g>
			<g>
				<path fill="#1D1D1B" d="M30.6,8.5V8.3c0-1.3-1.1-2.4-2.4-2.4H28V5.5h0.1c1.5,0,2.8,1.3,2.8,2.8v0.1H30.6z"/>
			</g>
			<g>
				<path fill="#1D1D1B" d="M30.8,8.3L30.8,8.3c-0.1-1.4-1.2-2.6-2.6-2.6V5.7C29.6,5.7,30.8,6.9,30.8,8.3z"/>
			</g>
		</g>
		<g>
			<g>
				<path fill="#1D1D1B" d="M28,11.1v-0.4h0.1c1.3,0,2.4-1.1,2.4-2.4V8.2h0.4v0.1c0,1.5-1.3,2.8-2.8,2.8H28z"/>
			</g>
			<g>
				<path fill="#1D1D1B" d="M28.1,11L28.1,11c1.4-0.1,2.6-1.2,2.6-2.6h0.1C30.8,9.8,29.6,11,28.1,11z"/>
			</g>
		</g>
		<g>
			<g>
				<path fill="#1D1D1B" d="M25.3,8.5V8.3c0-1.5,1.3-2.8,2.8-2.8h0.1v0.4h-0.1c-1.3,0-2.4,1.1-2.4,2.4v0.1H25.3z"/>
			</g>
			<g>
				<path fill="#1D1D1B" d="M25.6,8.3L25.6,8.3c-0.1-1.5,1.1-2.6,2.6-2.6v0.1C26.7,5.8,25.6,6.9,25.6,8.3z"/>
			</g>
		</g>
		<g>
			<g>
				<path fill="#1D1D1B" d="M28.1,11.1c-1.5,0-2.8-1.3-2.8-2.8V8.2h0.4v0.1c0,1.3,1.1,2.4,2.4,2.4h0.1v0.4H28.1z"/>
			</g>
			<g>
				<path fill="#1D1D1B" d="M28.1,11c-1.5,0-2.6-1.2-2.6-2.6h0.1C25.6,9.8,26.7,10.9,28.1,11L28.1,11z"/>
			</g>
		</g>
		<g>
			<g>
				<path fill="#1D1D1B" d="M25.5,11.1c-1.5,0-2.8-1.3-2.8-2.8V8.2h0.4v0.1c0,1.3,1.1,2.4,2.4,2.4h0.1v0.4H25.5z"/>
			</g>
			<g>
				<path fill="#1D1D1B" d="M25.5,10.9c-1.5,0-2.6-1.2-2.6-2.6H23C23,9.7,24.1,10.9,25.5,10.9L25.5,10.9z"/>
			</g>
		</g>
		<g>
			<g>
				<rect x="22.7" y="3" fill="#1D1D1B" width="0.4" height="5.5"/>
			</g>
			<g>
				<rect x="22.9" y="3.1" fill="#1D1D1B" width="0.1" height="5.2"/>
			</g>
		</g>
		<g>
			<g>
				<rect x="20.2" y="5.5" fill="#1D1D1B" width="5.5" height="0.4"/>
			</g>
			<g>
				<rect x="20.3" y="5.7" fill="#1D1D1B" width="5.2" height="0.1"/>
			</g>
		</g>
		<g>
			<g>
				<path fill="#1D1D1B" d="M55.1,11.1c-1.5,0-2.8-1.3-2.8-2.8V8.2h0.4v0.1c0,1.3,1.1,2.4,2.4,2.4h0.1v0.4H55.1z"/>
			</g>
			<g>
				<path fill="#1D1D1B" d="M55.1,10.9c-1.5,0-2.6-1.2-2.6-2.6h0.1C52.5,9.7,53.7,10.9,55.1,10.9L55.1,10.9z"/>
			</g>
		</g>
		<g>
			<g>
				<rect x="52.3" y="3" fill="#1D1D1B" width="0.4" height="5.5"/>
			</g>
			<g>
				<rect x="52.4" y="3.1" fill="#1D1D1B" width="0.1" height="5.2"/>
			</g>
		</g>
		<g>
			<g>
				<rect x="49.7" y="5.5" fill="#1D1D1B" width="5.5" height="0.4"/>
			</g>
			<g>
				<rect x="49.9" y="5.7" fill="#1D1D1B" width="5.2" height="0.1"/>
			</g>
		</g>
	</g>
	<g>
		<g>
			<rect x="-10.1" y="6.9" fill="#E21F26" width="8.7" height="1"/>
		</g>
		<g>
			<rect x="-6.3" y="3.1" fill="#E21F26" width="1" height="8.7"/>
		</g>
	</g>
</g>
</svg>
