<?xml version="1.0" encoding="utf-8"?>
<!-- Generator: Adobe Illustrator 18.0.0, SVG Export Plug-In . SVG Version: 6.00 Build 0)  -->
<!DOCTYPE svg PUBLIC "-//W3C//DTD SVG 1.1//EN" "http://www.w3.org/Graphics/SVG/1.1/DTD/svg11.dtd">
<svg version="1.1" id="Layer_1" xmlns="http://www.w3.org/2000/svg" xmlns:xlink="http://www.w3.org/1999/xlink" x="0px" y="0px"
	 viewBox="0 0 209.6 46.6" enable-background="new 0 0 209.6 46.6" xml:space="preserve">
<line fill="none" stroke="#1D1D1B" stroke-width="0.25" stroke-miterlimit="10" x1="162.2" y1="11" x2="162.2" y2="38"/>
<path fill="none" stroke="#1D1D1B" stroke-width="0.25" stroke-miterlimit="10" d="M52.7,19.6c5,0,9,4,9,9"/>
<path fill="none" stroke="#1D1D1B" stroke-width="0.25" stroke-miterlimit="10" d="M70.7,19.6c-5,0-9,4-9,9"/>
<line fill="none" stroke="#1D1D1B" stroke-width="0.25" stroke-miterlimit="10" x1="52.7" y1="19.6" x2="52.7" y2="37.6"/>
<line fill="none" stroke="#1D1D1B" stroke-width="0.25" stroke-miterlimit="10" x1="70.7" y1="19.7" x2="70.7" y2="37.6"/>
<path fill="none" stroke="#1D1D1B" stroke-width="0.25" stroke-miterlimit="10" d="M40.5,28.6c0-5,4-9,9-9"/>
<line fill="none" stroke="#1D1D1B" stroke-width="0.25" stroke-miterlimit="10" x1="40.5" y1="19.6" x2="40.5" y2="37.6"/>
<line fill="none" stroke="#1D1D1B" stroke-width="0.25" stroke-miterlimit="10" x1="209.6" y1="28.6" x2="209.6" y2="37.6"/>
<path fill="none" stroke="#1D1D1B" stroke-width="0.25" stroke-miterlimit="10" d="M200.6,37.6c5,0,9-4,9-9"/>
<path fill="none" stroke="#1D1D1B" stroke-width="0.25" stroke-miterlimit="10" d="M200.6,46.6c5,0,9-4,9-9"/>
<path fill="none" stroke="#1D1D1B" stroke-width="0.25" stroke-miterlimit="10" d="M200.6,37.6c-5,0-9-4-9-9"/>
<path fill="none" stroke="#1D1D1B" stroke-width="0.25" stroke-miterlimit="10" d="M170.5,28.6c0-5,4-9,9-9"/>
<path fill="none" stroke="#1D1D1B" stroke-width="0.25" stroke-miterlimit="10" d="M179.5,37.6c-5,0-9-4-9-9"/>
<path fill="none" stroke="#1D1D1B" stroke-width="0.25" stroke-miterlimit="10" d="M179.5,37.6c5,0,9-4,9-9"/>
<line fill="none" stroke="#1D1D1B" stroke-width="0.25" stroke-miterlimit="10" x1="191.6" y1="28.6" x2="191.6" y2="19.7"/>
<line fill="none" stroke="#1D1D1B" stroke-width="0.25" stroke-miterlimit="10" x1="209.6" y1="28.6" x2="209.6" y2="19.7"/>
<path fill="none" stroke="#1D1D1B" stroke-width="0.25" stroke-miterlimit="10" d="M159.9,29c0,5-4,9-9,9"/>
<path fill="none" stroke="#1D1D1B" stroke-width="0.25" stroke-miterlimit="10" d="M150.9,20c5,0,9,4,9,9"/>
<path fill="none" stroke="#1D1D1B" stroke-width="0.25" stroke-miterlimit="10" d="M141.9,29c0,5,4,9,9,9"/>
<path fill="none" stroke="#1D1D1B" stroke-width="0.25" stroke-miterlimit="10" d="M150.9,20c-5,0-9,4-9,9"/>
<path fill="none" stroke="#1D1D1B" stroke-width="0.25" stroke-miterlimit="10" d="M133,2c5,0,9,4,9,9"/>
<line fill="none" stroke="#1D1D1B" stroke-width="0.25" stroke-miterlimit="10" x1="142" y1="20" x2="142" y2="11"/>
<line fill="none" stroke="#1D1D1B" stroke-width="0.25" stroke-miterlimit="10" x1="124" y1="20" x2="142" y2="20"/>
<line fill="none" stroke="#1D1D1B" stroke-width="0.25" stroke-miterlimit="10" x1="124" y1="2" x2="133" y2="2"/>
<line fill="none" stroke="#1D1D1B" stroke-width="0.25" stroke-miterlimit="10" x1="124" y1="38" x2="124" y2="2"/>
<line fill="none" stroke="#1D1D1B" stroke-width="0.25" stroke-miterlimit="10" x1="0" y1="1.6" x2="18" y2="1.6"/>
<line fill="none" stroke="#1D1D1B" stroke-width="0.25" stroke-miterlimit="10" x1="10.7" y1="37.6" x2="10.7" y2="1.6"/>
<path fill="none" stroke="#1D1D1B" stroke-width="0.25" stroke-miterlimit="10" d="M18,28.6c0-5,4-9,9-9"/>
<path fill="none" stroke="#1D1D1B" stroke-width="0.25" stroke-miterlimit="10" d="M27,37.6c-5,0-9-4-9-9"/>
<path fill="none" stroke="#1D1D1B" stroke-width="0.25" stroke-miterlimit="10" d="M36,28.6c0-5-4-9-9-9"/>
<line fill="none" stroke="#1D1D1B" stroke-width="0.25" stroke-miterlimit="10" x1="36" y1="28.6" x2="18" y2="28.6"/>
<line fill="none" stroke="#1D1D1B" stroke-width="0.25" stroke-miterlimit="10" x1="166" y1="20" x2="166" y2="38"/>
<line fill="none" stroke="#1D1D1B" stroke-width="0.25" stroke-miterlimit="10" x1="166" y1="11" x2="166" y2="15.5"/>
<path fill="none" stroke="#1D1D1B" stroke-width="0.25" stroke-miterlimit="10" d="M107.4,37.8c-3.3,0-5.9-2.7-5.9-5.9"/>
<path fill="none" stroke="#1D1D1B" stroke-width="0.25" stroke-miterlimit="10" d="M101.5,25.9c0-3.3,2.7-5.9,5.9-5.9"/>
<path fill="none" stroke="#1D1D1B" stroke-width="0.25" stroke-miterlimit="10" d="M107.4,37.8c3.3,0,5.9-2.7,5.9-5.9"/>
<path fill="none" stroke="#1D1D1B" stroke-width="0.25" stroke-miterlimit="10" d="M113.4,25.9c0-3.3-2.7-5.9-5.9-5.9"/>
<line fill="none" stroke="#1D1D1B" stroke-width="0.25" stroke-miterlimit="10" x1="101.5" y1="25.9" x2="116" y2="33.2"/>
<line fill="none" stroke="#1D1D1B" stroke-width="0.25" stroke-miterlimit="10" x1="101.5" y1="31.9" x2="113.4" y2="25.9"/>
<line fill="none" stroke="#1D1D1B" stroke-width="0.25" stroke-miterlimit="10" x1="113.4" y1="31.9" x2="113.4" y2="29.2"/>
<path fill="none" stroke="#1D1D1B" stroke-width="0.25" stroke-miterlimit="10" d="M74.7,24.1c0-2.5,3.4-4.5,7.6-4.5
	c4.2,0,7.6,2,7.6,4.5"/>
<path fill="none" stroke="#1D1D1B" stroke-width="0.25" stroke-miterlimit="10" d="M82.3,24"/>
<path fill="none" stroke="#1D1D1B" stroke-width="0.25" stroke-miterlimit="10" d="M89.9,33.2c0,2.5-3.4,4.5-7.6,4.5
	c-4.2,0-7.6-2-7.6-4.5"/>
<path fill="none" stroke="#1D1D1B" stroke-width="0.25" stroke-miterlimit="10" d="M82.3,33.2"/>
<path fill="none" stroke="#1D1D1B" stroke-width="0.25" stroke-miterlimit="10" d="M82.3,28.6c4.2,0,7.6,2,7.6,4.5"/>
<path fill="none" stroke="#1D1D1B" stroke-width="0.25" stroke-miterlimit="10" d="M82.3,28.6c-4.2,0-7.6-2-7.6-4.5"/>
</svg>
