<?xml version="1.0" encoding="utf-8"?>
<!-- Generator: Adobe Illustrator 15.0.0, SVG Export Plug-In . SVG Version: 6.00 Build 0)  -->
<!DOCTYPE svg PUBLIC "-//W3C//DTD SVG 1.1//EN" "http://www.w3.org/Graphics/SVG/1.1/DTD/svg11.dtd">
<svg version="1.1" id="Layer_1" xmlns="http://www.w3.org/2000/svg" xmlns:xlink="http://www.w3.org/1999/xlink" x="0px" y="0px"
	 width="110.695px" height="22.39px" viewBox="0 0 110.695 22.39" enable-background="new 0 0 110.695 22.39" xml:space="preserve">
<g>
	<g>
		<rect x="0.074" y="16.214" fill="#1D1D1B" width="11.497" height="0.754"/>
		<rect x="0.376" y="16.517" fill="#1D1D1B" width="10.895" height="0.15"/>
	</g>
	<g>
		<path fill="#1D1D1B" d="M10.844,6.1V5.798c0-2.783-2.264-5.045-5.046-5.045S0.752,3.015,0.752,5.798V6.1H0V5.798
			C0,2.601,2.601,0,5.798,0s5.798,2.601,5.798,5.798V6.1H10.844z"/>
		<path fill="#1D1D1B" d="M11.295,5.798h-0.15c0-2.948-2.398-5.346-5.347-5.346S0.451,2.85,0.451,5.798h-0.15
			c0-3.031,2.466-5.497,5.497-5.497S11.295,2.767,11.295,5.798z"/>
	</g>
	<g>
		<path fill="none" stroke="#1D1D1B" stroke-width="0.25" stroke-miterlimit="10" d="M5.798,5.737"/>
		<path fill="none" stroke="#1D1D1B" stroke-width="0.25" stroke-miterlimit="10" d="M5.798,5.737"/>
	</g>
	<g>
		<rect y="5.447" fill="#1D1D1B" width="0.752" height="16.869"/>
		<rect x="0.301" y="5.748" fill="#1D1D1B" width="0.15" height="16.266"/>
	</g>
	<g>
		<rect x="10.844" y="5.447" fill="#1D1D1B" width="0.752" height="16.869"/>
		<rect x="11.145" y="5.748" fill="#1D1D1B" width="0.15" height="16.266"/>
	</g>
	<g>
		<path fill="#1D1D1B" d="M68.854,22.39v-0.754h0.301c2.782,0,5.045-2.264,5.045-5.045v-0.301h0.754v0.301
			c0,3.197-2.602,5.799-5.799,5.799H68.854z"/>
		<path fill="#1D1D1B" d="M69.154,22.087v-0.148c2.947,0,5.346-2.4,5.346-5.348h0.152C74.652,19.623,72.186,22.087,69.154,22.087z"
			/>
	</g>
	<g>
		<path fill="#1D1D1B" d="M74.199,16.892v-0.301c0-2.782-2.263-5.044-5.045-5.044h-0.301v-0.754h0.301
			c3.197,0,5.799,2.602,5.799,5.798v0.301H74.199z"/>
		<path fill="#1D1D1B" d="M74.652,16.591h-0.151c0-2.948-2.398-5.346-5.347-5.346v-0.151C72.186,11.094,74.652,13.562,74.652,16.591
			z"/>
	</g>
	<g>
		<path fill="#1D1D1B" d="M69.154,22.39c-3.196,0-5.797-2.602-5.797-5.799v-0.301h0.752v0.301c0,2.781,2.264,5.045,5.045,5.045
			h0.301v0.754H69.154z"/>
		<path fill="#1D1D1B" d="M69.154,22.087c-3.031,0-5.496-2.465-5.496-5.496h0.149c0,2.947,2.399,5.348,5.347,5.348V22.087z"/>
	</g>
	<g>
		<path fill="#1D1D1B" d="M63.357,16.892v-0.301c0-3.197,2.601-5.798,5.797-5.798h0.301v0.754h-0.301
			c-2.782,0-5.045,2.263-5.045,5.044v0.301H63.357z"/>
		<path fill="#1D1D1B" d="M63.808,16.591h-0.15c0-3.03,2.466-5.498,5.497-5.498v0.151C66.207,11.245,63.808,13.644,63.808,16.591z"
			/>
	</g>
	<g>
		<path fill="#1D1D1B" d="M76.408,16.943v-0.301c0-3.198,2.602-5.798,5.798-5.798h0.302v0.753h-0.302
			c-2.782,0-5.046,2.264-5.046,5.045v0.301H76.408z"/>
		<path fill="#1D1D1B" d="M76.859,16.642h-0.15c0-3.031,2.466-5.497,5.497-5.497v0.149C79.258,11.295,76.859,13.694,76.859,16.642z"
			/>
	</g>
	<g>
		<rect x="76.408" y="10.919" fill="#1D1D1B" width="0.752" height="11.446"/>
		<rect x="76.709" y="11.22" fill="#1D1D1B" width="0.15" height="10.844"/>
	</g>
	<g>
		<path fill="#1D1D1B" d="M13.436,16.943v-0.301c0-3.198,2.602-5.798,5.799-5.798h0.301v0.753h-0.301
			c-2.783,0-5.045,2.264-5.045,5.045v0.301H13.436z"/>
		<path fill="#1D1D1B" d="M13.888,16.642h-0.151c0-3.031,2.466-5.497,5.498-5.497v0.149C16.287,11.295,13.888,13.694,13.888,16.642z
			"/>
	</g>
	<g>
		<path fill="#1D1D1B" d="M19.233,22.441c-3.197,0-5.799-2.602-5.799-5.799v-0.301h0.754v0.301c0,2.781,2.263,5.045,5.045,5.045
			h0.302v0.754H19.233z"/>
		<path fill="#1D1D1B" d="M19.233,22.14c-3.031,0-5.497-2.467-5.497-5.498h0.151c0,2.947,2.397,5.346,5.346,5.346V22.14z"/>
	</g>
	<g>
		<path fill="#1D1D1B" d="M18.932,22.441v-0.754h0.302c2.782,0,5.046-2.264,5.046-5.045v-0.301h0.753v0.301
			c0,3.197-2.602,5.799-5.799,5.799H18.932z"/>
		<path fill="#1D1D1B" d="M19.233,22.14v-0.152c2.948,0,5.347-2.398,5.347-5.346h0.15C24.73,19.673,22.266,22.14,19.233,22.14z"/>
	</g>
	<g>
		<path fill="#1D1D1B" d="M25.58,16.943v-0.301c0-3.198,2.602-5.798,5.798-5.798h0.302v0.753h-0.302
			c-2.782,0-5.045,2.264-5.045,5.045v0.301H25.58z"/>
		<path fill="#1D1D1B" d="M26.031,16.642h-0.15c0-3.031,2.467-5.497,5.497-5.497v0.149C28.43,11.295,26.031,13.694,26.031,16.642z"
			/>
	</g>
	<g>
		<path fill="#1D1D1B" d="M31.377,22.441c-3.195,0-5.797-2.602-5.797-5.799v-0.301h0.752v0.301c0,2.781,2.264,5.045,5.045,5.045
			h0.302v0.754H31.377z"/>
		<path fill="#1D1D1B" d="M31.377,22.14c-3.03,0-5.496-2.467-5.496-5.498h0.15c0,2.947,2.398,5.346,5.346,5.346V22.14z"/>
	</g>
	<g>
		<path fill="#1D1D1B" d="M31.076,22.441v-0.754h0.301c2.783,0,5.047-2.264,5.047-5.045v-0.301h0.752v0.301
			c0,3.197-2.602,5.799-5.799,5.799H31.076z"/>
		<path fill="#1D1D1B" d="M31.377,22.14v-0.152c2.949,0,5.348-2.398,5.348-5.346h0.15C36.875,19.673,34.409,22.14,31.377,22.14z"/>
	</g>
	<g>
		<path fill="#1D1D1B" d="M61.198,14.22v-0.301c0-1.258-2.311-2.322-5.045-2.322c-2.735,0-5.046,1.064-5.046,2.322v0.301h-0.752
			v-0.301c0-1.725,2.547-3.075,5.798-3.075s5.798,1.351,5.798,3.075v0.301H61.198z"/>
		<path fill="#1D1D1B" d="M61.65,13.919H61.5c0-1.447-2.398-2.624-5.347-2.624s-5.347,1.177-5.347,2.624h-0.15
			c0-1.529,2.466-2.773,5.497-2.773C59.184,11.146,61.65,12.39,61.65,13.919z"/>
	</g>
	<g>
		<path fill="none" stroke="#1D1D1B" stroke-width="0.25" stroke-miterlimit="10" d="M56.153,13.888"/>
		<path fill="none" stroke="#1D1D1B" stroke-width="0.25" stroke-miterlimit="10" d="M56.153,13.888"/>
	</g>
	<g>
		<path fill="#1D1D1B" d="M56.153,22.39c-3.251,0-5.798-1.352-5.798-3.074v-0.303h0.752v0.303c0,1.258,2.311,2.32,5.046,2.32
			c2.734,0,5.045-1.063,5.045-2.32v-0.303h0.753v0.303C61.951,21.039,59.404,22.39,56.153,22.39z"/>
		<path fill="#1D1D1B" d="M56.153,22.087c-3.031,0-5.497-1.244-5.497-2.771h0.15c0,1.445,2.398,2.623,5.347,2.623
			s5.347-1.178,5.347-2.623h0.15C61.65,20.843,59.184,22.087,56.153,22.087z"/>
	</g>
	<g>
		<path fill="none" stroke="#1D1D1B" stroke-width="0.25" stroke-miterlimit="10" d="M56.153,19.345"/>
		<path fill="none" stroke="#1D1D1B" stroke-width="0.25" stroke-miterlimit="10" d="M56.153,19.345"/>
	</g>
	<g>
		<path fill="#1D1D1B" d="M61.198,19.617v-0.301c0-1.26-2.311-2.322-5.045-2.322h-0.302V16.24h0.302
			c3.251,0,5.798,1.352,5.798,3.076v0.301H61.198z"/>
		<path fill="#1D1D1B" d="M61.65,19.316H61.5c0-1.447-2.398-2.625-5.347-2.625v-0.148C59.184,16.542,61.65,17.787,61.65,19.316z"/>
	</g>
	<g>
		<path fill="#1D1D1B" d="M56.153,16.994c-3.251,0-5.798-1.352-5.798-3.075v-0.303h0.752v0.303c0,1.258,2.311,2.321,5.046,2.321
			h0.301v0.754H56.153z"/>
		<path fill="#1D1D1B" d="M56.153,16.691c-3.031,0-5.497-1.242-5.497-2.772h0.15c0,1.446,2.398,2.624,5.347,2.624V16.691z"/>
	</g>
	<g>
		<path fill="#1D1D1B" d="M109.943,14.22v-0.301c0-1.258-2.311-2.322-5.046-2.322c-2.734,0-5.046,1.064-5.046,2.322v0.301H99.1
			v-0.301c0-1.725,2.547-3.075,5.798-3.075c3.252,0,5.798,1.351,5.798,3.075v0.301H109.943z"/>
		<path fill="#1D1D1B" d="M110.395,13.919h-0.15c0-1.447-2.398-2.624-5.347-2.624s-5.347,1.177-5.347,2.624H99.4
			c0-1.529,2.466-2.773,5.497-2.773S110.395,12.39,110.395,13.919z"/>
	</g>
	<g>
		<path fill="none" stroke="#1D1D1B" stroke-width="0.25" stroke-miterlimit="10" d="M104.897,13.888"/>
		<path fill="none" stroke="#1D1D1B" stroke-width="0.25" stroke-miterlimit="10" d="M104.897,13.888"/>
	</g>
	<g>
		<path fill="#1D1D1B" d="M104.897,22.39c-3.251,0-5.798-1.352-5.798-3.074v-0.303h0.752v0.303c0,1.258,2.312,2.32,5.046,2.32
			c2.735,0,5.046-1.063,5.046-2.32v-0.303h0.752v0.303C110.695,21.039,108.149,22.39,104.897,22.39z"/>
		<path fill="#1D1D1B" d="M104.897,22.087c-3.031,0-5.497-1.244-5.497-2.771h0.15c0,1.445,2.398,2.623,5.347,2.623
			s5.347-1.178,5.347-2.623h0.15C110.395,20.843,107.929,22.087,104.897,22.087z"/>
	</g>
	<g>
		<path fill="none" stroke="#1D1D1B" stroke-width="0.25" stroke-miterlimit="10" d="M104.897,19.345"/>
		<path fill="none" stroke="#1D1D1B" stroke-width="0.25" stroke-miterlimit="10" d="M104.897,19.345"/>
	</g>
	<g>
		<path fill="#1D1D1B" d="M109.943,19.617v-0.301c0-1.26-2.311-2.322-5.046-2.322h-0.302V16.24h0.302
			c3.252,0,5.798,1.352,5.798,3.076v0.301H109.943z"/>
		<path fill="#1D1D1B" d="M110.395,19.316h-0.15c0-1.447-2.398-2.625-5.347-2.625v-0.148
			C107.929,16.542,110.395,17.787,110.395,19.316z"/>
	</g>
	<g>
		<path fill="#1D1D1B" d="M104.897,16.994c-3.251,0-5.798-1.352-5.798-3.075v-0.303h0.752v0.303c0,1.258,2.312,2.321,5.046,2.321
			h0.302v0.754H104.897z"/>
		<path fill="#1D1D1B" d="M104.897,16.691c-3.031,0-5.497-1.242-5.497-2.772h0.15c0,1.446,2.398,2.624,5.347,2.624V16.691z"/>
	</g>
	<g>
		<path fill="#1D1D1B" d="M37.953,16.843v-0.301c0-3.199,2.6-5.799,5.798-5.799h0.302v0.753h-0.302
			c-2.782,0-5.046,2.263-5.046,5.046v0.301H37.953z"/>
		<path fill="#1D1D1B" d="M38.404,16.542h-0.15c0-3.033,2.467-5.499,5.497-5.499v0.15C40.803,11.194,38.404,13.593,38.404,16.542z"
			/>
	</g>
	<g>
		<path fill="#1D1D1B" d="M43.751,22.339c-3.198,0-5.799-2.6-5.799-5.799V16.24h0.753v0.301c0,2.783,2.264,5.047,5.046,5.047h0.302
			v0.752H43.751z"/>
		<path fill="#1D1D1B" d="M43.751,22.039c-3.031,0-5.497-2.467-5.497-5.498h0.15c0,2.949,2.398,5.348,5.347,5.348V22.039z"/>
	</g>
	<g>
		<path fill="#1D1D1B" d="M48.797,16.843v-0.301c0-2.784-2.264-5.046-5.046-5.046h-0.302v-0.753h0.302
			c3.198,0,5.798,2.601,5.798,5.799v0.301H48.797z"/>
		<path fill="#1D1D1B" d="M49.248,16.542h-0.15c0-2.95-2.398-5.348-5.347-5.348v-0.15C46.781,11.044,49.248,13.51,49.248,16.542z"/>
	</g>
	<g>
		<rect x="38.028" y="16.165" fill="#1D1D1B" width="11.445" height="0.754"/>
		<rect x="38.329" y="16.464" fill="#1D1D1B" width="10.843" height="0.152"/>
	</g>
	<g>
		<path fill="#1D1D1B" d="M86.549,16.843v-0.301c0-3.199,2.602-5.799,5.799-5.799h0.301v0.753h-0.301
			c-2.783,0-5.045,2.263-5.045,5.046v0.301H86.549z"/>
		<path fill="#1D1D1B" d="M87,16.542h-0.149c0-3.033,2.466-5.499,5.497-5.499v0.15C89.398,11.194,87,13.593,87,16.542z"/>
	</g>
	<g>
		<path fill="#1D1D1B" d="M92.348,22.339c-3.197,0-5.799-2.6-5.799-5.799V16.24h0.754v0.301c0,2.783,2.262,5.047,5.045,5.047h0.301
			v0.752H92.348z"/>
		<path fill="#1D1D1B" d="M92.348,22.039c-3.031,0-5.498-2.467-5.498-5.498H87c0,2.949,2.398,5.348,5.348,5.348V22.039z"/>
	</g>
	<g>
		<path fill="#1D1D1B" d="M97.393,16.843v-0.301c0-2.784-2.264-5.046-5.045-5.046h-0.302v-0.753h0.302
			c3.196,0,5.798,2.601,5.798,5.799v0.301H97.393z"/>
		<path fill="#1D1D1B" d="M97.844,16.542h-0.15c0-2.95-2.398-5.348-5.346-5.348v-0.15C95.379,11.044,97.844,13.51,97.844,16.542z"/>
	</g>
	<g>
		<rect x="86.624" y="16.165" fill="#1D1D1B" width="11.446" height="0.754"/>
		<rect x="86.925" y="16.464" fill="#1D1D1B" width="10.844" height="0.152"/>
	</g>
	<g>
		<rect x="83.938" y="10.919" fill="#1D1D1B" width="0.753" height="11.446"/>
		<rect x="84.238" y="11.22" fill="#1D1D1B" width="0.152" height="10.844"/>
	</g>
	<g>
		<rect x="83.938" y="5.497" fill="#1D1D1B" width="0.753" height="3.313"/>
		<rect x="84.238" y="5.798" fill="#1D1D1B" width="0.152" height="2.711"/>
	</g>
</g>
</svg>
