<?xml version="1.0" encoding="utf-8"?>
<!-- Generator: Adobe Illustrator 15.0.0, SVG Export Plug-In . SVG Version: 6.00 Build 0)  -->
<!DOCTYPE svg PUBLIC "-//W3C//DTD SVG 1.1//EN" "http://www.w3.org/Graphics/SVG/1.1/DTD/svg11.dtd">
<svg version="1.1" id="Layer_1" xmlns="http://www.w3.org/2000/svg" xmlns:xlink="http://www.w3.org/1999/xlink" x="0px" y="0px"
	 width="147.975px" height="27.502px" viewBox="0 0 147.975 27.502" enable-background="new 0 0 147.975 27.502"
	 xml:space="preserve">
<g>
	<g>
		<path fill="#1D1D1B" d="M10.724,6.083V5.784c0-2.752-2.238-4.99-4.988-4.99c-2.752,0-4.99,2.238-4.99,4.99v0.298H0V5.784
			C0,2.623,2.573,0.05,5.735,0.05c3.161,0,5.732,2.573,5.732,5.734v0.298H10.724z"/>
		<path fill="#1D1D1B" d="M11.171,5.784h-0.15c0-2.916-2.371-5.288-5.285-5.288c-2.917,0-5.289,2.372-5.289,5.288H0.298
			c0-2.998,2.438-5.437,5.438-5.437C8.731,0.348,11.171,2.787,11.171,5.784z"/>
	</g>
	<g>
		<path fill="none" stroke="#1D1D1B" stroke-width="0.25" stroke-miterlimit="10" d="M5.735,5.724"/>
		<path fill="none" stroke="#1D1D1B" stroke-width="0.25" stroke-miterlimit="10" d="M5.735,5.724"/>
	</g>
	<g>
		<path fill="#1D1D1B" d="M5.735,22.192C2.573,22.192,0,19.619,0,16.458v-0.299h0.745v0.299c0,2.751,2.238,4.988,4.99,4.988h0.297
			v0.746H5.735z"/>
		<path fill="#1D1D1B" d="M5.735,21.894c-2.999,0-5.438-2.439-5.438-5.437h0.148c0,2.915,2.372,5.287,5.289,5.287V21.894z"/>
	</g>
	<g>
		<path fill="#1D1D1B" d="M5.437,22.192v-0.746h0.298c2.751,0,4.989-2.237,4.989-4.988v-0.299h0.744v0.299
			c0,3.161-2.572,5.734-5.733,5.734H5.437z"/>
		<path fill="#1D1D1B" d="M5.734,21.894v-0.149c2.915,0,5.286-2.372,5.286-5.287h0.149C11.17,19.455,8.731,21.894,5.734,21.894z"/>
	</g>
	<g>
		<rect y="5.485" fill="#1D1D1B" width="0.745" height="11.319"/>
		<rect x="0.298" y="5.784" fill="#1D1D1B" width="0.148" height="10.723"/>
	</g>
	<g>
		<path fill="#1D1D1B" d="M56.328,22.192v-0.746h0.298c2.752,0,4.99-2.237,4.99-4.988v-0.299h0.743v0.299
			c0,3.161-2.571,5.734-5.733,5.734H56.328z"/>
		<path fill="#1D1D1B" d="M56.626,21.894v-0.149c2.915,0,5.287-2.372,5.287-5.287h0.148C62.062,19.455,59.624,21.894,56.626,21.894z
			"/>
	</g>
	<g>
		<path fill="#1D1D1B" d="M61.616,16.755v-0.298c0-2.75-2.238-4.99-4.99-4.99h-0.298v-0.745h0.298c3.162,0,5.734,2.573,5.734,5.734
			v0.298H61.616z"/>
		<path fill="#1D1D1B" d="M62.063,16.458h-0.149c0-2.916-2.371-5.287-5.287-5.287v-0.149C59.624,11.021,62.063,13.46,62.063,16.458z
			"/>
	</g>
	<g>
		<path fill="#1D1D1B" d="M56.626,22.192c-3.161,0-5.733-2.573-5.733-5.734v-0.299h0.744v0.299c0,2.751,2.239,4.988,4.989,4.988
			h0.299v0.746H56.626z"/>
		<path fill="#1D1D1B" d="M56.626,21.894c-2.997,0-5.436-2.439-5.436-5.437h0.148c0,2.915,2.373,5.287,5.287,5.287V21.894z"/>
	</g>
	<g>
		<path fill="#1D1D1B" d="M50.892,16.755v-0.298c0-3.161,2.573-5.734,5.734-5.734h0.298v0.745h-0.298
			c-2.75,0-4.989,2.239-4.989,4.99v0.298H50.892z"/>
		<path fill="#1D1D1B" d="M51.339,16.458H51.19c0-2.997,2.438-5.436,5.436-5.436v0.149C53.711,11.17,51.339,13.542,51.339,16.458z"
			/>
	</g>
	<g>
		<rect x="75.503" y="10.856" fill="#1D1D1B" width="0.746" height="5.958"/>
		<rect x="75.801" y="11.155" fill="#1D1D1B" width="0.149" height="5.363"/>
	</g>
	<g>
		<path fill="#1D1D1B" d="M70.142,16.815v-0.297c0-2.752-2.237-4.99-4.989-4.99h-0.298v-0.745h0.298
			c3.162,0,5.733,2.572,5.733,5.734v0.297H70.142z"/>
		<path fill="#1D1D1B" d="M70.589,16.518H70.44c0-2.916-2.373-5.288-5.288-5.288v-0.148C68.149,11.082,70.589,13.52,70.589,16.518z"
			/>
	</g>
	<g>
		<path fill="#1D1D1B" d="M70.141,16.815v-0.299c0-3.161,2.571-5.733,5.733-5.733h0.298v0.745h-0.298
			c-2.752,0-4.988,2.238-4.988,4.988v0.299H70.141z"/>
		<path fill="#1D1D1B" d="M70.588,16.516h-0.149c0-2.997,2.438-5.436,5.436-5.436v0.149C72.959,11.229,70.588,13.602,70.588,16.516z
			"/>
	</g>
	<g>
		<rect x="64.78" y="10.856" fill="#1D1D1B" width="0.744" height="11.32"/>
		<rect x="65.077" y="11.155" fill="#1D1D1B" width="0.15" height="10.723"/>
	</g>
	<g>
		<rect x="75.503" y="16.219" fill="#1D1D1B" width="0.746" height="5.957"/>
		<rect x="75.801" y="16.516" fill="#1D1D1B" width="0.149" height="5.362"/>
	</g>
	<g>
		<path fill="#1D1D1B" d="M136.507,16.815v-0.297c0-3.163,2.572-5.734,5.734-5.734h0.299v0.745h-0.299
			c-2.751,0-4.988,2.237-4.988,4.99v0.297H136.507z"/>
		<path fill="#1D1D1B" d="M136.955,16.518h-0.15c0-2.998,2.438-5.436,5.437-5.436v0.148
			C139.326,11.23,136.955,13.602,136.955,16.518z"/>
	</g>
	<g>
		<path fill="#1D1D1B" d="M147.229,16.815v-0.297c0-2.752-2.236-4.99-4.988-4.99h-0.298v-0.745h0.298
			c3.161,0,5.733,2.572,5.733,5.734v0.297H147.229z"/>
		<path fill="#1D1D1B" d="M147.677,16.518h-0.148c0-2.916-2.372-5.288-5.287-5.288v-0.148
			C145.238,11.082,147.677,13.52,147.677,16.518z"/>
	</g>
	<g>
		<rect x="136.507" y="10.857" fill="#1D1D1B" width="0.746" height="11.321"/>
		<rect x="136.805" y="11.156" fill="#1D1D1B" width="0.15" height="10.723"/>
	</g>
	<g>
		<rect x="147.23" y="16.219" fill="#1D1D1B" width="0.745" height="5.957"/>
		<rect x="147.528" y="16.518" fill="#1D1D1B" width="0.149" height="5.36"/>
	</g>
	<g>
		<path fill="#1D1D1B" d="M19.002,22.25v-0.744H19.3c2.751,0,4.988-2.238,4.988-4.99v-0.297h0.745v0.297
			c0,3.162-2.572,5.734-5.733,5.734H19.002z"/>
		<path fill="#1D1D1B" d="M19.3,21.954v-0.15c2.915,0,5.287-2.371,5.287-5.287h0.148C24.735,19.514,22.297,21.954,19.3,21.954z"/>
	</g>
	<g>
		<path fill="#1D1D1B" d="M19.3,22.25c-3.161,0-5.734-2.572-5.734-5.734v-0.297h0.745v0.297c0,2.752,2.239,4.99,4.989,4.99h0.298
			v0.744H19.3z"/>
		<path fill="#1D1D1B" d="M19.3,21.954c-2.998,0-5.437-2.439-5.437-5.438h0.149c0,2.916,2.371,5.287,5.287,5.287V21.954z"/>
	</g>
	<g>
		<rect x="24.288" y="10.856" fill="#1D1D1B" width="0.745" height="11.32"/>
		<rect x="24.587" y="11.155" fill="#1D1D1B" width="0.148" height="10.723"/>
	</g>
	<g>
		<rect x="13.565" y="10.856" fill="#1D1D1B" width="0.744" height="5.958"/>
		<rect x="13.863" y="11.155" fill="#1D1D1B" width="0.149" height="5.361"/>
	</g>
	<g>
		<rect x="133.929" y="16.11" fill="#1D1D1B" width="0.745" height="5.957"/>
		<rect x="134.226" y="16.408" fill="#1D1D1B" width="0.15" height="5.36"/>
	</g>
	<g>
		<path fill="#1D1D1B" d="M133.929,16.706v-0.298c0-2.75-2.238-4.99-4.99-4.99h-0.297v-0.745h0.297c3.162,0,5.735,2.572,5.735,5.734
			v0.298H133.929z"/>
		<path fill="#1D1D1B" d="M134.376,16.408h-0.15c0-2.915-2.371-5.288-5.287-5.288v-0.148
			C131.937,10.972,134.376,13.41,134.376,16.408z"/>
	</g>
	<g>
		<path fill="#1D1D1B" d="M128.642,22.141v-0.744h0.297c2.752,0,4.99-2.238,4.99-4.989V16.11h0.745v0.298
			c0,3.161-2.573,5.733-5.735,5.733H128.642z"/>
		<path fill="#1D1D1B" d="M128.938,21.844v-0.149c2.916,0,5.287-2.372,5.287-5.287h0.15
			C134.376,19.405,131.937,21.844,128.938,21.844z"/>
	</g>
	<g>
		<path fill="#1D1D1B" d="M128.642,27.502v-0.744h0.297c2.752,0,4.99-2.238,4.99-4.99v-0.297h0.745v0.297
			c0,3.162-2.573,5.734-5.735,5.734H128.642z"/>
		<path fill="#1D1D1B" d="M128.938,27.206v-0.149c2.916,0,5.287-2.372,5.287-5.288h0.15
			C134.376,24.766,131.937,27.206,128.938,27.206z"/>
	</g>
	<g>
		<path fill="#1D1D1B" d="M123.206,16.706v-0.298c0-3.162,2.572-5.734,5.733-5.734h0.298v0.745h-0.298
			c-2.751,0-4.989,2.239-4.989,4.99v0.298H123.206z"/>
		<path fill="#1D1D1B" d="M123.652,16.408h-0.149c0-2.998,2.439-5.436,5.437-5.436v0.148
			C126.024,11.12,123.652,13.493,123.652,16.408z"/>
	</g>
	<g>
		<path fill="#1D1D1B" d="M128.938,22.141c-3.16,0-5.733-2.572-5.733-5.733V16.11h0.745v0.298c0,2.751,2.238,4.989,4.988,4.989
			h0.299v0.744H128.938z"/>
		<path fill="#1D1D1B" d="M128.938,21.844c-2.996,0-5.436-2.439-5.436-5.437h0.149c0,2.915,2.372,5.287,5.286,5.287V21.844z"/>
	</g>
	<g>
		<path fill="#1D1D1B" d="M90.896,6.032V5.734c0-2.751-2.237-4.989-4.989-4.989h-0.299V0h0.299c3.162,0,5.734,2.573,5.734,5.734
			v0.297H90.896z"/>
		<path fill="#1D1D1B" d="M91.343,5.734h-0.148c0-2.916-2.371-5.288-5.287-5.288V0.298C88.905,0.298,91.343,2.736,91.343,5.734z"/>
	</g>
	<g>
		<path fill="#1D1D1B" d="M85.608,22.192v-0.746h0.299c2.752,0,4.989-2.238,4.989-4.988v-0.299h0.745v0.299
			c0,3.161-2.573,5.734-5.734,5.734H85.608z"/>
		<path fill="#1D1D1B" d="M85.907,21.894v-0.149c2.916,0,5.287-2.373,5.287-5.287h0.148C91.343,19.455,88.905,21.894,85.907,21.894z
			"/>
	</g>
	<g>
		<rect x="90.896" y="5.436" fill="#1D1D1B" width="0.745" height="11.319"/>
		<rect x="91.194" y="5.734" fill="#1D1D1B" width="0.148" height="10.723"/>
	</g>
	<g>
		<rect x="80.248" y="21.446" fill="#1D1D1B" width="5.957" height="0.746"/>
		<rect x="80.546" y="21.745" fill="#1D1D1B" width="5.361" height="0.149"/>
	</g>
	<g>
		<rect x="80.248" fill="#1D1D1B" width="5.957" height="0.745"/>
		<rect x="80.546" y="0.298" fill="#1D1D1B" width="5.361" height="0.149"/>
	</g>
	<g>
		<rect x="80.173" y="0.075" fill="#1D1D1B" width="0.745" height="22.043"/>
		<rect x="80.472" y="0.373" fill="#1D1D1B" width="0.148" height="21.446"/>
	</g>
	<g>
		<path fill="#1D1D1B" d="M38.458,14.112v-0.298c0-1.244-2.285-2.296-4.99-2.296c-2.704,0-4.988,1.052-4.988,2.296v0.298h-0.745
			v-0.298c0-1.706,2.519-3.041,5.733-3.041c3.216,0,5.734,1.335,5.734,3.041v0.298H38.458z"/>
		<path fill="#1D1D1B" d="M38.905,13.814h-0.15c0-1.43-2.371-2.593-5.287-2.593c-2.915,0-5.287,1.163-5.287,2.593h-0.148
			c0-1.512,2.439-2.742,5.436-2.742C36.466,11.072,38.905,12.302,38.905,13.814z"/>
	</g>
	<g>
		<path fill="none" stroke="#1D1D1B" stroke-width="0.25" stroke-miterlimit="10" d="M33.468,13.784"/>
		<path fill="none" stroke="#1D1D1B" stroke-width="0.25" stroke-miterlimit="10" d="M33.468,13.784"/>
	</g>
	<g>
		<path fill="#1D1D1B" d="M33.468,22.192c-3.215,0-5.733-1.336-5.733-3.041v-0.298h0.745v0.298c0,1.244,2.284,2.295,4.988,2.295
			c2.705,0,4.99-1.051,4.99-2.295v-0.298h0.744v0.298C39.202,20.856,36.684,22.192,33.468,22.192z"/>
		<path fill="#1D1D1B" d="M33.468,21.894c-2.996,0-5.436-1.231-5.436-2.743h0.148c0,1.43,2.372,2.594,5.287,2.594
			c2.916,0,5.287-1.164,5.287-2.594h0.15C38.905,20.663,36.466,21.894,33.468,21.894z"/>
	</g>
	<g>
		<path fill="none" stroke="#1D1D1B" stroke-width="0.25" stroke-miterlimit="10" d="M33.468,19.18"/>
		<path fill="none" stroke="#1D1D1B" stroke-width="0.25" stroke-miterlimit="10" d="M33.468,19.18"/>
	</g>
	<g>
		<path fill="#1D1D1B" d="M38.458,19.448v-0.297c0-1.245-2.285-2.297-4.99-2.297h-0.297V16.11h0.297
			c3.216,0,5.734,1.336,5.734,3.041v0.297H38.458z"/>
		<path fill="#1D1D1B" d="M38.905,19.151h-0.15c0-1.43-2.371-2.594-5.287-2.594v-0.148C36.466,16.409,38.905,17.639,38.905,19.151z"
			/>
	</g>
	<g>
		<path fill="#1D1D1B" d="M33.468,16.854c-3.215,0-5.733-1.336-5.733-3.04v-0.298h0.745v0.298c0,1.245,2.284,2.296,4.988,2.296
			h0.299v0.744H33.468z"/>
		<path fill="#1D1D1B" d="M33.468,16.557c-2.996,0-5.436-1.23-5.436-2.743h0.148c0,1.429,2.372,2.595,5.287,2.595V16.557z"/>
	</g>
	<g>
		<path fill="#1D1D1B" d="M117.142,14.112v-0.298c0-1.244-2.286-2.296-4.99-2.296s-4.989,1.052-4.989,2.296v0.298h-0.745v-0.298
			c0-1.706,2.52-3.041,5.734-3.041s5.734,1.335,5.734,3.041v0.298H117.142z"/>
		<path fill="#1D1D1B" d="M117.587,13.814h-0.148c0-1.43-2.372-2.593-5.287-2.593s-5.287,1.163-5.287,2.593h-0.148
			c0-1.512,2.438-2.742,5.436-2.742S117.587,12.302,117.587,13.814z"/>
	</g>
	<g>
		<path fill="none" stroke="#1D1D1B" stroke-width="0.25" stroke-miterlimit="10" d="M112.151,13.784"/>
		<path fill="none" stroke="#1D1D1B" stroke-width="0.25" stroke-miterlimit="10" d="M112.151,13.784"/>
	</g>
	<g>
		<path fill="#1D1D1B" d="M112.151,22.192c-3.215,0-5.734-1.336-5.734-3.041v-0.298h0.745v0.298c0,1.244,2.285,2.295,4.989,2.295
			s4.99-1.051,4.99-2.295v-0.298h0.744v0.298C117.886,20.856,115.366,22.192,112.151,22.192z"/>
		<path fill="#1D1D1B" d="M112.151,21.894c-2.997,0-5.436-1.231-5.436-2.743h0.148c0,1.43,2.372,2.594,5.287,2.594
			s5.287-1.164,5.287-2.594h0.148C117.587,20.663,115.148,21.894,112.151,21.894z"/>
	</g>
	<g>
		<path fill="none" stroke="#1D1D1B" stroke-width="0.25" stroke-miterlimit="10" d="M112.151,19.18"/>
		<path fill="none" stroke="#1D1D1B" stroke-width="0.25" stroke-miterlimit="10" d="M112.151,19.18"/>
	</g>
	<g>
		<path fill="#1D1D1B" d="M117.142,19.448v-0.297c0-1.245-2.286-2.297-4.99-2.297h-0.298V16.11h0.298
			c3.215,0,5.734,1.336,5.734,3.041v0.297H117.142z"/>
		<path fill="#1D1D1B" d="M117.587,19.151h-0.148c0-1.43-2.372-2.594-5.287-2.594v-0.148
			C115.148,16.409,117.587,17.639,117.587,19.151z"/>
	</g>
	<g>
		<path fill="#1D1D1B" d="M112.151,16.854c-3.215,0-5.734-1.336-5.734-3.04v-0.298h0.745v0.298c0,1.245,2.285,2.296,4.989,2.296
			h0.297v0.744H112.151z"/>
		<path fill="#1D1D1B" d="M112.151,16.557c-2.997,0-5.436-1.23-5.436-2.743h0.148c0,1.429,2.372,2.595,5.287,2.595V16.557z"/>
	</g>
	<g>
		<path fill="#1D1D1B" d="M49.554,22.192c-3.162,0-5.734-2.573-5.734-5.734v-0.299h0.745v0.299c0,2.751,2.237,4.988,4.989,4.988
			h0.298v0.746H49.554z"/>
		<path fill="#1D1D1B" d="M49.554,21.894c-2.998,0-5.437-2.439-5.437-5.437h0.149c0,2.915,2.371,5.287,5.287,5.287V21.894z"/>
	</g>
	<g>
		<rect x="43.819" y="5.436" fill="#1D1D1B" width="0.744" height="11.32"/>
		<rect x="44.116" y="5.734" fill="#1D1D1B" width="0.149" height="10.724"/>
	</g>
	<g>
		<rect x="38.532" y="10.723" fill="#1D1D1B" width="11.319" height="0.745"/>
		<rect x="38.83" y="11.021" fill="#1D1D1B" width="10.724" height="0.149"/>
	</g>
	<g>
		<path fill="#1D1D1B" d="M93.355,16.755v-0.298c0-3.161,2.572-5.734,5.733-5.734h0.299v0.745h-0.299
			c-2.751,0-4.988,2.238-4.988,4.99v0.298H93.355z"/>
		<path fill="#1D1D1B" d="M93.803,16.458h-0.149c0-2.997,2.438-5.436,5.436-5.436v0.149C96.175,11.17,93.803,13.542,93.803,16.458z"
			/>
	</g>
	<g>
		<path fill="#1D1D1B" d="M99.089,22.192c-3.162,0-5.733-2.573-5.733-5.734v-0.299h0.745v0.299c0,2.75,2.236,4.988,4.988,4.988
			h0.299v0.746H99.089z"/>
		<path fill="#1D1D1B" d="M99.089,21.894c-2.998,0-5.436-2.439-5.436-5.437h0.149c0,2.914,2.37,5.287,5.286,5.287V21.894z"/>
	</g>
	<g>
		<path fill="#1D1D1B" d="M104.079,16.755v-0.298c0-2.751-2.239-4.99-4.99-4.99h-0.297v-0.745h0.297
			c3.161,0,5.734,2.573,5.734,5.734v0.298H104.079z"/>
		<path fill="#1D1D1B" d="M104.524,16.458h-0.147c0-2.916-2.373-5.287-5.288-5.287v-0.149
			C102.087,11.021,104.524,13.46,104.524,16.458z"/>
	</g>
	<g>
		<rect x="93.43" y="16.084" fill="#1D1D1B" width="11.319" height="0.745"/>
		<rect x="93.728" y="16.383" fill="#1D1D1B" width="10.724" height="0.148"/>
	</g>
	<g>
		<rect x="120.323" y="10.857" fill="#1D1D1B" width="0.744" height="11.321"/>
		<rect x="120.621" y="11.156" fill="#1D1D1B" width="0.149" height="10.723"/>
	</g>
	<g>
		<rect x="120.323" y="5.496" fill="#1D1D1B" width="0.744" height="3.276"/>
		<rect x="120.621" y="5.794" fill="#1D1D1B" width="0.149" height="2.681"/>
	</g>
</g>
</svg>
