<?xml version="1.0" encoding="utf-8"?>
<!-- Generator: Adobe Illustrator 15.0.0, SVG Export Plug-In . SVG Version: 6.00 Build 0)  -->
<!DOCTYPE svg PUBLIC "-//W3C//DTD SVG 1.1//EN" "http://www.w3.org/Graphics/SVG/1.1/DTD/svg11.dtd">
<svg version="1.1" id="Layer_1" xmlns="http://www.w3.org/2000/svg" xmlns:xlink="http://www.w3.org/1999/xlink" x="0px" y="0px"
	 width="139.428px" height="27.723px" viewBox="0 0 139.428 27.723" enable-background="new 0 0 139.428 27.723"
	 xml:space="preserve">
<g>
	<g>
		<path fill="#1D1D1B" d="M10.809,6.13v-0.3c0-2.774-2.257-5.029-5.029-5.029c-2.773,0-5.029,2.255-5.029,5.029v0.3H0v-0.3
			c0-3.187,2.592-5.779,5.779-5.779c3.186,0,5.779,2.592,5.779,5.779v0.3H10.809z"/>
		<path fill="#1D1D1B" d="M11.258,5.83h-0.15c0-2.938-2.391-5.329-5.328-5.329c-2.939,0-5.33,2.391-5.33,5.329h-0.15
			c0-3.021,2.459-5.479,5.48-5.479S11.258,2.809,11.258,5.83z"/>
	</g>
	<g>
		<path fill="none" stroke="#1D1D1B" stroke-width="0.25" stroke-miterlimit="10" d="M5.779,5.77"/>
		<path fill="none" stroke="#1D1D1B" stroke-width="0.25" stroke-miterlimit="10" d="M5.779,5.77"/>
	</g>
	<g>
		<path fill="#1D1D1B" d="M5.779,22.369C2.592,22.369,0,19.776,0,16.589v-0.3h0.75v0.3c0,2.772,2.256,5.028,5.029,5.028h0.299v0.751
			H5.779z"/>
		<path fill="#1D1D1B" d="M5.779,22.069c-3.021,0-5.48-2.458-5.48-5.479h0.15c0,2.938,2.391,5.329,5.33,5.329V22.069z"/>
	</g>
	<g>
		<path fill="#1D1D1B" d="M5.479,22.369v-0.751h0.3c2.773,0,5.029-2.256,5.029-5.028v-0.3h0.751v0.3c0,3.187-2.594,5.779-5.78,5.779
			H5.479z"/>
		<path fill="#1D1D1B" d="M5.778,22.069v-0.15c2.938,0,5.329-2.391,5.329-5.329h0.15C11.258,19.611,8.8,22.069,5.778,22.069z"/>
	</g>
	<g>
		<rect y="5.53" fill="#1D1D1B" width="0.75" height="11.409"/>
		<rect x="0.299" y="5.83" fill="#1D1D1B" width="0.15" height="10.809"/>
	</g>
	<g>
		<rect x="119.754" y="16.35" fill="#1D1D1B" width="0.751" height="6.004"/>
		<rect x="120.055" y="16.649" fill="#1D1D1B" width="0.15" height="5.406"/>
	</g>
	<g>
		<path fill="#1D1D1B" d="M114.424,22.43v-0.752h0.301c2.773,0,5.029-2.256,5.029-5.029V16.35h0.751v0.299
			c0,3.188-2.593,5.781-5.78,5.781H114.424z"/>
		<path fill="#1D1D1B" d="M114.725,22.129v-0.15c2.939,0,5.33-2.391,5.33-5.33h0.15C120.205,19.671,117.746,22.129,114.725,22.129z"
			/>
	</g>
	<g>
		<path fill="#1D1D1B" d="M119.754,16.95v-0.3c0-2.773-2.256-5.029-5.029-5.029h-0.301v-0.75h0.301c3.188,0,5.78,2.592,5.78,5.779
			v0.3H119.754z"/>
		<path fill="#1D1D1B" d="M120.205,16.65h-0.15c0-2.939-2.391-5.329-5.33-5.329v-0.15C117.746,11.171,120.205,13.628,120.205,16.65z
			"/>
	</g>
	<g>
		<path fill="#1D1D1B" d="M114.725,22.43c-3.186,0-5.779-2.594-5.779-5.781V16.35h0.75v0.299c0,2.773,2.258,5.029,5.029,5.029h0.301
			v0.752H114.725z"/>
		<path fill="#1D1D1B" d="M114.725,22.129c-3.021,0-5.479-2.458-5.479-5.48h0.149c0,2.939,2.392,5.33,5.329,5.33V22.129z"/>
	</g>
	<g>
		<path fill="#1D1D1B" d="M108.945,16.95v-0.3c0-3.187,2.593-5.779,5.779-5.779h0.301v0.75h-0.301c-2.772,0-5.029,2.255-5.029,5.029
			v0.3H108.945z"/>
		<path fill="#1D1D1B" d="M109.395,16.65h-0.148c0-3.021,2.457-5.479,5.479-5.479v0.15C111.787,11.321,109.395,13.711,109.395,16.65
			z"/>
	</g>
	<g>
		<path fill="#1D1D1B" d="M122.463,16.95v-0.3c0-3.187,2.594-5.779,5.78-5.779h0.3v0.75h-0.3c-2.773,0-5.029,2.255-5.029,5.029v0.3
			H122.463z"/>
		<path fill="#1D1D1B" d="M122.914,16.65h-0.15c0-3.021,2.459-5.479,5.479-5.479v0.15C125.305,11.321,122.914,13.711,122.914,16.65z
			"/>
	</g>
	<g>
		<rect x="122.463" y="10.945" fill="#1D1D1B" width="0.751" height="11.41"/>
		<rect x="122.764" y="11.246" fill="#1D1D1B" width="0.15" height="10.81"/>
	</g>
	<g>
		<path fill="#1D1D1B" d="M54.289,16.95v-0.3c0-3.187,2.592-5.779,5.779-5.779h0.301v0.75h-0.301c-2.773,0-5.029,2.255-5.029,5.029
			v0.3H54.289z"/>
		<path fill="#1D1D1B" d="M54.738,16.65H54.59c0-3.021,2.457-5.479,5.479-5.479v0.15C57.131,11.321,54.738,13.711,54.738,16.65z"/>
	</g>
	<g>
		<path fill="#1D1D1B" d="M65.098,16.95v-0.3c0-2.773-2.256-5.029-5.029-5.029h-0.301v-0.75h0.301c3.188,0,5.779,2.592,5.779,5.779
			v0.3H65.098z"/>
		<path fill="#1D1D1B" d="M65.548,16.65h-0.15c0-2.939-2.392-5.329-5.329-5.329v-0.15C63.09,11.171,65.548,13.628,65.548,16.65z"/>
	</g>
	<g>
		<rect x="54.289" y="10.945" fill="#1D1D1B" width="0.75" height="11.41"/>
		<rect x="54.59" y="11.246" fill="#1D1D1B" width="0.148" height="10.81"/>
	</g>
	<g>
		<rect x="65.098" y="16.35" fill="#1D1D1B" width="0.751" height="6.004"/>
		<rect x="65.398" y="16.649" fill="#1D1D1B" width="0.15" height="5.406"/>
	</g>
	<g>
		<path fill="#1D1D1B" d="M18.175,22.428v-0.75h0.301c2.773,0,5.028-2.256,5.028-5.029v-0.301h0.752v0.301
			c0,3.188-2.594,5.779-5.78,5.779H18.175z"/>
		<path fill="#1D1D1B" d="M18.476,22.129v-0.151c2.938,0,5.329-2.391,5.329-5.329h0.15C23.955,19.67,21.497,22.129,18.476,22.129z"
			/>
	</g>
	<g>
		<path fill="#1D1D1B" d="M18.477,22.428c-3.188,0-5.78-2.592-5.78-5.779v-0.301h0.751v0.301c0,2.773,2.256,5.029,5.029,5.029h0.301
			v0.75H18.477z"/>
		<path fill="#1D1D1B" d="M18.477,22.129c-3.021,0-5.48-2.459-5.48-5.48h0.15c0,2.938,2.391,5.329,5.33,5.329V22.129z"/>
	</g>
	<g>
		<rect x="23.504" y="10.944" fill="#1D1D1B" width="0.752" height="11.41"/>
		<rect x="23.805" y="11.245" fill="#1D1D1B" width="0.15" height="10.809"/>
	</g>
	<g>
		<rect x="12.695" y="10.944" fill="#1D1D1B" width="0.751" height="6.005"/>
		<rect x="12.996" y="11.245" fill="#1D1D1B" width="0.149" height="5.404"/>
	</g>
	<g>
		<rect x="138.678" y="5.541" fill="#1D1D1B" width="0.75" height="11.409"/>
		<rect x="138.978" y="5.842" fill="#1D1D1B" width="0.149" height="10.808"/>
	</g>
	<g>
		<path fill="#1D1D1B" d="M138.677,16.95v-0.3c0-2.772-2.256-5.029-5.029-5.029h-0.3v-0.75h0.3c3.188,0,5.78,2.592,5.78,5.779v0.3
			H138.677z"/>
		<path fill="#1D1D1B" d="M139.127,16.65h-0.149c0-2.938-2.392-5.329-5.33-5.329v-0.15C136.669,11.171,139.127,13.629,139.127,16.65
			z"/>
	</g>
	<g>
		<path fill="#1D1D1B" d="M133.348,22.43v-0.752h0.301c2.773,0,5.029-2.256,5.029-5.028v-0.3h0.75v0.3
			c0,3.187-2.592,5.78-5.779,5.78H133.348z"/>
		<path fill="#1D1D1B" d="M133.648,22.129v-0.15c2.938,0,5.329-2.391,5.329-5.329h0.149
			C139.127,19.671,136.67,22.129,133.648,22.129z"/>
	</g>
	<g>
		<path fill="#1D1D1B" d="M127.869,16.95v-0.3c0-3.187,2.592-5.779,5.779-5.779h0.301v0.75h-0.301c-2.773,0-5.029,2.256-5.029,5.029
			v0.3H127.869z"/>
		<path fill="#1D1D1B" d="M128.319,16.65h-0.151c0-3.021,2.459-5.479,5.48-5.479v0.15C130.709,11.321,128.319,13.711,128.319,16.65z
			"/>
	</g>
	<g>
		<path fill="#1D1D1B" d="M133.648,22.43c-3.188,0-5.781-2.594-5.781-5.78v-0.3h0.752v0.3c0,2.772,2.256,5.028,5.029,5.028h0.3
			v0.752H133.648z"/>
		<path fill="#1D1D1B" d="M133.648,22.129c-3.021,0-5.48-2.458-5.48-5.479h0.15c0,2.938,2.391,5.329,5.33,5.329V22.129z"/>
	</g>
	<g>
		<rect x="78.531" y="16.239" fill="#1D1D1B" width="0.75" height="6.005"/>
		<rect x="78.831" y="16.54" fill="#1D1D1B" width="0.15" height="5.403"/>
	</g>
	<g>
		<path fill="#1D1D1B" d="M78.53,16.838V16.54c0-2.774-2.255-5.03-5.028-5.03h-0.301v-0.75h0.301c3.187,0,5.779,2.593,5.779,5.781
			v0.299H78.53z"/>
		<path fill="#1D1D1B" d="M78.981,16.54h-0.15c0-2.938-2.391-5.331-5.329-5.331v-0.15C76.523,11.059,78.981,13.518,78.981,16.54z"/>
	</g>
	<g>
		<path fill="#1D1D1B" d="M73.201,22.319v-0.75h0.301c2.773,0,5.029-2.257,5.029-5.029v-0.301h0.75v0.301
			c0,3.186-2.592,5.779-5.779,5.779H73.201z"/>
		<path fill="#1D1D1B" d="M73.502,22.018v-0.149c2.938,0,5.329-2.392,5.329-5.329h0.15C78.981,19.56,76.523,22.018,73.502,22.018z"
			/>
	</g>
	<g>
		<path fill="#1D1D1B" d="M73.201,27.723v-0.752h0.301c2.773,0,5.029-2.255,5.029-5.028v-0.3h0.75v0.3
			c0,3.188-2.592,5.78-5.779,5.78H73.201z"/>
		<path fill="#1D1D1B" d="M73.502,27.423v-0.151c2.938,0,5.329-2.391,5.329-5.329h0.15C78.981,24.965,76.523,27.423,73.502,27.423z"
			/>
	</g>
	<g>
		<path fill="#1D1D1B" d="M67.723,16.838V16.54c0-3.188,2.592-5.781,5.779-5.781h0.301v0.75h-0.301c-2.773,0-5.029,2.256-5.029,5.03
			v0.299H67.723z"/>
		<path fill="#1D1D1B" d="M68.172,16.54h-0.148c0-3.022,2.457-5.48,5.479-5.48v0.15C70.563,11.209,68.172,13.601,68.172,16.54z"/>
	</g>
	<g>
		<path fill="#1D1D1B" d="M73.502,22.319c-3.188,0-5.779-2.594-5.779-5.779v-0.301h0.75v0.301c0,2.772,2.256,5.029,5.029,5.029
			h0.301v0.75H73.502z"/>
		<path fill="#1D1D1B" d="M73.502,22.018c-3.021,0-5.479-2.458-5.479-5.479h0.148c0,2.938,2.392,5.329,5.33,5.329V22.018z"/>
	</g>
	<g>
		<path fill="#1D1D1B" d="M106.843,16.95v-0.3c0-2.773-2.256-5.029-5.029-5.029h-0.301v-0.75h0.301c3.187,0,5.78,2.592,5.78,5.779
			v0.3H106.843z"/>
		<path fill="#1D1D1B" d="M107.294,16.65h-0.15c0-2.939-2.392-5.329-5.33-5.329v-0.15C104.836,11.171,107.294,13.628,107.294,16.65z
			"/>
	</g>
	<g>
		<path fill="#1D1D1B" d="M101.514,22.43v-0.752h0.3c2.773,0,5.029-2.256,5.029-5.029V16.35h0.751v0.299
			c0,3.188-2.594,5.781-5.78,5.781H101.514z"/>
		<path fill="#1D1D1B" d="M101.813,22.129v-0.15c2.938,0,5.33-2.391,5.33-5.33h0.15C107.294,19.671,104.836,22.129,101.813,22.129z"
			/>
	</g>
	<g>
		<path fill="#1D1D1B" d="M96.035,16.95v-0.3c0-3.187,2.592-5.779,5.779-5.779h0.3v0.75h-0.3c-2.773,0-5.029,2.255-5.029,5.029v0.3
			H96.035z"/>
		<path fill="#1D1D1B" d="M96.484,16.65h-0.148c0-3.021,2.457-5.479,5.479-5.479v0.15C98.875,11.321,96.484,13.711,96.484,16.65z"/>
	</g>
	<g>
		<path fill="#1D1D1B" d="M101.813,22.43c-3.187,0-5.778-2.594-5.778-5.781V16.35h0.75v0.299c0,2.773,2.256,5.029,5.028,5.029h0.301
			v0.752H101.813z"/>
		<path fill="#1D1D1B" d="M101.813,22.129c-3.021,0-5.479-2.458-5.479-5.48h0.15c0,2.939,2.391,5.33,5.329,5.33V22.129z"/>
	</g>
	<g>
		<path fill="#1D1D1B" d="M88.803,11.56v-0.75h0.301c2.773,0,5.029-2.257,5.029-5.029V5.479h0.75V5.78
			c0,3.187-2.593,5.779-5.779,5.779H88.803z"/>
		<path fill="#1D1D1B" d="M89.104,11.26v-0.15c2.938,0,5.329-2.392,5.329-5.33h0.149C94.582,8.802,92.125,11.26,89.104,11.26z"/>
	</g>
	<g>
		<path fill="#1D1D1B" d="M94.133,16.889v-0.3c0-2.773-2.256-5.03-5.029-5.03h-0.301v-0.75h0.301c3.187,0,5.779,2.593,5.779,5.78
			v0.3H94.133z"/>
		<path fill="#1D1D1B" d="M94.582,16.589h-0.149c0-2.938-2.392-5.33-5.329-5.33v-0.15C92.125,11.11,94.582,13.567,94.582,16.589z"/>
	</g>
	<g>
		<path fill="#1D1D1B" d="M94.133,6.081v-0.3c0-2.773-2.256-5.029-5.029-5.029h-0.301V0h0.301c3.187,0,5.779,2.593,5.779,5.78v0.3
			H94.133z"/>
		<path fill="#1D1D1B" d="M94.583,5.78h-0.149c0-2.938-2.393-5.33-5.33-5.33V0.3C92.125,0.3,94.583,2.759,94.583,5.78z"/>
	</g>
	<g>
		<polygon fill="#1D1D1B" points="83.348,22.369 83.348,21.618 94.133,21.618 94.133,16.239 94.883,16.239 94.883,22.369 		"/>
		<polygon fill="#1D1D1B" points="94.583,22.069 83.648,22.069 83.648,21.918 94.434,21.918 94.434,16.54 94.583,16.54 		"/>
	</g>
	<g>
		<rect x="83.398" y="10.81" fill="#1D1D1B" width="6.005" height="0.75"/>
		<rect x="83.699" y="11.11" fill="#1D1D1B" width="5.404" height="0.15"/>
	</g>
	<g>
		<path fill="none" stroke="#1D1D1B" stroke-width="0.25" stroke-miterlimit="10" d="M89.054,5.77"/>
		<path fill="none" stroke="#1D1D1B" stroke-width="0.25" stroke-miterlimit="10" d="M89.054,5.77"/>
	</g>
	<g>
		<polygon fill="#1D1D1B" points="83.273,22.294 83.273,0 89.403,0 89.403,0.751 84.023,0.751 84.023,22.294 		"/>
		<polygon fill="#1D1D1B" points="83.724,21.994 83.574,21.994 83.574,0.3 89.104,0.3 89.104,0.451 83.724,0.451 		"/>
	</g>
	<g>
		<path fill="#1D1D1B" d="M36.148,22.428c-3.188,0-5.779-2.592-5.779-5.779v-0.301h0.75v0.301c0,2.773,2.256,5.029,5.029,5.029
			h0.301v0.75H36.148z"/>
		<path fill="#1D1D1B" d="M36.148,22.129c-3.021,0-5.48-2.459-5.48-5.48h0.15c0,2.939,2.392,5.329,5.33,5.329V22.129z"/>
	</g>
	<g>
		<rect x="30.368" y="5.541" fill="#1D1D1B" width="0.751" height="11.409"/>
		<rect x="30.668" y="5.841" fill="#1D1D1B" width="0.15" height="10.809"/>
	</g>
	<g>
		<rect x="25.039" y="10.87" fill="#1D1D1B" width="11.41" height="0.75"/>
		<rect x="25.34" y="11.169" fill="#1D1D1B" width="10.809" height="0.15"/>
	</g>
	<g>
		<path fill="#1D1D1B" d="M46.957,22.428c-3.187,0-5.779-2.592-5.779-5.779v-0.301h0.75v0.301c0,2.773,2.257,5.029,5.029,5.029
			h0.301v0.75H46.957z"/>
		<path fill="#1D1D1B" d="M46.957,22.129c-3.021,0-5.479-2.459-5.479-5.48h0.15c0,2.939,2.391,5.329,5.328,5.329V22.129z"/>
	</g>
	<g>
		<rect x="41.178" y="5.541" fill="#1D1D1B" width="0.75" height="11.409"/>
		<rect x="41.478" y="5.841" fill="#1D1D1B" width="0.15" height="10.809"/>
	</g>
	<g>
		<rect x="35.848" y="10.87" fill="#1D1D1B" width="11.41" height="0.75"/>
		<rect x="36.148" y="11.169" fill="#1D1D1B" width="10.809" height="0.15"/>
	</g>
	<g>
		<rect x="49.584" y="10.884" fill="#1D1D1B" width="0.75" height="11.41"/>
		<rect x="49.885" y="11.185" fill="#1D1D1B" width="0.15" height="10.809"/>
	</g>
	<g>
		<rect x="49.584" y="5.479" fill="#1D1D1B" width="0.75" height="3.303"/>
		<rect x="49.885" y="5.78" fill="#1D1D1B" width="0.15" height="2.703"/>
	</g>
</g>
</svg>
