<?xml version="1.0" encoding="utf-8"?>
<!-- Generator: Adobe Illustrator 15.0.0, SVG Export Plug-In . SVG Version: 6.00 Build 0)  -->
<!DOCTYPE svg PUBLIC "-//W3C//DTD SVG 1.1//EN" "http://www.w3.org/Graphics/SVG/1.1/DTD/svg11.dtd">
<svg version="1.1" id="Layer_1" xmlns="http://www.w3.org/2000/svg" xmlns:xlink="http://www.w3.org/1999/xlink" x="0px" y="0px"
	 width="40.288px" height="22.581px" viewBox="0 0 40.288 22.581" enable-background="new 0 0 40.288 22.581" xml:space="preserve">
<g>
	<g>
		<rect x="14.253" y="16.293" fill="#1D1D1B" width="11.516" height="0.754"/>
		<rect x="14.555" y="16.596" fill="#1D1D1B" width="10.912" height="0.15"/>
	</g>
	<g>
		<path fill="#1D1D1B" d="M25.041,6.16V5.859c0-2.788-2.269-5.054-5.055-5.054s-5.054,2.267-5.054,5.054V6.16h-0.755V5.859
			c0-3.203,2.606-5.809,5.809-5.809c3.201,0,5.809,2.605,5.809,5.809V6.16H25.041z"/>
		<path fill="#1D1D1B" d="M25.492,5.859h-0.151c0-2.954-2.402-5.356-5.354-5.356c-2.954,0-5.356,2.402-5.356,5.356h-0.15
			c0-3.037,2.469-5.507,5.507-5.507C23.022,0.352,25.492,2.822,25.492,5.859z"/>
	</g>
	<g>
		<path fill="none" stroke="#1D1D1B" stroke-width="0.25" stroke-miterlimit="10" d="M19.986,5.798"/>
		<path fill="none" stroke="#1D1D1B" stroke-width="0.25" stroke-miterlimit="10" d="M19.986,5.798"/>
	</g>
	<g>
		<rect x="14.178" y="5.506" fill="#1D1D1B" width="0.755" height="16.896"/>
		<rect x="14.479" y="5.808" fill="#1D1D1B" width="0.15" height="16.294"/>
	</g>
	<g>
		<rect x="25.041" y="5.506" fill="#1D1D1B" width="0.754" height="16.896"/>
		<rect x="25.341" y="5.808" fill="#1D1D1B" width="0.151" height="16.294"/>
	</g>
	<g>
		<rect x="0.025" y="16.293" fill="#1D1D1B" width="11.517" height="0.754"/>
		<rect x="0.327" y="16.596" fill="#1D1D1B" width="10.913" height="0.15"/>
	</g>
	<g>
		<path fill="#1D1D1B" d="M10.862,6.11V5.808c0-2.788-2.266-5.054-5.055-5.054H5.507V0h0.301c3.204,0,5.81,2.605,5.81,5.808V6.11
			H10.862z"/>
		<path fill="#1D1D1B" d="M11.316,5.808h-0.152c0-2.953-2.401-5.355-5.356-5.355V0.302C8.846,0.302,11.316,2.772,11.316,5.808z"/>
	</g>
	<g>
		<rect x="0.076" fill="#1D1D1B" width="6.035" height="0.754"/>
		<rect x="0.377" y="0.302" fill="#1D1D1B" width="5.431" height="0.151"/>
	</g>
	<g>
		<rect y="0.076" fill="#1D1D1B" width="0.756" height="22.327"/>
		<rect x="0.302" y="0.377" fill="#1D1D1B" width="0.152" height="21.725"/>
	</g>
	<g>
		<path fill="#1D1D1B" d="M39.432,6.11V5.808c0-2.788-2.267-5.054-5.055-5.054c-2.786,0-5.053,2.266-5.053,5.054V6.11H28.57V5.808
			C28.57,2.605,31.176,0,34.377,0c3.202,0,5.809,2.605,5.809,5.808V6.11H39.432z"/>
		<path fill="#1D1D1B" d="M39.885,5.808h-0.151c0-2.953-2.402-5.355-5.356-5.355c-2.952,0-5.354,2.402-5.354,5.355h-0.151
			c0-3.036,2.471-5.506,5.506-5.506C37.414,0.302,39.885,2.772,39.885,5.808z"/>
	</g>
	<g>
		<path fill="none" stroke="#1D1D1B" stroke-width="0.25" stroke-miterlimit="10" d="M34.377,5.748"/>
		<path fill="none" stroke="#1D1D1B" stroke-width="0.25" stroke-miterlimit="10" d="M34.377,5.748"/>
	</g>
	<g>
		<path fill="#1D1D1B" d="M34.377,22.428c-3.201,0-5.807-2.605-5.807-5.809v-0.301h0.754v0.301c0,2.787,2.267,5.055,5.053,5.055
			h0.304v0.754H34.377z"/>
		<path fill="#1D1D1B" d="M34.377,22.127c-3.035,0-5.506-2.471-5.506-5.508h0.151c0,2.955,2.402,5.355,5.354,5.355V22.127z"/>
	</g>
	<g>
		<path fill="#1D1D1B" d="M34.076,22.428v-0.754h0.301c2.788,0,5.055-2.268,5.055-5.055v-0.301h0.754v0.301
			c0,3.203-2.606,5.809-5.809,5.809H34.076z"/>
		<path fill="#1D1D1B" d="M34.377,22.127v-0.152c2.954,0,5.356-2.4,5.356-5.355h0.151C39.885,19.657,37.414,22.127,34.377,22.127z"
			/>
	</g>
	<g>
		<rect x="28.57" y="5.506" fill="#1D1D1B" width="0.754" height="11.467"/>
		<rect x="28.871" y="5.808" fill="#1D1D1B" width="0.151" height="10.862"/>
	</g>
	<g>
		<rect x="39.432" y="5.506" fill="#1D1D1B" width="0.754" height="11.406"/>
		<rect x="39.733" y="5.808" fill="#1D1D1B" width="0.151" height="10.802"/>
	</g>
	<g>
		
			<rect x="36.716" y="15.245" transform="matrix(-0.709 0.7052 -0.7052 -0.709 77.0637 6.9757)" fill="#1D1D1B" width="0.753" height="8.283"/>
		
			<rect x="33.254" y="19.312" transform="matrix(0.707 0.7072 -0.7072 0.707 24.5798 -20.5534)" fill="#1D1D1B" width="7.68" height="0.149"/>
	</g>
</g>
</svg>
