<?xml version="1.0" encoding="utf-8"?>
<!-- Generator: Adobe Illustrator 15.0.0, SVG Export Plug-In . SVG Version: 6.00 Build 0)  -->
<!DOCTYPE svg PUBLIC "-//W3C//DTD SVG 1.1//EN" "http://www.w3.org/Graphics/SVG/1.1/DTD/svg11.dtd">
<svg version="1.1" id="Layer_1" xmlns="http://www.w3.org/2000/svg" xmlns:xlink="http://www.w3.org/1999/xlink" x="0px" y="0px"
	 width="65.676px" height="27.875px" viewBox="0 0 65.676 27.875" enable-background="new 0 0 65.676 27.875" xml:space="preserve">
<g>
	<g>
		<rect x="5.527" y="16.305" fill="#1D1D1B" width="6.109" height="0.756"/>
		<rect x="5.831" y="16.608" fill="#1D1D1B" width="5.504" height="0.152"/>
	</g>
	<g>
		<path fill="#1D1D1B" d="M10.904,6.134V5.831c0-2.798-2.274-5.073-5.073-5.073c-2.797,0-5.072,2.275-5.072,5.073v0.303H0V5.831
			C0,2.616,2.616,0,5.831,0s5.83,2.616,5.83,5.831v0.303H10.904z"/>
		<path fill="#1D1D1B" d="M11.358,5.831h-0.151c0-2.965-2.411-5.376-5.376-5.376c-2.963,0-5.377,2.411-5.377,5.376h-0.15
			c0-3.048,2.48-5.528,5.527-5.528C8.881,0.303,11.358,2.783,11.358,5.831z"/>
	</g>
	<g>
		<path fill="none" stroke="#1D1D1B" stroke-width="0.25" stroke-miterlimit="10" d="M5.831,5.77"/>
		<path fill="none" stroke="#1D1D1B" stroke-width="0.25" stroke-miterlimit="10" d="M5.831,5.77"/>
	</g>
	<g>
		<path fill="#1D1D1B" d="M5.831,22.514C2.616,22.514,0,19.899,0,16.684v-0.303h0.759v0.303c0,2.797,2.275,5.072,5.072,5.072h0.303
			v0.758H5.831z"/>
		<path fill="#1D1D1B" d="M5.831,22.211c-3.047,0-5.527-2.48-5.527-5.527h0.15c0,2.965,2.414,5.377,5.377,5.377V22.211z"/>
	</g>
	<g>
		<path fill="#1D1D1B" d="M5.527,22.514v-0.758h0.304c2.797,0,5.073-2.275,5.073-5.072v-0.303h0.757v0.303
			c0,3.215-2.616,5.83-5.83,5.83H5.527z"/>
		<path fill="#1D1D1B" d="M5.831,22.211v-0.15c2.965,0,5.376-2.412,5.376-5.377h0.151C11.358,19.731,8.881,22.211,5.831,22.211z"/>
	</g>
	<g>
		<rect y="5.527" fill="#1D1D1B" width="0.759" height="11.51"/>
		<rect x="0.304" y="5.831" fill="#1D1D1B" width="0.15" height="10.904"/>
	</g>
	<g>
		<rect x="24.153" y="16.331" fill="#1D1D1B" width="0.755" height="6.057"/>
		<rect x="24.456" y="16.633" fill="#1D1D1B" width="0.149" height="5.453"/>
	</g>
	<g>
		<path fill="#1D1D1B" d="M18.774,22.463v-0.756h0.304c2.799,0,5.075-2.277,5.075-5.074v-0.303h0.755v0.303
			c0,3.217-2.615,5.83-5.83,5.83H18.774z"/>
		<path fill="#1D1D1B" d="M19.078,22.161v-0.15c2.966,0,5.378-2.412,5.378-5.377h0.149C24.605,19.682,22.127,22.161,19.078,22.161z"
			/>
	</g>
	<g>
		<path fill="#1D1D1B" d="M24.153,16.936v-0.303c0-2.797-2.275-5.072-5.075-5.072h-0.304v-0.758h0.304c3.216,0,5.83,2.616,5.83,5.83
			v0.303H24.153z"/>
		<path fill="#1D1D1B" d="M24.605,16.633h-0.149c0-2.964-2.411-5.375-5.378-5.375v-0.151C22.128,11.107,24.605,13.586,24.605,16.633
			z"/>
	</g>
	<g>
		<path fill="#1D1D1B" d="M19.078,22.463c-3.214,0-5.83-2.613-5.83-5.83v-0.303h0.758v0.303c0,2.797,2.276,5.074,5.072,5.074h0.304
			v0.756H19.078z"/>
		<path fill="#1D1D1B" d="M19.078,22.161c-3.046,0-5.526-2.479-5.526-5.527h0.151c0,2.965,2.412,5.377,5.375,5.377V22.161z"/>
	</g>
	<g>
		<path fill="#1D1D1B" d="M13.248,16.936v-0.303c0-3.214,2.616-5.83,5.83-5.83h0.304v0.758h-0.304c-2.796,0-5.073,2.275-5.073,5.072
			v0.303H13.248z"/>
		<path fill="#1D1D1B" d="M13.702,16.633h-0.15c0-3.047,2.48-5.526,5.526-5.526v0.151C16.115,11.258,13.702,13.669,13.702,16.633z"
			/>
	</g>
	<g>
		<rect x="27.079" y="5.477" fill="#1D1D1B" width="0.759" height="16.961"/>
		<rect x="27.382" y="5.781" fill="#1D1D1B" width="0.152" height="16.354"/>
	</g>
	<g>
		<rect x="29.504" y="5.477" fill="#1D1D1B" width="0.757" height="16.961"/>
		<rect x="29.806" y="5.781" fill="#1D1D1B" width="0.151" height="16.354"/>
	</g>
	<g>
		<path fill="#1D1D1B" d="M46.463,16.926v-0.303c0-3.215,2.616-5.832,5.833-5.832h0.303v0.757h-0.303
			c-2.798,0-5.073,2.276-5.073,5.074v0.303H46.463z"/>
		<path fill="#1D1D1B" d="M46.921,16.624h-0.154c0-3.049,2.479-5.528,5.529-5.528v0.152C49.332,11.247,46.921,13.659,46.921,16.624z
			"/>
	</g>
	<g>
		<rect x="46.463" y="10.868" fill="#1D1D1B" width="0.76" height="11.509"/>
		<rect x="46.767" y="11.171" fill="#1D1D1B" width="0.154" height="10.903"/>
	</g>
	<g>
		<path fill="#1D1D1B" d="M59.543,22.424v-0.758h0.302c2.798,0,5.074-2.275,5.074-5.074V16.29h0.757v0.303
			c0,3.217-2.616,5.832-5.831,5.832H59.543z"/>
		<path fill="#1D1D1B" d="M59.845,22.122v-0.152c2.964,0,5.376-2.412,5.376-5.377h0.152C65.373,19.641,62.894,22.122,59.845,22.122z
			"/>
	</g>
	<g>
		<path fill="#1D1D1B" d="M59.543,27.875v-0.758h0.302c2.798,0,5.074-2.273,5.074-5.074v-0.301h0.757v0.301
			c0,3.217-2.616,5.832-5.831,5.832H59.543z"/>
		<path fill="#1D1D1B" d="M59.845,27.573V27.42c2.964,0,5.376-2.41,5.376-5.377h0.152C65.373,25.092,62.894,27.573,59.845,27.573z"
			/>
	</g>
	<g>
		<path fill="#1D1D1B" d="M59.847,22.424c-3.217,0-5.832-2.615-5.832-5.832V16.29h0.757v0.303c0,2.799,2.276,5.074,5.075,5.074
			h0.302v0.758H59.847z"/>
		<path fill="#1D1D1B" d="M59.847,22.122c-3.049,0-5.529-2.48-5.529-5.529h0.152c0,2.965,2.411,5.377,5.377,5.377V22.122z"/>
	</g>
	<g>
		<rect x="64.919" y="10.838" fill="#1D1D1B" width="0.757" height="11.508"/>
		<rect x="65.221" y="11.141" fill="#1D1D1B" width="0.152" height="10.902"/>
	</g>
	<g>
		<rect x="54.015" y="10.838" fill="#1D1D1B" width="0.757" height="6.057"/>
		<rect x="54.317" y="11.142" fill="#1D1D1B" width="0.152" height="5.451"/>
	</g>
	<g>
		<path fill="#1D1D1B" d="M32.533,16.936v-0.303c0-3.215,2.614-5.831,5.828-5.831h0.306v0.758h-0.306
			c-2.795,0-5.072,2.276-5.072,5.073v0.303H32.533z"/>
		<path fill="#1D1D1B" d="M32.985,16.633h-0.151c0-3.047,2.48-5.527,5.527-5.527v0.151C35.398,11.257,32.985,13.669,32.985,16.633z"
			/>
	</g>
	<g>
		<path fill="#1D1D1B" d="M38.361,22.463c-3.214,0-5.828-2.615-5.828-5.83v-0.303h0.756v0.303c0,2.797,2.275,5.072,5.072,5.072
			h0.306v0.758H38.361z"/>
		<path fill="#1D1D1B" d="M38.361,22.161c-3.047,0-5.527-2.479-5.527-5.527h0.151c0,2.965,2.413,5.377,5.376,5.377V22.161z"/>
	</g>
	<g>
		<path fill="#1D1D1B" d="M43.438,16.936v-0.303c0-2.797-2.276-5.073-5.076-5.073h-0.301v-0.758h0.301
			c3.217,0,5.832,2.615,5.832,5.831v0.303H43.438z"/>
		<path fill="#1D1D1B" d="M43.891,16.633h-0.151c0-2.964-2.412-5.376-5.378-5.376v-0.151C41.41,11.106,43.891,13.586,43.891,16.633z
			"/>
	</g>
	<g>
		<rect x="32.607" y="16.254" fill="#1D1D1B" width="11.51" height="0.758"/>
		<rect x="32.911" y="16.558" fill="#1D1D1B" width="10.903" height="0.15"/>
	</g>
</g>
</svg>
