<?xml version="1.0" encoding="utf-8"?>
<!-- Generator: Adobe Illustrator 15.0.0, SVG Export Plug-In . SVG Version: 6.00 Build 0)  -->
<!DOCTYPE svg PUBLIC "-//W3C//DTD SVG 1.1//EN" "http://www.w3.org/Graphics/SVG/1.1/DTD/svg11.dtd">
<svg version="1.1" id="Layer_1" xmlns="http://www.w3.org/2000/svg" xmlns:xlink="http://www.w3.org/1999/xlink" x="0px" y="0px"
	 width="51.253px" height="22.659px" viewBox="0 0 51.253 22.659" enable-background="new 0 0 51.253 22.659" xml:space="preserve">
<g>
	<g>
		<path fill="#1D1D1B" d="M50.485,14.268v-0.307c0-1.284-2.358-2.37-5.15-2.37c-2.789,0-5.148,1.086-5.148,2.37v0.307h-0.77v-0.307
			c0-1.76,2.6-3.138,5.918-3.138c3.32,0,5.919,1.378,5.919,3.138v0.307H50.485z"/>
		<path fill="#1D1D1B" d="M50.946,13.961h-0.153c0-1.477-2.449-2.677-5.458-2.677c-3.008,0-5.456,1.2-5.456,2.677h-0.154
			c0-1.561,2.517-2.831,5.61-2.831C48.43,11.13,50.946,12.401,50.946,13.961z"/>
	</g>
	<g>
		<path fill="none" stroke="#1D1D1B" stroke-width="0.25" stroke-miterlimit="10" d="M45.334,13.931"/>
		<path fill="none" stroke="#1D1D1B" stroke-width="0.25" stroke-miterlimit="10" d="M45.334,13.931"/>
	</g>
	<g>
		<path fill="#1D1D1B" d="M45.334,22.609c-3.318,0-5.918-1.38-5.918-3.141v-0.307h0.77v0.307c0,1.285,2.359,2.371,5.148,2.371
			c2.792,0,5.15-1.086,5.15-2.371v-0.307h0.769v0.307C51.253,21.229,48.655,22.609,45.334,22.609z"/>
		<path fill="#1D1D1B" d="M45.334,22.3c-3.094,0-5.61-1.271-5.61-2.832h0.154c0,1.478,2.448,2.679,5.456,2.679
			c3.009,0,5.458-1.201,5.458-2.679h0.153C50.946,21.03,48.43,22.3,45.334,22.3z"/>
	</g>
	<g>
		<path fill="none" stroke="#1D1D1B" stroke-width="0.25" stroke-miterlimit="10" d="M45.334,19.5"/>
		<path fill="none" stroke="#1D1D1B" stroke-width="0.25" stroke-miterlimit="10" d="M45.334,19.5"/>
	</g>
	<g>
		<path fill="#1D1D1B" d="M50.485,19.777v-0.309c0-1.283-2.358-2.369-5.15-2.369h-0.307v-0.768h0.307
			c3.32,0,5.919,1.378,5.919,3.137v0.309H50.485z"/>
		<path fill="#1D1D1B" d="M50.946,19.468h-0.153c0-1.475-2.449-2.676-5.458-2.676v-0.154C48.43,16.638,50.946,17.908,50.946,19.468z
			"/>
	</g>
	<g>
		<path fill="#1D1D1B" d="M45.334,17.099c-3.318,0-5.918-1.379-5.918-3.138v-0.308h0.77v0.308c0,1.285,2.359,2.37,5.148,2.37h0.308
			v0.768H45.334z"/>
		<path fill="#1D1D1B" d="M45.334,16.792c-3.094,0-5.61-1.27-5.61-2.831h0.154c0,1.476,2.448,2.677,5.456,2.677V16.792z"/>
	</g>
	<polygon fill="#1D1D1B" points="11.951,22.541 11.951,0 11.182,0 11.182,20.597 0.892,0 0.167,0 0.167,22.531 0.933,22.531 
		0.933,1.818 11.285,22.541 	"/>
	<g>
		<path fill="#1D1D1B" d="M13.21,17.048v-0.307c0-3.265,2.656-5.92,5.918-5.92h0.308v0.77h-0.308c-2.839,0-5.149,2.31-5.149,5.15
			v0.307H13.21z"/>
		<path fill="#1D1D1B" d="M13.672,16.742h-0.154c0-3.096,2.519-5.611,5.61-5.611v0.152C16.122,11.283,13.672,13.732,13.672,16.742z"
			/>
	</g>
	<g>
		<path fill="#1D1D1B" d="M19.128,22.658c-3.262,0-5.918-2.654-5.918-5.918v-0.307h0.769v0.307c0,2.84,2.311,5.149,5.149,5.149
			h0.308v0.769H19.128z"/>
		<path fill="#1D1D1B" d="M19.128,22.35c-3.092,0-5.61-2.516-5.61-5.61h0.154c0,3.01,2.449,5.457,5.456,5.457V22.35z"/>
	</g>
	<g>
		<path fill="#1D1D1B" d="M24.279,17.048v-0.307c0-2.841-2.311-5.15-5.15-5.15h-0.307v-0.77h0.307c3.265,0,5.919,2.655,5.919,5.92
			v0.307H24.279z"/>
		<path fill="#1D1D1B" d="M24.741,16.742h-0.154c0-3.01-2.447-5.459-5.458-5.459V11.13C22.223,11.13,24.741,13.646,24.741,16.742z"
			/>
	</g>
	<g>
		<rect x="13.289" y="16.355" fill="#1D1D1B" width="11.682" height="0.77"/>
		<rect x="13.595" y="16.664" fill="#1D1D1B" width="11.067" height="0.153"/>
	</g>
	<polygon fill="#1D1D1B" points="38.006,22.541 38.006,10.911 37.238,10.911 37.238,21.358 32.141,16.263 32.141,16.263 
		32.034,16.263 26.939,21.358 26.939,10.911 26.17,10.911 26.17,22.541 26.848,22.541 32.088,17.294 37.336,22.541 	"/>
</g>
</svg>
