<?xml version="1.0" encoding="utf-8"?>
<!-- Generator: Adobe Illustrator 15.0.0, SVG Export Plug-In . SVG Version: 6.00 Build 0)  -->
<!DOCTYPE svg PUBLIC "-//W3C//DTD SVG 1.1//EN" "http://www.w3.org/Graphics/SVG/1.1/DTD/svg11.dtd">
<svg version="1.1" id="Layer_1" xmlns="http://www.w3.org/2000/svg" xmlns:xlink="http://www.w3.org/1999/xlink" x="0px" y="0px"
	 width="186.063px" height="28.154px" viewBox="0 0 186.063 28.154" enable-background="new 0 0 186.063 28.154"
	 xml:space="preserve">
<g>
	<g>
		<g>
			<path fill="#1D1D1B" d="M113.18,5.961V5.664c0-2.751-2.238-4.989-4.99-4.989h-0.299v-0.745h0.299
				c3.162,0,5.734,2.573,5.734,5.734v0.297H113.18z"/>
			<path fill="#1D1D1B" d="M113.625,5.664h-0.148c0-2.916-2.371-5.288-5.287-5.288V0.227C111.188,0.227,113.625,2.666,113.625,5.664
				z"/>
		</g>
		<g>
			<path fill="#1D1D1B" d="M107.891,22.121v-0.745h0.299c2.752,0,4.99-2.238,4.99-4.988v-0.299h0.744v0.299
				c0,3.16-2.572,5.733-5.734,5.733H107.891z"/>
			<path fill="#1D1D1B" d="M108.189,21.823v-0.148c2.916,0,5.287-2.373,5.287-5.287h0.148
				C113.625,19.383,111.188,21.823,108.189,21.823z"/>
		</g>
		<g>
			<rect x="113.18" y="5.365" fill="#1D1D1B" width="0.744" height="11.319"/>
			<rect x="113.477" y="5.664" fill="#1D1D1B" width="0.148" height="10.724"/>
		</g>
		<g>
			<rect x="102.531" y="21.375" fill="#1D1D1B" width="5.957" height="0.745"/>
			<rect x="102.828" y="21.674" fill="#1D1D1B" width="5.361" height="0.148"/>
		</g>
		<g>
			<rect x="102.531" y="-0.071" fill="#1D1D1B" width="5.957" height="0.745"/>
			<rect x="102.828" y="0.227" fill="#1D1D1B" width="5.361" height="0.149"/>
		</g>
		<g>
			<rect x="102.455" y="0.004" fill="#1D1D1B" width="0.746" height="22.042"/>
			<rect x="102.754" y="0.302" fill="#1D1D1B" width="0.148" height="21.447"/>
		</g>
		<g>
			<path fill="#1D1D1B" d="M115.639,16.684v-0.297c0-3.162,2.572-5.735,5.732-5.735h0.299v0.745h-0.299
				c-2.75,0-4.988,2.238-4.988,4.99v0.297H115.639z"/>
			<path fill="#1D1D1B" d="M116.086,16.387h-0.15c0-2.998,2.439-5.437,5.436-5.437V11.1C118.457,11.1,116.086,13.471,116.086,16.387
				z"/>
		</g>
		<g>
			<path fill="#1D1D1B" d="M121.371,22.121c-3.162,0-5.732-2.573-5.732-5.733v-0.299h0.744v0.299c0,2.75,2.236,4.988,4.988,4.988
				h0.299v0.745H121.371z"/>
			<path fill="#1D1D1B" d="M121.371,21.823c-2.998,0-5.436-2.439-5.436-5.436h0.15c0,2.914,2.369,5.287,5.285,5.287V21.823z"/>
		</g>
		<g>
			<path fill="#1D1D1B" d="M126.361,16.684v-0.297c0-2.752-2.238-4.99-4.99-4.99h-0.297v-0.745h0.297
				c3.162,0,5.734,2.573,5.734,5.735v0.297H126.361z"/>
			<path fill="#1D1D1B" d="M126.807,16.387h-0.146c0-2.916-2.373-5.288-5.289-5.288v-0.149
				C124.369,10.951,126.807,13.39,126.807,16.387z"/>
		</g>
		<g>
			<rect x="115.713" y="16.014" fill="#1D1D1B" width="11.318" height="0.744"/>
			<rect x="116.01" y="16.312" fill="#1D1D1B" width="10.725" height="0.148"/>
		</g>
	</g>
	<rect x="21.98" y="16.122" fill="#1D1D1B" width="0.74" height="5.92"/>
	<rect x="22.277" y="16.417" fill="#1D1D1B" width="0.147" height="5.328"/>
	<path fill="#1D1D1B" d="M16.725,22.116v-0.74h0.297c2.734,0,4.959-2.225,4.959-4.958v-0.296h0.74v0.296
		c0,3.143-2.557,5.698-5.699,5.698H16.725z"/>
	<path fill="#1D1D1B" d="M17.021,21.819v-0.146c2.897,0,5.255-2.357,5.255-5.255h0.148C22.425,19.397,20,21.819,17.021,21.819z"/>
	<path fill="#1D1D1B" d="M21.98,16.715v-0.297c0-2.736-2.225-4.959-4.959-4.959h-0.296v-0.74h0.296c3.143,0,5.699,2.557,5.699,5.699
		v0.297H21.98z"/>
	<path fill="#1D1D1B" d="M22.425,16.418h-0.147c0-2.898-2.358-5.255-5.256-5.255v-0.147C20.001,11.016,22.425,13.439,22.425,16.418z
		"/>
	<path fill="#1D1D1B" d="M17.021,22.116c-3.141,0-5.697-2.556-5.697-5.698v-0.296h0.74v0.296c0,2.733,2.224,4.958,4.957,4.958h0.297
		v0.74H17.021z"/>
	<path fill="#1D1D1B" d="M17.021,21.819c-2.978,0-5.401-2.422-5.401-5.401h0.147c0,2.897,2.357,5.255,5.254,5.255V21.819z"/>
	<path fill="#1D1D1B" d="M11.324,16.715v-0.297c0-3.143,2.557-5.699,5.697-5.699h0.297v0.74h-0.297
		c-2.734,0-4.958,2.223-4.958,4.959v0.297H11.324z"/>
	<path fill="#1D1D1B" d="M11.768,16.418h-0.148c0-2.979,2.424-5.403,5.402-5.403v0.147C14.125,11.163,11.768,13.52,11.768,16.418z"
		/>
	<path fill="#1D1D1B" d="M10.658,6.007V5.711c0-2.735-2.225-4.959-4.959-4.959H5.403v-0.74h0.296c3.141,0,5.698,2.557,5.698,5.699
		v0.295H10.658z"/>
	<path fill="#1D1D1B" d="M11.102,5.711h-0.148c0-2.898-2.356-5.255-5.254-5.255V0.309C8.678,0.309,11.102,2.732,11.102,5.711z"/>
	<rect x="10.658" y="5.415" fill="#1D1D1B" width="0.739" height="5.92"/>
	<rect x="10.953" y="5.711" fill="#1D1D1B" width="0.148" height="5.329"/>
	<rect x="0.074" y="10.669" fill="#1D1D1B" width="11.25" height="0.74"/>
	<rect x="0.37" y="10.966" fill="#1D1D1B" width="10.657" height="0.147"/>
	<rect x="0.074" y="0.013" fill="#1D1D1B" width="5.921" height="0.74"/>
	<rect y="0.086" fill="#1D1D1B" width="0.74" height="21.906"/>
	<rect x="0.297" y="0.382" fill="#1D1D1B" width="0.146" height="21.315"/>
	<path fill="#1D1D1B" d="M50.967,22.153v-0.74h0.297c2.734,0,4.959-2.225,4.959-4.958v-0.296h0.74v0.296
		c0,3.141-2.558,5.698-5.699,5.698H50.967z"/>
	<path fill="#1D1D1B" d="M51.264,21.856v-0.147c2.896,0,5.255-2.357,5.255-5.254h0.147C56.666,19.432,54.242,21.856,51.264,21.856z"
		/>
	<path fill="#1D1D1B" d="M51.265,22.153c-3.143,0-5.699-2.558-5.699-5.698v-0.296h0.74v0.296c0,2.733,2.225,4.958,4.959,4.958h0.296
		v0.74H51.265z"/>
	<path fill="#1D1D1B" d="M51.265,21.942c-2.979,0-5.403-2.424-5.403-5.402h0.148c0,2.896,2.357,5.254,5.255,5.254V21.942z"/>
	<rect x="56.223" y="10.829" fill="#1D1D1B" width="0.74" height="11.25"/>
	<rect x="56.519" y="11.125" fill="#1D1D1B" width="0.147" height="10.657"/>
	<rect x="45.565" y="10.829" fill="#1D1D1B" width="0.739" height="5.921"/>
	<rect x="45.861" y="11.211" fill="#1D1D1B" width="0.147" height="5.329"/>
	<path fill="#1D1D1B" d="M79.799,22.067c-3.143,0-5.699-2.557-5.699-5.697v-0.297h0.74v0.297c0,2.733,2.225,4.957,4.959,4.957h0.295
		v0.74H79.799z"/>
	<path fill="#1D1D1B" d="M79.799,21.771c-2.979,0-5.402-2.424-5.402-5.401h0.146c0,2.896,2.359,5.254,5.256,5.254V21.771z"/>
	<rect x="74.1" y="5.415" fill="#1D1D1B" width="0.738" height="11.25"/>
	<rect x="74.396" y="5.711" fill="#1D1D1B" width="0.146" height="10.658"/>
	<rect x="68.845" y="10.669" fill="#1D1D1B" width="11.249" height="0.74"/>
	<rect x="69.142" y="10.966" fill="#1D1D1B" width="10.657" height="0.147"/>
	<path fill="#1D1D1B" d="M58.985,16.715v-0.297c0-3.143,2.556-5.699,5.698-5.699h0.297v0.74h-0.297
		c-2.735,0-4.959,2.224-4.959,4.959v0.297H58.985z"/>
	<path fill="#1D1D1B" d="M59.429,16.418h-0.147c0-2.979,2.424-5.403,5.402-5.403v0.147C61.785,11.163,59.429,13.521,59.429,16.418z"
		/>
	<path fill="#1D1D1B" d="M64.684,22.116c-3.143,0-5.699-2.556-5.699-5.697v-0.297h0.74v0.297c0,2.732,2.224,4.958,4.959,4.958h0.296
		v0.739H64.684z"/>
	<path fill="#1D1D1B" d="M64.684,21.821c-2.979,0-5.402-2.424-5.402-5.402h0.146c0,2.896,2.357,5.254,5.256,5.254V21.821z"/>
	<path fill="#1D1D1B" d="M69.642,16.715v-0.297c0-2.735-2.224-4.959-4.958-4.959h-0.297v-0.74h0.297
		c3.142,0,5.699,2.557,5.699,5.699v0.297H69.642z"/>
	<path fill="#1D1D1B" d="M70.085,16.418h-0.148c0-2.897-2.357-5.255-5.253-5.255v-0.147C67.662,11.016,70.085,13.439,70.085,16.418z
		"/>
	<rect x="59.059" y="16.048" fill="#1D1D1B" width="11.25" height="0.739"/>
	<rect x="59.355" y="16.344" fill="#1D1D1B" width="10.656" height="0.146"/>
	<path fill="#1D1D1B" d="M24.25,16.714v-0.297c0-3.142,2.557-5.698,5.698-5.698h0.296v0.74h-0.296c-2.733,0-4.958,2.224-4.958,4.958
		v0.297H24.25z"/>
	<path fill="#1D1D1B" d="M24.693,16.417h-0.147c0-2.979,2.423-5.403,5.402-5.403v0.148C27.052,11.163,24.693,13.52,24.693,16.417z"
		/>
	<rect x="24.25" y="10.792" fill="#1D1D1B" width="0.74" height="11.249"/>
	<rect x="24.546" y="11.089" fill="#1D1D1B" width="0.147" height="10.656"/>
	<rect x="40.236" y="10.792" fill="#1D1D1B" width="0.739" height="16.579"/>
	<rect x="40.531" y="11.089" fill="#1D1D1B" width="0.148" height="15.985"/>
	<path fill="#1D1D1B" d="M34.98,22.116v-0.74h0.297c2.733,0,4.959-2.225,4.959-4.959v-0.296h0.738v0.296
		c0,3.143-2.555,5.699-5.697,5.699H34.98z"/>
	<path fill="#1D1D1B" d="M35.277,21.819v-0.147c2.896,0,5.254-2.356,5.254-5.255h0.148C40.68,19.397,38.256,21.819,35.277,21.819z"
		/>
	<path fill="#1D1D1B" d="M35.277,22.116c-3.143,0-5.699-2.557-5.699-5.699v-0.296h0.74v0.296c0,2.734,2.225,4.959,4.959,4.959h0.295
		v0.74H35.277z"/>
	<path fill="#1D1D1B" d="M35.277,21.819c-2.979,0-5.402-2.422-5.402-5.402h0.148c0,2.898,2.357,5.255,5.254,5.255V21.819z"/>
	<path fill="#1D1D1B" d="M29.578,16.714v-0.297c0-3.142,2.557-5.698,5.699-5.698h0.295v0.74h-0.295
		c-2.734,0-4.959,2.224-4.959,4.958v0.297H29.578z"/>
	<path fill="#1D1D1B" d="M30.023,16.417h-0.148c0-2.979,2.423-5.403,5.402-5.403v0.148C32.381,11.163,30.023,13.52,30.023,16.417z"
		/>
	<rect x="34.98" y="10.719" fill="#1D1D1B" width="5.922" height="0.74"/>
	<rect x="35.277" y="11.015" fill="#1D1D1B" width="5.328" height="0.148"/>
	
		<rect x="39.206" y="24.04" transform="matrix(-0.7071 0.7071 -0.7071 -0.7071 91.1283 11.0747)" fill="#1D1D1B" width="8.129" height="0.742"/>
	
		<rect x="43.196" y="20.642" transform="matrix(0.7071 0.7071 -0.7071 0.7071 29.9346 -23.4472)" fill="#1D1D1B" width="0.149" height="7.536"/>
	<g>
		<path fill="#1D1D1B" d="M90.166,22.086c-2.178,0-3.951-1.771-3.951-3.951v-0.297h0.742v0.297c0,1.77,1.439,3.209,3.209,3.209
			h0.297v0.742H90.166z"/>
		<path fill="#1D1D1B" d="M86.215,14.85v-0.297c0-2.18,1.773-3.951,3.951-3.951h0.297v0.74h-0.297c-1.77,0-3.211,1.439-3.211,3.211
			v0.297H86.215z"/>
		<path fill="#1D1D1B" d="M89.869,22.086v-0.742h0.297c1.771,0,3.211-1.439,3.211-3.209v-0.297h0.742v0.297
			c0,2.18-1.773,3.951-3.953,3.951H89.869z"/>
		<path fill="#1D1D1B" d="M93.379,14.85v-0.297c0-1.771-1.441-3.211-3.211-3.211h-0.297v-0.74h0.297c2.18,0,3.953,1.771,3.953,3.951
			v0.297H93.379z"/>
		
			<rect x="90.591" y="11.552" transform="matrix(-0.4472 0.8944 -0.8944 -0.4472 146.6155 -57.13)" fill="#1D1D1B" width="0.742" height="10.379"/>
		
			<rect x="85.866" y="15.974" transform="matrix(-0.8945 0.4471 -0.4471 -0.8945 178.1268 -9.352)" fill="#1D1D1B" width="8.601" height="0.741"/>
		<rect x="93.377" y="16.221" fill="#1D1D1B" width="0.742" height="2.211"/>
	</g>
	<g>
		<path fill="#1D1D1B" d="M160.52,16.585v-0.198c0-3.334,2.713-6.046,6.045-6.046h0.199v0.646h-0.199
			c-2.977,0-5.398,2.422-5.398,5.399v0.198H160.52z"/>
		<path fill="#1D1D1B" d="M160.969,16.387h-0.25c0-3.225,2.623-5.848,5.846-5.848v0.25C163.479,10.79,160.969,13.3,160.969,16.387z"
			/>
	</g>
	<g>
		<path fill="#1D1D1B" d="M171.963,16.585v-0.198c0-2.978-2.422-5.399-5.398-5.399h-0.197v-0.646h0.197
			c3.334,0,6.045,2.712,6.045,6.046v0.198H171.963z"/>
		<path fill="#1D1D1B" d="M172.412,16.387h-0.25c0-3.087-2.512-5.598-5.598-5.598v-0.25
			C169.789,10.54,172.412,13.163,172.412,16.387z"/>
	</g>
	<g>
		<rect x="160.52" y="10.466" fill="#1D1D1B" width="0.646" height="11.841"/>
		<rect x="160.719" y="10.665" fill="#1D1D1B" width="0.25" height="11.443"/>
	</g>
	<g>
		<rect x="171.963" y="16.188" fill="#1D1D1B" width="0.646" height="6.119"/>
		<rect x="172.162" y="16.386" fill="#1D1D1B" width="0.25" height="5.722"/>
	</g>
	<g>
		<rect x="185.416" y="16.188" fill="#1D1D1B" width="0.646" height="6.119"/>
		<rect x="185.613" y="16.386" fill="#1D1D1B" width="0.25" height="5.722"/>
	</g>
	<g>
		<path fill="#1D1D1B" d="M185.416,16.585v-0.198c0-2.978-2.422-5.399-5.4-5.399h-0.197v-0.646h0.197
			c3.334,0,6.047,2.712,6.047,6.046v0.198H185.416z"/>
		<path fill="#1D1D1B" d="M185.863,16.387h-0.25c0-3.087-2.51-5.598-5.598-5.598v-0.25C183.24,10.54,185.863,13.163,185.863,16.387z
			"/>
	</g>
	<g>
		<path fill="#1D1D1B" d="M179.818,22.432v-0.647h0.197c2.979,0,5.4-2.421,5.4-5.398v-0.198h0.646v0.198
			c0,3.333-2.713,6.046-6.047,6.046H179.818z"/>
		<path fill="#1D1D1B" d="M180.016,22.233v-0.25c3.088,0,5.598-2.51,5.598-5.597h0.25C185.863,19.61,183.24,22.233,180.016,22.233z"
			/>
	</g>
	<g>
		<path fill="#1D1D1B" d="M179.818,28.154v-0.646h0.197c2.979,0,5.4-2.422,5.4-5.399V21.91h0.646v0.198
			c0,3.334-2.713,6.046-6.047,6.046H179.818z"/>
		<path fill="#1D1D1B" d="M180.016,27.956v-0.25c3.088,0,5.598-2.511,5.598-5.598h0.25C185.863,25.333,183.24,27.956,180.016,27.956
			z"/>
	</g>
	<g>
		<path fill="#1D1D1B" d="M173.971,16.585v-0.198c0-3.334,2.711-6.046,6.045-6.046h0.199v0.646h-0.199
			c-2.977,0-5.398,2.422-5.398,5.399v0.198H173.971z"/>
		<path fill="#1D1D1B" d="M174.418,16.387h-0.25c0-3.225,2.623-5.848,5.848-5.848v0.25C176.93,10.79,174.418,13.3,174.418,16.387z"
			/>
	</g>
	<g>
		<path fill="#1D1D1B" d="M180.016,22.432c-3.334,0-6.045-2.713-6.045-6.046v-0.198h0.646v0.198c0,2.978,2.422,5.398,5.398,5.398
			h0.199v0.647H180.016z"/>
		<path fill="#1D1D1B" d="M180.016,22.233c-3.225,0-5.848-2.623-5.848-5.847h0.25c0,3.087,2.512,5.597,5.598,5.597V22.233z"/>
	</g>
	<g>
		<path fill="#1D1D1B" d="M128.195,16.585v-0.198c0-3.334,2.711-6.046,6.045-6.046h0.197v0.646h-0.197
			c-2.977,0-5.398,2.422-5.398,5.399v0.198H128.195z"/>
		<path fill="#1D1D1B" d="M128.643,16.387h-0.25c0-3.225,2.623-5.848,5.848-5.848v0.25C131.154,10.79,128.643,13.3,128.643,16.387z"
			/>
	</g>
	<g>
		<path fill="#1D1D1B" d="M134.238,22.432c-3.332,0-6.045-2.713-6.045-6.046v-0.198h0.646v0.198c0,2.978,2.422,5.398,5.398,5.398
			h0.199v0.647H134.238z"/>
		<path fill="#1D1D1B" d="M134.238,22.233c-3.223,0-5.846-2.623-5.846-5.847h0.25c0,3.087,2.51,5.597,5.596,5.597V22.233z"/>
	</g>
	<g>
		<path fill="#1D1D1B" d="M134.041,22.432v-0.647h0.197c2.979,0,5.4-2.421,5.4-5.398v-0.198h0.646v0.198
			c0,3.333-2.713,6.046-6.047,6.046H134.041z"/>
		<path fill="#1D1D1B" d="M134.238,22.233v-0.25c3.088,0,5.598-2.51,5.598-5.597h0.25C140.086,19.61,137.463,22.233,134.238,22.233z
			"/>
	</g>
	<g>
		<path fill="#1D1D1B" d="M148.346,16.71v-0.647h0.199c2.977,0,5.398-2.421,5.398-5.398v-0.198h0.646v0.198
			c0,3.333-2.711,6.046-6.045,6.046H148.346z"/>
		<path fill="#1D1D1B" d="M148.545,16.512v-0.25c3.086,0,5.596-2.511,5.596-5.598h0.25
			C154.391,13.889,151.768,16.512,148.545,16.512z"/>
	</g>
	<g>
		<rect x="142.5" y="4.744" fill="#1D1D1B" width="0.646" height="17.563"/>
		<rect x="142.697" y="4.942" fill="#1D1D1B" width="0.25" height="17.166"/>
	</g>
	<g>
		<path fill="#1D1D1B" d="M153.943,22.307v-0.199c0-2.977-2.422-5.397-5.398-5.397h-0.199v-0.647h0.199
			c3.334,0,6.045,2.712,6.045,6.045v0.199H153.943z"/>
		<path fill="#1D1D1B" d="M154.391,22.108h-0.25c0-3.086-2.51-5.596-5.596-5.596v-0.25
			C151.768,16.262,154.391,18.884,154.391,22.108z"/>
	</g>
	<g>
		<rect x="142.625" y="16.063" fill="#1D1D1B" width="6.117" height="0.647"/>
		<rect x="142.822" y="16.262" fill="#1D1D1B" width="5.723" height="0.25"/>
	</g>
	<g>
		<rect x="156.805" y="10.466" fill="#1D1D1B" width="0.646" height="11.841"/>
		<rect x="157.002" y="10.665" fill="#1D1D1B" width="0.25" height="11.443"/>
	</g>
	<g>
		<rect x="156.805" y="4.744" fill="#1D1D1B" width="0.646" height="3.259"/>
		<rect x="157.002" y="4.942" fill="#1D1D1B" width="0.25" height="2.861"/>
	</g>
</g>
</svg>
