<?xml version="1.0" encoding="utf-8"?>
<!-- Generator: Adobe Illustrator 15.0.0, SVG Export Plug-In . SVG Version: 6.00 Build 0)  -->
<!DOCTYPE svg PUBLIC "-//W3C//DTD SVG 1.1//EN" "http://www.w3.org/Graphics/SVG/1.1/DTD/svg11.dtd">
<svg version="1.1" id="Layer_1" xmlns="http://www.w3.org/2000/svg" xmlns:xlink="http://www.w3.org/1999/xlink" x="0px" y="0px"
	 width="83.346px" height="22.325px" viewBox="0 0 83.346 22.325" enable-background="new 0 0 83.346 22.325" xml:space="preserve">
<g>
	<g>
		<path fill="#1D1D1B" d="M49.777,16.812v-0.299c0-3.17,2.581-5.752,5.752-5.752h0.298v0.748h-0.298
			c-2.76,0-5.004,2.244-5.004,5.004v0.299H49.777z"/>
		<path fill="#1D1D1B" d="M50.227,16.513h-0.149c0-3.006,2.446-5.452,5.452-5.452v0.149C52.604,11.21,50.227,13.589,50.227,16.513z"
			/>
	</g>
	<g>
		<path fill="#1D1D1B" d="M60.532,16.812v-0.299c0-2.76-2.244-5.004-5.004-5.004h-0.299v-0.748h0.299
			c3.171,0,5.751,2.582,5.751,5.752v0.299H60.532z"/>
		<path fill="#1D1D1B" d="M60.981,16.513h-0.15c0-2.924-2.378-5.303-5.303-5.303v-0.149C58.536,11.061,60.981,13.507,60.981,16.513z
			"/>
	</g>
	<g>
		<rect x="49.777" y="5.459" fill="#1D1D1B" width="0.748" height="16.729"/>
		<rect x="50.077" y="5.757" fill="#1D1D1B" width="0.149" height="16.134"/>
	</g>
	<g>
		<rect x="60.534" y="16.214" fill="#1D1D1B" width="0.746" height="5.975"/>
		<rect x="60.832" y="16.513" fill="#1D1D1B" width="0.149" height="5.378"/>
	</g>
	<g>
		<path fill="#1D1D1B" d="M77.295,16.873v-0.299c0-3.17,2.58-5.751,5.752-5.751h0.299v0.747h-0.299
			c-2.762,0-5.005,2.244-5.005,5.004v0.299H77.295z"/>
		<path fill="#1D1D1B" d="M77.743,16.574h-0.149c0-3.006,2.445-5.452,5.453-5.452v0.149C80.121,11.271,77.743,13.65,77.743,16.574z"
			/>
	</g>
	<g>
		<rect x="77.295" y="10.898" fill="#1D1D1B" width="0.747" height="11.353"/>
		<rect x="77.594" y="11.197" fill="#1D1D1B" width="0.149" height="10.755"/>
	</g>
	<g>
		<path fill="#1D1D1B" d="M29.214,22.325v-0.747h0.3c2.759,0,5.005-2.244,5.005-5.004v-0.299h0.747v0.299
			c0,3.172-2.581,5.751-5.752,5.751H29.214z"/>
		<path fill="#1D1D1B" d="M29.514,22.027v-0.15c2.924,0,5.303-2.379,5.303-5.303h0.149C34.966,19.58,32.521,22.027,29.514,22.027z"
			/>
	</g>
	<g>
		<path fill="#1D1D1B" d="M29.514,22.325c-3.17,0-5.751-2.579-5.751-5.751v-0.299h0.748v0.299c0,2.76,2.244,5.004,5.003,5.004h0.299
			v0.747H29.514z"/>
		<path fill="#1D1D1B" d="M29.514,22.027c-3.006,0-5.452-2.447-5.452-5.453h0.15c0,2.924,2.378,5.303,5.302,5.303V22.027z"/>
	</g>
	<g>
		<rect x="34.519" y="10.898" fill="#1D1D1B" width="0.747" height="11.353"/>
		<rect x="34.816" y="11.197" fill="#1D1D1B" width="0.149" height="10.755"/>
	</g>
	<g>
		<rect x="23.763" y="10.898" fill="#1D1D1B" width="0.747" height="5.975"/>
		<rect x="24.062" y="11.197" fill="#1D1D1B" width="0.149" height="5.377"/>
	</g>
	<g>
		<path fill="#1D1D1B" d="M22.049,16.873v-0.299c0-2.76-2.247-5.004-5.007-5.004h-0.299v-0.747h0.299
			c3.173,0,5.753,2.58,5.753,5.751v0.299H22.049z"/>
		<path fill="#1D1D1B" d="M22.496,16.574h-0.148c0-2.924-2.38-5.303-5.306-5.303v-0.149C20.05,11.122,22.496,13.568,22.496,16.574z"
			/>
	</g>
	<g>
		<path fill="#1D1D1B" d="M16.744,22.325v-0.747h0.298c2.76,0,5.007-2.244,5.007-5.005v-0.298h0.746v0.298
			c0,3.173-2.58,5.752-5.753,5.752H16.744z"/>
		<path fill="#1D1D1B" d="M17.042,22.026v-0.149c2.926,0,5.306-2.379,5.306-5.304h0.148C22.496,19.58,20.05,22.026,17.042,22.026z"
			/>
	</g>
	<g>
		<path fill="#1D1D1B" d="M11.293,16.873v-0.299c0-3.171,2.579-5.751,5.75-5.751h0.3v0.747h-0.3c-2.758,0-5.004,2.244-5.004,5.004
			v0.299H11.293z"/>
		<path fill="#1D1D1B" d="M11.74,16.574h-0.148c0-3.006,2.445-5.452,5.451-5.452v0.149C14.12,11.271,11.74,13.65,11.74,16.574z"/>
	</g>
	<g>
		<path fill="#1D1D1B" d="M17.042,22.325c-3.17,0-5.749-2.579-5.749-5.752v-0.298h0.746v0.298c0,2.761,2.246,5.005,5.003,5.005
			h0.301v0.747H17.042z"/>
		<path fill="#1D1D1B" d="M17.042,22.026c-3.005,0-5.45-2.446-5.45-5.453h0.148c0,2.925,2.38,5.304,5.302,5.304V22.026z"/>
	</g>
	<g>
		<path fill="#1D1D1B" d="M36.583,16.873v-0.299c0-3.17,2.581-5.751,5.752-5.751h0.299v0.747h-0.299
			c-2.76,0-5.004,2.244-5.004,5.004v0.299H36.583z"/>
		<path fill="#1D1D1B" d="M37.032,16.574h-0.149c0-3.006,2.446-5.452,5.452-5.452v0.149C39.411,11.271,37.032,13.65,37.032,16.574z"
			/>
	</g>
	<g>
		<path fill="#1D1D1B" d="M42.335,22.325c-3.172,0-5.752-2.579-5.752-5.751v-0.299h0.748v0.299c0,2.76,2.244,5.004,5.004,5.004
			h0.299v0.747H42.335z"/>
		<path fill="#1D1D1B" d="M42.335,22.027c-3.008,0-5.452-2.447-5.452-5.453h0.149c0,2.924,2.379,5.303,5.303,5.303V22.027z"/>
	</g>
	<g>
		<path fill="#1D1D1B" d="M42.036,22.325v-0.747h0.299c2.76,0,5.003-2.244,5.003-5.004v-0.299h0.748v0.299
			c0,3.172-2.579,5.751-5.751,5.751H42.036z"/>
		<path fill="#1D1D1B" d="M42.335,22.027v-0.15c2.924,0,5.302-2.379,5.302-5.303h0.15C47.787,19.58,45.342,22.027,42.335,22.027z"/>
	</g>
	<g>
		
			<rect x="3.227" y="-0.25" transform="matrix(-0.9699 0.2435 -0.2435 -0.9699 9.8031 21.0609)" fill="#1D1D1B" width="0.746" height="22.772"/>
		
			<rect x="-7.488" y="11.061" transform="matrix(0.2425 0.9701 -0.9701 0.2425 13.5295 4.9433)" fill="#1D1D1B" width="22.174" height="0.149"/>
	</g>
	<g>
		
			<rect x="-2.408" y="10.763" transform="matrix(-0.2424 0.9702 -0.9702 -0.2424 21.9586 5.1258)" fill="#1D1D1B" width="22.771" height="0.747"/>
		
			<rect x="8.902" y="0.049" transform="matrix(0.9701 0.2425 -0.2425 0.9701 2.9688 -1.8447)" fill="#1D1D1B" width="0.149" height="22.174"/>
	</g>
	<g>
		<path fill="#1D1D1B" d="M63.253,16.812v-0.299c0-3.17,2.58-5.752,5.752-5.752h0.299v0.748h-0.299
			c-2.759,0-5.006,2.244-5.006,5.004v0.299H63.253z"/>
		<path fill="#1D1D1B" d="M63.701,16.513h-0.149c0-3.006,2.447-5.452,5.453-5.452v0.149C66.081,11.21,63.701,13.589,63.701,16.513z"
			/>
	</g>
	<g>
		<path fill="#1D1D1B" d="M69.005,22.265c-3.172,0-5.752-2.581-5.752-5.752v-0.299h0.746v0.299c0,2.76,2.245,5.004,5.006,5.004
			h0.299v0.748H69.005z"/>
		<path fill="#1D1D1B" d="M69.005,21.966c-3.006,0-5.453-2.446-5.453-5.453h0.149c0,2.924,2.38,5.303,5.304,5.303V21.966z"/>
	</g>
	<g>
		<path fill="#1D1D1B" d="M74.008,16.812v-0.299c0-2.76-2.245-5.004-5.003-5.004h-0.299v-0.748h0.299
			c3.171,0,5.749,2.582,5.749,5.752v0.299H74.008z"/>
		<path fill="#1D1D1B" d="M74.457,16.513h-0.149c0-2.924-2.379-5.303-5.303-5.303v-0.149C72.01,11.061,74.457,13.507,74.457,16.513z
			"/>
	</g>
	<g>
		<rect x="63.328" y="16.14" fill="#1D1D1B" width="11.353" height="0.746"/>
		<rect x="63.627" y="16.439" fill="#1D1D1B" width="10.755" height="0.149"/>
	</g>
</g>
</svg>
